SplineFontDB: 3.0
FontName: Oxygen-Sans
FullName: Oxygen Sans Book
FamilyName: Oxygen-Sans
Weight: Book
Version: 0.4
ItalicAngle: 0
UnderlinePosition: 0
UnderlineWidth: 0
Ascent: 1638
Descent: 410
sfntRevision: 0x00010000
LayerCount: 2
Layer: 0 1 "Back"  1
Layer: 1 1 "Fore"  0
XUID: [1021 913 -2060267417 5478709]
FSType: 8
OS2Version: 1
OS2_WeightWidthSlopeOnly: 0
OS2_UseTypoMetrics: 1
CreationTime: 1378759556
ModificationTime: 1378761312
PfmFamily: 17
TTFWeight: 400
TTFWidth: 5
LineGap: 0
VLineGap: 0
Panose: 2 0 6 3 0 0 0 0 0 0
OS2TypoAscent: 2356
OS2TypoAOffset: 0
OS2TypoDescent: -664
OS2TypoDOffset: 0
OS2TypoLinegap: 0
OS2WinAscent: 2356
OS2WinAOffset: 0
OS2WinDescent: 664
OS2WinDOffset: 0
HheadAscent: 2388
HheadAOffset: 0
HheadDescent: -664
HheadDOffset: 0
OS2SubXSize: 1331
OS2SubYSize: 1433
OS2SubXOff: 0
OS2SubYOff: 286
OS2SupXSize: 1331
OS2SupYSize: 1433
OS2SupXOff: 0
OS2SupYOff: 983
OS2StrikeYSize: 102
OS2StrikeYPos: 530
OS2Vendor: 'newt'
OS2CodePages: 20000097.00000000
OS2UnicodeRanges: a00002ef.4000204b.00000000.00000000
Lookup: 258 0 0 "'kern' Horizontal Kerning in Latin lookup 0"  {"'kern' Horizontal Kerning in Latin lookup 0 subtable"  } ['kern' ('latn' <'dflt' > ) ]
DEI: 91125
KernClass2: 18 10 "'kern' Horizontal Kerning in Latin lookup 0 subtable" 
 89 A Agrave Aacute Acircumflex Atilde Adieresis Aring Abreve Amacron Aogonek uni0200 uni0202
 37 S Sacute Scaron Scedilla Scommaaccent
 16 T Tcaron uni021A
 1 V
 1 W
 1 X
 18 Y Yacute Ydieresis
 108 b o p ograve oacute ocircumflex otilde odieresis oslash obreve ohungarumlaut omacron uni020D uni020F uni1E57
 1 c
 1 f
 14 k kcommaaccent
 28 l lacute lcaron lcommaaccent
 44 r racute rcaron rcommaaccent uni0211 uni0213
 37 t tcaron tcommaaccent uni021B uni1E6B
 37 w wacute wcircumflex wdieresis wgrave
 37 y yacute ydieresis ycircumflex ygrave
 1 L
 89 A Agrave Aacute Acircumflex Atilde Adieresis Aring Abreve Amacron Aogonek uni0200 uni0202

StartChar: .notdef
Encoding: 65536 -1 0
Width: 951
Flags: W
LayerCount: 2
UndoRedoHistory
Layer: 1
Undoes
EndUndoes
Redoes
EndRedoes
EndUndoRedoHistory
Fore
SplineSet
193 186 m 1,0,-1
 775 186 l 1,1,-1
 775 870 l 1,2,-1
 193 870 l 1,3,-1
 193 186 l 1,0,-1
96 89 m 1,4,-1
 96 967 l 1,5,-1
 871 967 l 1,6,-1
 871 89 l 1,7,-1
 96 89 l 1,4,-1
EndSplineSet
EndChar

StartChar: exclam
Encoding: 33 33 4
Width: 564
Flags: W
LayerCount: 2
UndoRedoHistory
Layer: 1
Undoes
EndUndoes
Redoes
EndRedoes
EndUndoRedoHistory
Fore
SplineSet
282 -13 m 128,-1,1
 226 -13 226 -13 196.5 21 c 128,-1,2
 167 55 167 55 167 101.5 c 128,-1,3
 167 148 167 148 196.5 182 c 128,-1,4
 226 216 226 216 282 216 c 128,-1,5
 338 216 338 216 367.5 182 c 128,-1,6
 397 148 397 148 397 101 c 128,-1,7
 397 54 397 54 367.5 20.5 c 128,-1,0
 338 -13 338 -13 282 -13 c 128,-1,1
248 418 m 1,8,-1
 190 1341 l 1,9,-1
 190 1460 l 1,10,-1
 366 1460 l 1,11,-1
 366 1341 l 1,12,-1
 314 418 l 1,13,-1
 248 418 l 1,8,-1
EndSplineSet
EndChar

StartChar: quotedbl
Encoding: 34 34 5
Width: 641
Flags: W
LayerCount: 2
UndoRedoHistory
Layer: 1
Undoes
EndUndoes
Redoes
EndRedoes
EndUndoRedoHistory
Fore
SplineSet
423 953 m 1,0,-1
 380 1460 l 1,1,-1
 548 1460 l 1,2,-1
 499 953 l 1,3,-1
 423 953 l 1,0,-1
159 953 m 1,4,-1
 109 1460 l 1,5,-1
 277 1460 l 1,6,-1
 234 953 l 1,7,-1
 159 953 l 1,4,-1
EndSplineSet
EndChar

StartChar: numbersign
Encoding: 35 35 6
Width: 1204
Flags: W
LayerCount: 2
UndoRedoHistory
Layer: 1
Undoes
EndUndoes
Redoes
EndRedoes
EndUndoRedoHistory
Fore
SplineSet
694 522 m 1,0,-1
 787 967 l 1,1,-1
 504 967 l 1,2,-1
 410 522 l 1,3,-1
 694 522 l 1,0,-1
582 -20 m 1,4,-1
 674 431 l 1,5,-1
 392 431 l 1,6,-1
 298 -20 l 1,7,-1
 174 -20 l 1,8,-1
 267 431 l 1,9,-1
 85 431 l 1,10,-1
 98 522 l 1,11,-1
 285 522 l 1,12,-1
 378 967 l 1,13,-1
 181 967 l 1,14,-1
 194 1058 l 1,15,-1
 397 1058 l 1,16,-1
 479 1460 l 1,17,-1
 605 1460 l 1,18,-1
 523 1058 l 1,19,-1
 806 1058 l 1,20,-1
 889 1460 l 1,21,-1
 1013 1460 l 1,22,-1
 931 1058 l 1,23,-1
 1119 1058 l 1,24,-1
 1104 967 l 1,25,-1
 913 967 l 1,26,-1
 820 522 l 1,27,-1
 1023 522 l 1,28,-1
 1008 431 l 1,29,-1
 800 431 l 1,30,-1
 707 -20 l 1,31,-1
 582 -20 l 1,4,-1
EndSplineSet
EndChar

StartChar: dollar
Encoding: 36 36 7
Width: 1167
Flags: W
LayerCount: 2
UndoRedoHistory
Layer: 1
Undoes
EndUndoes
Redoes
EndRedoes
EndUndoRedoHistory
Fore
SplineSet
905 393 m 0,0,1
 904 473 904 473 880 514 c 0,2,3
 866 538 866 538 851 554.5 c 128,-1,4
 836 571 836 571 772 606 c 128,-1,5
 708 641 708 641 451 731 c 0,6,7
 298 784 298 784 223 855 c 0,8,9
 138 935 138 935 138 1107 c 0,10,11
 138 1306 138 1306 280 1396 c 0,12,13
 391 1467 391 1467 542 1478 c 1,14,-1
 572 1735 l 1,15,-1
 638 1735 l 1,16,-1
 679 1476 l 1,17,18
 870 1458 870 1458 1017 1368 c 1,19,-1
 953 1244 l 1,20,21
 813 1341 813 1341 586 1341 c 0,22,23
 471 1340 471 1340 390 1294 c 0,24,25
 300 1242 300 1242 300 1097 c 0,26,27
 300 1090 300 1090 300 1083 c 0,28,29
 303 994 303 994 347 956 c 0,30,31
 374 933 374 933 426.5 912.5 c 128,-1,32
 479 892 479 892 537 869 c 128,-1,33
 595 846 595 846 695 809 c 0,34,35
 733 795 733 795 781 775.5 c 128,-1,36
 829 756 829 756 858 741 c 128,-1,37
 887 726 887 726 921 704.5 c 128,-1,38
 955 683 955 683 974.5 662 c 128,-1,39
 994 641 994 641 1014.5 612 c 128,-1,40
 1035 583 1035 583 1045 550 c 128,-1,41
 1055 517 1055 517 1061.5 475.5 c 128,-1,42
 1068 434 1068 434 1068 363.5 c 128,-1,43
 1068 293 1068 293 1041 222 c 0,44,45
 962 15 962 15 684 -15 c 1,46,-1
 654 -278 l 1,47,-1
 588 -278 l 1,48,-1
 547 -19 l 1,49,50
 435 -14 435 -14 319.5 21 c 128,-1,51
 204 56 204 56 142 111 c 1,52,-1
 142 269 l 1,53,54
 350 120 350 120 610 120 c 0,55,56
 740 120 740 120 822.5 183 c 128,-1,57
 905 246 905 246 905 393 c 0,0,1
EndSplineSet
EndChar

StartChar: percent
Encoding: 37 37 8
Width: 1789
Flags: W
LayerCount: 2
UndoRedoHistory
Layer: 1
Undoes
EndUndoes
Redoes
EndRedoes
EndUndoRedoHistory
Fore
SplineSet
1638 103.5 m 128,-1,1
 1549 -1 1549 -1 1386.5 -1 c 128,-1,2
 1224 -1 1224 -1 1136 103 c 128,-1,3
 1048 207 1048 207 1048 371.5 c 128,-1,4
 1048 536 1048 536 1137 640 c 128,-1,5
 1226 744 1226 744 1389 744 c 128,-1,6
 1552 744 1552 744 1639.5 641.5 c 128,-1,7
 1727 539 1727 539 1727 373.5 c 128,-1,0
 1727 208 1727 208 1638 103.5 c 128,-1,1
1388 92 m 128,-1,9
 1500 92 1500 92 1555.5 170 c 128,-1,10
 1611 248 1611 248 1611 374.5 c 128,-1,11
 1611 501 1611 501 1555.5 575.5 c 128,-1,12
 1500 650 1500 650 1388 650 c 128,-1,13
 1276 650 1276 650 1220 574 c 128,-1,14
 1164 498 1164 498 1164 371.5 c 128,-1,15
 1164 245 1164 245 1220 168.5 c 128,-1,8
 1276 92 1276 92 1388 92 c 128,-1,9
402 809 m 128,-1,17
 514 809 514 809 569.5 886.5 c 128,-1,18
 625 964 625 964 625 1090.5 c 128,-1,19
 625 1217 625 1217 569.5 1291.5 c 128,-1,20
 514 1366 514 1366 402 1366 c 128,-1,21
 290 1366 290 1366 234 1290 c 128,-1,22
 178 1214 178 1214 178 1087.5 c 128,-1,23
 178 961 178 961 234 885 c 128,-1,16
 290 809 290 809 402 809 c 128,-1,17
652 819.5 m 128,-1,25
 563 715 563 715 400.5 715 c 128,-1,26
 238 715 238 715 150 819 c 128,-1,27
 62 923 62 923 62 1087.5 c 128,-1,28
 62 1252 62 1252 151 1355.5 c 128,-1,29
 240 1459 240 1459 403 1459 c 128,-1,30
 566 1459 566 1459 653.5 1357 c 128,-1,31
 741 1255 741 1255 741 1089.5 c 128,-1,24
 741 924 741 924 652 819.5 c 128,-1,25
417 0 m 1,32,-1
 1247 1460 l 1,33,-1
 1369 1460 l 1,34,-1
 549 0 l 1,35,-1
 417 0 l 1,32,-1
EndSplineSet
EndChar

StartChar: ampersand
Encoding: 38 38 9
Width: 1401
Flags: W
LayerCount: 2
UndoRedoHistory
Layer: 1
Undoes
EndUndoes
Redoes
EndRedoes
EndUndoRedoHistory
Fore
SplineSet
955 233 m 1,0,1
 537 697 l 1,2,3
 431 633 431 633 373 556.5 c 128,-1,4
 315 480 315 480 315 370.5 c 128,-1,5
 315 261 315 261 405 186.5 c 128,-1,6
 495 112 495 112 644.5 112 c 128,-1,7
 794 112 794 112 955 233 c 1,0,1
581 855 m 1,8,9
 674 902 674 902 740 950 c 0,10,11
 856 1035 856 1035 857 1159 c 0,12,13
 857 1340 857 1340 662 1340 c 0,14,15
 565 1340 565 1340 496 1290 c 128,-1,16
 427 1240 427 1240 427 1157 c 0,17,18
 427 1022 427 1022 559 879 c 2,19,-1
 581 855 l 1,8,9
1006 1164 m 0,20,21
 1006 1080 1006 1080 976 1024 c 0,22,23
 960 994 960 994 943.5 969.5 c 128,-1,24
 927 945 927 945 897.5 919.5 c 128,-1,25
 868 894 868 894 837.5 869 c 128,-1,26
 807 844 807 844 662 767 c 1,27,-1
 1063 332 l 1,28,29
 1155 432 1155 432 1231 568 c 1,30,-1
 1345 493 l 1,31,32
 1256 338 1256 338 1155 233 c 1,33,-1
 1314 60 l 1,34,-1
 1198 -36 l 1,35,-1
 1045 134 l 1,36,37
 844 -20 844 -20 635 -20 c 128,-1,38
 426 -20 426 -20 290 92 c 0,39,40
 155 203 155 203 155 352 c 0,41,42
 154 484 154 484 214 582 c 0,43,44
 281 692 281 692 454 789 c 1,45,-1
 427 819 l 2,46,47
 280 981 280 981 280 1133.5 c 128,-1,48
 280 1286 280 1286 386.5 1372.5 c 128,-1,49
 493 1459 493 1459 655.5 1459 c 128,-1,50
 818 1459 818 1459 912 1383 c 128,-1,51
 1006 1307 1006 1307 1006 1164 c 0,20,21
EndSplineSet
EndChar

StartChar: quotesingle
Encoding: 39 39 10
Width: 341
Flags: W
LayerCount: 2
UndoRedoHistory
Layer: 1
Undoes
EndUndoes
Redoes
EndRedoes
EndUndoRedoHistory
Fore
SplineSet
132 953 m 1,0,-1
 96 1460 l 1,1,-1
 261 1460 l 1,2,-1
 223 953 l 1,3,-1
 132 953 l 1,0,-1
EndSplineSet
EndChar

StartChar: parenleft
Encoding: 40 40 11
Width: 702
Flags: W
LayerCount: 2
UndoRedoHistory
Layer: 1
Undoes
EndUndoes
Redoes
EndRedoes
EndUndoRedoHistory
Fore
SplineSet
452 1546 m 1,0,1
 609 1546 l 1,2,3
 356 1158 356 1158 356 691 c 0,4,5
 356 167 356 167 608 -229 c 1,6,7
 454 -229 l 1,8,9
 331 -58 331 -58 262.5 182.5 c 128,-1,10
 194 423 194 423 194 687 c 0,11,12
 194 1169 194 1169 452 1546 c 1,0,1
EndSplineSet
EndChar

StartChar: parenright
Encoding: 41 41 12
Width: 706
Flags: W
LayerCount: 2
UndoRedoHistory
Layer: 1
Undoes
EndUndoes
Redoes
EndRedoes
EndUndoRedoHistory
Fore
SplineSet
114 -229 m 1,0,1
 240 -38 240 -38 303 202.5 c 128,-1,2
 366 443 366 443 366 683.5 c 128,-1,3
 366 924 366 924 308 1126 c 128,-1,4
 250 1328 250 1328 113 1546 c 1,5,-1
 270 1546 l 1,6,7
 528 1167 528 1167 528 693 c 0,8,9
 528 429 528 429 458.5 182.5 c 128,-1,10
 389 -64 389 -64 269 -229 c 1,11,-1
 114 -229 l 1,0,1
EndSplineSet
EndChar

StartChar: asterisk
Encoding: 42 42 13
Width: 1203
Flags: W
LayerCount: 2
UndoRedoHistory
Layer: 1
Undoes
EndUndoes
Redoes
EndRedoes
EndUndoRedoHistory
Fore
SplineSet
933 639 m 1,0,-1
 797 553 l 1,1,-1
 596 911 l 1,2,-1
 408 553 l 1,3,-1
 272 639 l 1,4,-1
 514 968 l 1,5,-1
 157 1050 l 1,6,-1
 201 1205 l 1,7,-1
 553 1056 l 1,8,-1
 518 1460 l 1,9,-1
 685 1460 l 1,10,-1
 648 1056 l 1,11,-1
 1002 1205 l 1,12,-1
 1046 1050 l 1,13,-1
 684 968 l 1,14,15
 837 761 837 761 933 639 c 1,0,-1
EndSplineSet
EndChar

StartChar: plus
Encoding: 43 43 14
Width: 1203
Flags: W
LayerCount: 2
UndoRedoHistory
Layer: 1
Undoes
EndUndoes
Redoes
EndRedoes
EndUndoRedoHistory
Fore
SplineSet
538 227 m 1,0,-1
 538 621 l 1,1,-1
 160 621 l 1,2,-1
 160 744 l 1,3,-1
 539 744 l 1,4,-1
 539 1133 l 1,5,-1
 670 1133 l 1,6,-1
 670 744 l 1,7,-1
 1043 744 l 1,8,-1
 1043 621 l 1,9,-1
 670 621 l 1,10,-1
 670 227 l 1,11,-1
 538 227 l 1,0,-1
EndSplineSet
EndChar

StartChar: comma
Encoding: 44 44 15
Width: 481
Flags: W
LayerCount: 2
UndoRedoHistory
Layer: 1
Undoes
EndUndoes
Redoes
EndRedoes
EndUndoRedoHistory
Fore
SplineSet
137 -290 m 1,0,-1
 148 -178 l 1,1,2
 178 155 178 155 178 221 c 1,3,-1
 351 221 l 1,4,-1
 351 181 l 2,5,6
 351 152 351 152 234 -290 c 1,7,-1
 137 -290 l 1,0,-1
EndSplineSet
EndChar

StartChar: hyphen
Encoding: 45 45 16
Width: 1205
Flags: W
LayerCount: 2
UndoRedoHistory
Layer: 1
Undoes
EndUndoes
Redoes
EndRedoes
EndUndoRedoHistory
Fore
SplineSet
268 579 m 1,0,-1
 268 714 l 1,1,-1
 937 714 l 1,2,-1
 937 579 l 1,3,-1
 268 579 l 1,0,-1
EndSplineSet
EndChar

StartChar: period
Encoding: 46 46 17
Width: 488
Flags: W
LayerCount: 2
UndoRedoHistory
Layer: 1
Undoes
EndUndoes
Redoes
EndRedoes
EndUndoRedoHistory
Fore
SplineSet
256 -11 m 128,-1,1
 204 -11 204 -11 175.5 21.5 c 128,-1,2
 147 54 147 54 147 98.5 c 128,-1,3
 147 143 147 143 175 175 c 128,-1,4
 203 207 203 207 255.5 207 c 128,-1,5
 308 207 308 207 335.5 175 c 128,-1,6
 363 143 363 143 363 98 c 128,-1,7
 363 53 363 53 335.5 21 c 128,-1,0
 308 -11 308 -11 256 -11 c 128,-1,1
EndSplineSet
EndChar

StartChar: slash
Encoding: 47 47 18
Width: 963
Flags: W
LayerCount: 2
UndoRedoHistory
Layer: 1
Undoes
EndUndoes
Redoes
EndRedoes
EndUndoRedoHistory
Fore
SplineSet
103 0 m 1,0,-1
 712 1460 l 1,1,-1
 860 1460 l 1,2,-1
 247 0 l 1,3,-1
 103 0 l 1,0,-1
EndSplineSet
EndChar

StartChar: zero
Encoding: 48 48 19
Width: 1204
Flags: W
LayerCount: 2
UndoRedoHistory
Layer: 1
Undoes
EndUndoes
Redoes
EndRedoes
EndUndoRedoHistory
Fore
SplineSet
842.5 264.5 m 128,-1,1
 925 423 925 423 925 732 c 0,2,3
 925 1345 925 1345 607 1345 c 0,4,5
 454 1345 454 1345 366.5 1185.5 c 128,-1,6
 279 1026 279 1026 279 738 c 0,7,8
 279 735 279 735 279 731 c 0,9,10
 279 425 279 425 365.5 265.5 c 128,-1,11
 452 106 452 106 606 106 c 128,-1,0
 760 106 760 106 842.5 264.5 c 128,-1,1
385.5 27.5 m 128,-1,13
 290 84 290 84 232 186 c 0,14,15
 114 392 114 392 114 726 c 0,16,17
 114 1200 114 1200 335 1386 c 0,18,19
 447 1480 447 1480 607 1480 c 0,20,21
 850 1480 850 1480 972 1274 c 0,22,23
 1090 1072 1090 1072 1090 726 c 0,24,25
 1090 392 1090 392 978 187 c 0,26,27
 922 84 922 84 827 27.5 c 128,-1,28
 732 -29 732 -29 606.5 -29 c 128,-1,12
 481 -29 481 -29 385.5 27.5 c 128,-1,13
EndSplineSet
EndChar

StartChar: one
Encoding: 49 49 20
Width: 1204
Flags: W
LayerCount: 2
UndoRedoHistory
Layer: 1
Undoes
EndUndoes
Redoes
EndRedoes
EndUndoRedoHistory
Fore
SplineSet
237 0 m 1,0,-1
 237 120 l 1,1,-1
 589 120 l 1,2,-1
 589 1308 l 1,3,4
 526 1273 526 1273 430.5 1243 c 128,-1,5
 335 1213 335 1213 268 1204 c 1,6,-1
 268 1336 l 1,7,8
 343 1351 343 1351 446.5 1387.5 c 128,-1,9
 550 1424 550 1424 602 1460 c 1,10,-1
 755 1460 l 1,11,-1
 755 120 l 1,12,-1
 1069 120 l 1,13,-1
 1069 0 l 1,14,-1
 237 0 l 1,0,-1
EndSplineSet
EndChar

StartChar: two
Encoding: 50 50 21
Width: 1204
Flags: W
LayerCount: 2
UndoRedoHistory
Layer: 1
Undoes
EndUndoes
Redoes
EndRedoes
EndUndoRedoHistory
Fore
SplineSet
247 1239 m 1,0,1
 198 1366 l 1,2,3
 265 1415 265 1415 374 1447.5 c 128,-1,4
 483 1480 483 1480 601.5 1480 c 128,-1,5
 720 1480 720 1480 821 1428 c 0,6,7
 877 1400 877 1400 919 1356.5 c 128,-1,8
 961 1313 961 1313 987 1243.5 c 128,-1,9
 1013 1174 1013 1174 1013 1092.5 c 128,-1,10
 1013 1011 1013 1011 1000.5 951 c 128,-1,11
 988 891 988 891 944.5 810.5 c 128,-1,12
 901 730 901 730 771 579 c 2,13,-1
 379 120 l 1,14,-1
 1008 120 l 1,15,-1
 999 0 l 1,16,-1
 218 0 l 1,17,-1
 192 131 l 1,18,-1
 663 687 l 2,19,20
 753 792 753 792 797 864 c 0,21,22
 828 915 828 915 839.5 963.5 c 128,-1,23
 851 1012 851 1012 851 1073.5 c 128,-1,24
 851 1135 851 1135 833 1184 c 0,25,26
 776 1340 776 1340 577 1340 c 0,27,28
 402 1340 402 1340 247 1239 c 1,0,1
EndSplineSet
EndChar

StartChar: three
Encoding: 51 51 22
Width: 1204
Flags: W
LayerCount: 2
UndoRedoHistory
Layer: 1
Undoes
EndUndoes
Redoes
EndRedoes
EndUndoRedoHistory
Fore
SplineSet
213 76 m 1,0,1
 213 226 l 1,2,3
 419 121 419 121 562.5 121 c 128,-1,4
 706 121 706 121 778 193 c 128,-1,5
 850 265 850 265 850 405.5 c 128,-1,6
 850 546 850 546 777 618 c 0,7,8
 690 704 690 704 458 703 c 2,9,-1
 416 703 l 1,10,-1
 416 837 l 1,11,-1
 459 837 l 2,12,13
 813 837 813 837 813 1095 c 2,14,-1
 813 1102 l 1,15,16
 809 1341 809 1341 530 1341 c 0,17,18
 393 1341 393 1341 231 1248 c 1,19,-1
 177 1370 l 1,20,21
 356 1479 356 1479 556 1479 c 0,22,23
 808 1478 808 1478 924 1316 c 0,24,25
 984 1232 984 1232 985 1113 c 1,26,-1
 985 1107 l 2,27,28
 985 843 985 843 719 774 c 1,29,30
 857 745 857 745 940.5 651 c 128,-1,31
 1024 557 1024 557 1024 408 c 2,32,-1
 1024 401 l 1,33,34
 1021 198 1021 198 897.5 88.5 c 128,-1,35
 774 -21 774 -21 586 -21 c 128,-1,36
 398 -21 398 -21 213 76 c 1,0,1
EndSplineSet
EndChar

StartChar: four
Encoding: 52 52 23
Width: 1204
Flags: W
LayerCount: 2
UndoRedoHistory
Layer: 1
Undoes
EndUndoes
Redoes
EndRedoes
EndUndoRedoHistory
Fore
SplineSet
779 0 m 1,0,-1
 779 368 l 1,1,-1
 115 368 l 1,2,-1
 115 512 l 1,3,-1
 768 1460 l 1,4,-1
 937 1460 l 1,5,-1
 937 496 l 1,6,-1
 1116 496 l 1,7,-1
 1104 368 l 1,8,-1
 937 368 l 1,9,-1
 937 0 l 1,10,-1
 779 0 l 1,0,-1
280 496 m 1,11,-1
 779 496 l 1,12,-1
 779 1254 l 1,13,-1
 280 496 l 1,11,-1
EndSplineSet
EndChar

StartChar: five
Encoding: 53 53 24
Width: 1204
Flags: W
LayerCount: 2
UndoRedoHistory
Layer: 1
Undoes
EndUndoes
Redoes
EndRedoes
EndUndoRedoHistory
Fore
SplineSet
878 848 m 0,0,1
 1078 726 1078 726 1078 476.5 c 128,-1,2
 1078 227 1078 227 939.5 103 c 128,-1,3
 801 -21 801 -21 590 -21 c 128,-1,4
 379 -21 379 -21 162 100 c 1,5,-1
 219 229 l 1,6,7
 412 120 412 120 571 120 c 128,-1,8
 730 120 730 120 819.5 209.5 c 128,-1,9
 909 299 909 299 909 475 c 0,10,11
 909 652 909 652 783 734 c 0,12,13
 715 778 715 778 627.5 778 c 128,-1,14
 540 778 540 778 470 749 c 128,-1,15
 400 720 400 720 354 671 c 1,16,-1
 220 687 l 1,17,-1
 248 1460 l 1,18,-1
 1016 1460 l 1,19,-1
 1003 1328 l 1,20,-1
 389 1328 l 1,21,-1
 373 830 l 1,22,23
 490 909 490 909 633.5 909.5 c 128,-1,24
 777 910 777 910 878 848 c 0,0,1
EndSplineSet
EndChar

StartChar: six
Encoding: 54 54 25
Width: 1204
Flags: W
LayerCount: 2
UndoRedoHistory
Layer: 1
Undoes
EndUndoes
Redoes
EndRedoes
EndUndoRedoHistory
Fore
SplineSet
625 -20 m 0,0,1
 515 -20 515 -20 425 18 c 128,-1,2
 335 56 335 56 277 119.5 c 128,-1,3
 219 183 219 183 188 265 c 128,-1,4
 157 347 157 347 157 430.5 c 128,-1,5
 157 514 157 514 171 582 c 0,6,7
 200 723 200 723 376 976 c 1,8,-1
 705 1460 l 1,9,-1
 894 1460 l 1,10,-1
 554 960 l 2,11,12
 510 895 510 895 449 813 c 1,13,14
 545 869 545 869 656 869 c 0,15,16
 835 869 835 869 964.5 746 c 128,-1,17
 1094 623 1094 623 1094 432 c 128,-1,18
 1094 241 1094 241 964.5 110.5 c 128,-1,19
 835 -20 835 -20 625 -20 c 0,0,1
850 204.5 m 128,-1,21
 933 298 933 298 933 433.5 c 128,-1,22
 933 569 933 569 851.5 654.5 c 128,-1,23
 770 740 770 740 627 740 c 0,24,25
 538 740 538 740 462 698 c 0,26,27
 316 616 316 616 316 427 c 0,28,29
 316 293 316 293 396 202 c 128,-1,30
 476 111 476 111 621.5 111 c 128,-1,20
 767 111 767 111 850 204.5 c 128,-1,21
EndSplineSet
EndChar

StartChar: seven
Encoding: 55 55 26
Width: 1204
Flags: W
LayerCount: 2
UndoRedoHistory
Layer: 1
Undoes
EndUndoes
Redoes
EndRedoes
EndUndoRedoHistory
Fore
SplineSet
360 0 m 1,0,-1
 864 1326 l 1,1,-1
 209 1326 l 1,2,-1
 190 1460 l 1,3,-1
 1038 1460 l 1,4,-1
 1038 1342 l 1,5,-1
 526 0 l 1,6,-1
 360 0 l 1,0,-1
EndSplineSet
EndChar

StartChar: eight
Encoding: 56 56 27
Width: 1204
Flags: W
LayerCount: 2
UndoRedoHistory
Layer: 1
Undoes
EndUndoes
Redoes
EndRedoes
EndUndoRedoHistory
Fore
SplineSet
602 -20 m 0,0,1
 324 -20 324 -20 196 153 c 0,2,3
 130 242 130 242 130 376.5 c 128,-1,4
 130 511 130 511 209.5 611.5 c 128,-1,5
 289 712 289 712 436 763 c 1,6,7
 314 803 314 803 237.5 896 c 128,-1,8
 161 989 161 989 161 1117 c 0,9,10
 161 1284 161 1284 284 1382 c 128,-1,11
 407 1480 407 1480 602.5 1480 c 128,-1,12
 798 1480 798 1480 919.5 1382.5 c 128,-1,13
 1041 1285 1041 1285 1041 1117 c 0,14,15
 1041 989 1041 989 968.5 899.5 c 128,-1,16
 896 810 896 810 771 765 c 1,17,18
 909 721 909 721 991 612 c 128,-1,19
 1073 503 1073 503 1073 364 c 0,20,21
 1073 182 1073 182 939 81 c 128,-1,22
 805 -20 805 -20 602 -20 c 0,0,1
602 108 m 0,23,24
 916 108 916 108 916 380 c 0,25,26
 916 502 916 502 829.5 586 c 128,-1,27
 743 670 743 670 602 700 c 1,28,29
 459 669 459 669 372 587 c 128,-1,30
 285 505 285 505 285 377.5 c 128,-1,31
 285 250 285 250 366.5 179 c 128,-1,32
 448 108 448 108 602 108 c 0,23,24
602 817 m 1,33,34
 741 847 741 847 811 925 c 128,-1,35
 881 1003 881 1003 881 1115.5 c 128,-1,36
 881 1228 881 1228 805 1292.5 c 128,-1,37
 729 1357 729 1357 602.5 1357 c 128,-1,38
 476 1357 476 1357 398.5 1292 c 128,-1,39
 321 1227 321 1227 321 1115 c 128,-1,40
 321 1003 321 1003 392.5 925.5 c 128,-1,41
 464 848 464 848 602 817 c 1,33,34
EndSplineSet
EndChar

StartChar: nine
Encoding: 57 57 28
Width: 1204
Flags: W
LayerCount: 2
UndoRedoHistory
Layer: 1
Undoes
EndUndoes
Redoes
EndRedoes
EndUndoRedoHistory
Fore
SplineSet
303 0 m 1,0,-1
 682 508 l 2,1,2
 707 541 707 541 784 640 c 1,3,4
 691 590 691 590 588 590 c 0,5,6
 411 590 411 590 282 710 c 0,7,8
 222 766 222 766 186 848 c 128,-1,9
 150 930 150 930 150 1040.5 c 128,-1,10
 150 1151 150 1151 207 1254 c 128,-1,11
 264 1357 264 1357 372 1418.5 c 128,-1,12
 480 1480 480 1480 605 1480 c 128,-1,13
 730 1480 730 1480 820 1442 c 128,-1,14
 910 1404 910 1404 968 1340 c 0,15,16
 1088 1208 1088 1208 1088 1022 c 0,17,18
 1088 870 1088 870 1013 726 c 0,19,20
 969 641 969 641 856 488 c 2,21,-1
 499 0 l 1,22,-1
 303 0 l 1,0,-1
617 719 m 0,23,24
 707 720 707 720 783 762 c 0,25,26
 930 844 930 844 930 1033 c 0,27,28
 930 1167 930 1167 850 1258 c 128,-1,29
 770 1349 770 1349 624.5 1349 c 128,-1,30
 479 1349 479 1349 395.5 1255.5 c 128,-1,31
 312 1162 312 1162 312 1026 c 128,-1,32
 312 890 312 890 393 804.5 c 128,-1,33
 474 719 474 719 617 719 c 0,23,24
EndSplineSet
EndChar

StartChar: colon
Encoding: 58 58 29
Width: 537
Flags: W
LayerCount: 2
UndoRedoHistory
Layer: 1
Undoes
EndUndoes
Redoes
EndRedoes
EndUndoRedoHistory
Fore
SplineSet
269 833 m 128,-1,1
 210 833 210 833 178 866.5 c 128,-1,2
 146 900 146 900 146 945.5 c 128,-1,3
 146 991 146 991 178 1024.5 c 128,-1,4
 210 1058 210 1058 269 1058 c 128,-1,5
 328 1058 328 1058 359.5 1024.5 c 128,-1,6
 391 991 391 991 391 945.5 c 128,-1,7
 391 900 391 900 359.5 866.5 c 128,-1,0
 328 833 328 833 269 833 c 128,-1,1
269 -11 m 128,-1,9
 210 -11 210 -11 178 22.5 c 128,-1,10
 146 56 146 56 146 101.5 c 128,-1,11
 146 147 146 147 178 180 c 128,-1,12
 210 213 210 213 269 213 c 128,-1,13
 328 213 328 213 359.5 180 c 128,-1,14
 391 147 391 147 391 101.5 c 128,-1,15
 391 56 391 56 359.5 22.5 c 128,-1,8
 328 -11 328 -11 269 -11 c 128,-1,9
EndSplineSet
EndChar

StartChar: semicolon
Encoding: 59 59 30
Width: 526
Flags: W
LayerCount: 2
UndoRedoHistory
Layer: 1
Undoes
EndUndoes
Redoes
EndRedoes
EndUndoRedoHistory
Fore
SplineSet
269 833 m 128,-1,1
 210 833 210 833 178 866.5 c 128,-1,2
 146 900 146 900 146 945.5 c 128,-1,3
 146 991 146 991 178 1024.5 c 128,-1,4
 210 1058 210 1058 269 1058 c 128,-1,5
 328 1058 328 1058 359.5 1024.5 c 128,-1,6
 391 991 391 991 391 945.5 c 128,-1,7
 391 900 391 900 359.5 866.5 c 128,-1,0
 328 833 328 833 269 833 c 128,-1,1
152 -300 m 1,8,-1
 186 188 l 1,9,-1
 368 188 l 1,10,-1
 247 -300 l 1,11,-1
 152 -300 l 1,8,-1
EndSplineSet
EndChar

StartChar: less
Encoding: 60 60 31
Width: 1204
Flags: W
LayerCount: 2
UndoRedoHistory
Layer: 1
Undoes
EndUndoes
Redoes
EndRedoes
EndUndoRedoHistory
Fore
SplineSet
1037 135 m 1,0,-1
 110 580 l 1,1,-1
 110 667 l 1,2,-1
 1040 1144 l 1,3,-1
 1040 1004 l 1,4,-1
 295 628 l 1,5,-1
 1038 276 l 1,6,-1
 1037 135 l 1,0,-1
EndSplineSet
EndChar

StartChar: equal
Encoding: 61 61 32
Width: 1205
Flags: W
LayerCount: 2
UndoRedoHistory
Layer: 1
Undoes
EndUndoes
Redoes
EndRedoes
EndUndoRedoHistory
Fore
SplineSet
184 783 m 1,0,-1
 184 907 l 1,1,-1
 1021 907 l 1,2,-1
 1021 783 l 1,3,-1
 184 783 l 1,0,-1
184 429 m 1,4,-1
 184 553 l 1,5,-1
 1021 553 l 1,6,-1
 1021 429 l 1,7,-1
 184 429 l 1,4,-1
EndSplineSet
EndChar

StartChar: greater
Encoding: 62 62 33
Width: 1204
Flags: W
LayerCount: 2
UndoRedoHistory
Layer: 1
Undoes
EndUndoes
Redoes
EndRedoes
EndUndoRedoHistory
Fore
SplineSet
161 141 m 1,0,-1
 161 282 l 1,1,-1
 898 628 l 1,2,-1
 163 1010 l 1,3,-1
 163 1150 l 1,4,-1
 1091 666 l 1,5,-1
 1091 578 l 1,6,-1
 161 141 l 1,0,-1
EndSplineSet
EndChar

StartChar: question
Encoding: 63 63 34
Width: 1203
Flags: W
LayerCount: 2
UndoRedoHistory
Layer: 1
Undoes
EndUndoes
Redoes
EndRedoes
EndUndoRedoHistory
Fore
SplineSet
558 1349 m 0,0,1
 434 1349 434 1349 297 1264 c 1,2,-1
 261 1387 l 1,3,4
 397 1480 397 1480 577 1480 c 0,5,6
 652 1480 652 1480 716 1461 c 0,7,8
 942 1394 942 1394 942 1143 c 0,9,10
 942 995 942 995 846 862 c 0,11,12
 802 802 802 802 756 742 c 0,13,14
 636 587 636 587 583 413 c 1,15,-1
 493 413 l 1,16,17
 500 568 500 568 596 738 c 0,18,19
 636 809 636 809 676 876 c 0,20,21
 771 1035 771 1035 771 1138 c 0,22,23
 771 1349 771 1349 558 1349 c 0,0,1
535 -13 m 128,-1,25
 479 -13 479 -13 449.5 19.5 c 128,-1,26
 420 52 420 52 420 98 c 128,-1,27
 420 144 420 144 449.5 176 c 128,-1,28
 479 208 479 208 535 208 c 128,-1,29
 591 208 591 208 620 176 c 128,-1,30
 649 144 649 144 649 97.5 c 128,-1,31
 649 51 649 51 620 19 c 128,-1,24
 591 -13 591 -13 535 -13 c 128,-1,25
EndSplineSet
EndChar

StartChar: at
Encoding: 64 64 35
Width: 1880
Flags: W
LayerCount: 2
UndoRedoHistory
Layer: 1
Undoes
EndUndoes
Redoes
EndRedoes
EndUndoRedoHistory
Fore
SplineSet
921 -151 m 0,0,1
 687 -151 687 -151 508 -56.5 c 128,-1,2
 329 38 329 38 228.5 217.5 c 128,-1,3
 128 397 128 397 128 638 c 0,4,5
 128 818 128 818 193 975.5 c 128,-1,6
 258 1133 258 1133 371 1245 c 128,-1,7
 484 1357 484 1357 644 1421.5 c 128,-1,8
 804 1486 804 1486 976 1486 c 128,-1,9
 1148 1486 1148 1486 1287 1435.5 c 128,-1,10
 1426 1385 1426 1385 1527.5 1294 c 128,-1,11
 1629 1203 1629 1203 1687 1068 c 128,-1,12
 1745 933 1745 933 1745 791 c 128,-1,13
 1745 649 1745 649 1711.5 548 c 128,-1,14
 1678 447 1678 447 1624 385 c 128,-1,15
 1570 323 1570 323 1506 289.5 c 128,-1,16
 1442 256 1442 256 1361.5 256 c 128,-1,17
 1281 256 1281 256 1221.5 311 c 128,-1,18
 1162 366 1162 366 1139 465 c 1,19,20
 1097 374 1097 374 1025.5 313 c 128,-1,21
 954 252 954 252 857 252 c 0,22,23
 720 252 720 252 640.5 349.5 c 128,-1,24
 561 447 561 447 561 618 c 0,25,26
 561 790 561 790 671 936 c 0,27,28
 724 1006 724 1006 808 1048.5 c 128,-1,29
 892 1091 892 1091 980 1091 c 128,-1,30
 1068 1091 1068 1091 1156.5 1071.5 c 128,-1,31
 1245 1052 1245 1052 1308 1020 c 1,32,33
 1300 963 1300 963 1280.5 840 c 128,-1,34
 1261 717 1261 717 1252 643 c 128,-1,35
 1243 569 1243 569 1243 511.5 c 128,-1,36
 1243 454 1243 454 1281 414 c 128,-1,37
 1319 374 1319 374 1376 374 c 0,38,39
 1472 374 1472 374 1545 482 c 128,-1,40
 1618 590 1618 590 1618 780 c 0,41,42
 1618 1034 1618 1034 1460 1198 c 0,43,44
 1382 1278 1382 1278 1259.5 1324 c 128,-1,45
 1137 1370 1137 1370 981 1370 c 0,46,47
 721 1370 721 1370 543 1230 c 0,48,49
 272 1018 272 1018 272 634 c 0,50,51
 272 332 272 332 443.5 150.5 c 128,-1,52
 615 -31 615 -31 911.5 -31 c 128,-1,53
 1208 -31 1208 -31 1391 83 c 1,54,-1
 1433 -17 l 1,55,56
 1338 -81 1338 -81 1202 -116 c 128,-1,57
 1066 -151 1066 -151 921 -151 c 0,0,1
749.5 426.5 m 128,-1,59
 794 364 794 364 877 364 c 128,-1,60
 960 364 960 364 1012 431 c 0,61,62
 1036 461 1036 461 1054.5 509 c 128,-1,63
 1073 557 1073 557 1084 604.5 c 128,-1,64
 1095 652 1095 652 1105 711.5 c 0,65,66
 1114 772 1114 772 1132 874 c 0,67,68
 1142 936 1142 936 1149 971 c 1,69,70
 1068 989 1068 989 994.5 989 c 128,-1,71
 921 989 921 989 849.5 931 c 128,-1,72
 778 873 778 873 741.5 783.5 c 128,-1,73
 705 694 705 694 705 591.5 c 128,-1,58
 705 489 705 489 749.5 426.5 c 128,-1,59
EndSplineSet
EndChar

StartChar: A
Encoding: 65 65 36
Width: 1360
Flags: W
LayerCount: 2
UndoRedoHistory
Layer: 1
Undoes
EndUndoes
Redoes
EndRedoes
EndUndoRedoHistory
Fore
SplineSet
922 592 m 1,0,-1
 682 1288 l 1,1,-1
 444 592 l 1,2,-1
 922 592 l 1,0,-1
52 0 m 1,3,-1
 587 1460 l 1,4,-1
 774 1460 l 1,5,-1
 1308 0 l 1,6,-1
 1134 0 l 1,7,-1
 962 470 l 1,8,-1
 403 470 l 1,9,-1
 232 0 l 1,10,-1
 52 0 l 1,3,-1
EndSplineSet
EndChar

StartChar: B
Encoding: 66 66 37
Width: 1332
Flags: W
LayerCount: 2
UndoRedoHistory
Layer: 1
Undoes
EndUndoes
Redoes
EndRedoes
EndUndoRedoHistory
Fore
SplineSet
340 720 m 1,0,-1
 340 134 l 1,1,-1
 680 134 l 2,2,3
 869 134 869 134 955.5 201 c 128,-1,4
 1042 268 1042 268 1042 421 c 128,-1,5
 1042 574 1042 574 940.5 647 c 128,-1,6
 839 720 839 720 626 720 c 2,7,-1
 340 720 l 1,0,-1
340 1328 m 1,8,-1
 340 845 l 1,9,-1
 674 845 l 2,10,11
 824 844 824 844 902 892 c 0,12,13
 988 945 988 945 988 1089 c 0,14,15
 988 1232 988 1232 898 1282 c 0,16,17
 814 1328 814 1328 621 1328 c 2,18,-1
 340 1328 l 1,8,-1
164 0 m 1,19,-1
 164 1460 l 1,20,-1
 622 1460 l 2,21,22
 898 1460 898 1460 1027 1376.5 c 128,-1,23
 1156 1293 1156 1293 1156 1110 c 0,24,25
 1156 855 1156 855 876 787 c 1,26,27
 1057 759 1057 759 1137.5 663 c 128,-1,28
 1218 567 1218 567 1218 412 c 0,29,30
 1218 219 1218 219 1089.5 109.5 c 128,-1,31
 961 0 961 0 708 0 c 2,32,-1
 164 0 l 1,19,-1
EndSplineSet
EndChar

StartChar: C
Encoding: 67 67 38
Width: 1292
Flags: W
LayerCount: 2
UndoRedoHistory
Layer: 1
Undoes
EndUndoes
Redoes
EndRedoes
EndUndoRedoHistory
Fore
SplineSet
815 -19 m 0,0,1
 664 -19 664 -19 535.5 34.5 c 128,-1,2
 407 88 407 88 315 184.5 c 128,-1,3
 223 281 223 281 171.5 423 c 128,-1,4
 120 565 120 565 120 759 c 128,-1,5
 120 953 120 953 204 1122 c 128,-1,6
 288 1291 288 1291 444.5 1385.5 c 128,-1,7
 601 1480 601 1480 827 1480 c 128,-1,8
 1053 1480 1053 1480 1209 1368 c 1,9,-1
 1151 1253 l 1,10,11
 1010 1341 1010 1341 821 1341 c 0,12,13
 578 1341 578 1341 437.5 1171.5 c 128,-1,14
 297 1002 297 1002 297 728.5 c 128,-1,15
 297 455 297 455 441.5 288 c 128,-1,16
 586 121 586 121 834 121 c 0,17,18
 995 121 995 121 1159 198 c 1,19,-1
 1200 67 l 1,20,21
 1031 -19 1031 -19 815 -19 c 0,0,1
EndSplineSet
EndChar

StartChar: D
Encoding: 68 68 39
Width: 1480
Flags: W
LayerCount: 2
UndoRedoHistory
Layer: 1
Undoes
EndUndoes
Redoes
EndRedoes
EndUndoRedoHistory
Fore
SplineSet
340 1328 m 1,0,-1
 340 134 l 1,1,-1
 597 134 l 2,2,3
 1184 134 1184 134 1184 738 c 0,4,5
 1184 1039 1184 1039 1027.5 1183.5 c 128,-1,6
 871 1328 871 1328 570 1328 c 2,7,-1
 340 1328 l 1,0,-1
164 0 m 1,8,-1
 164 1460 l 1,9,-1
 578 1460 l 2,10,11
 865 1460 865 1460 1053 1348 c 0,12,13
 1360 1166 1360 1166 1360 734 c 0,14,15
 1360 382 1360 382 1159 191 c 128,-1,16
 958 0 958 0 607 0 c 2,17,-1
 164 0 l 1,8,-1
EndSplineSet
EndChar

StartChar: E
Encoding: 69 69 40
Width: 1133
Flags: W
LayerCount: 2
UndoRedoHistory
Layer: 1
Undoes
EndUndoes
Redoes
EndRedoes
EndUndoRedoHistory
Fore
SplineSet
164 0 m 1,0,-1
 164 1460 l 1,1,-1
 1046 1460 l 1,2,-1
 1040 1328 l 1,3,-1
 340 1328 l 1,4,-1
 340 821 l 1,5,-1
 978 821 l 1,6,-1
 978 689 l 1,7,-1
 340 689 l 1,8,-1
 340 134 l 1,9,-1
 1061 134 l 1,10,-1
 1049 0 l 1,11,-1
 164 0 l 1,0,-1
EndSplineSet
EndChar

StartChar: F
Encoding: 70 70 41
Width: 1062
Flags: W
LayerCount: 2
UndoRedoHistory
Layer: 1
Undoes
EndUndoes
Redoes
EndRedoes
EndUndoRedoHistory
Fore
SplineSet
164 0 m 1,0,-1
 164 1460 l 1,1,-1
 989 1460 l 1,2,-1
 979 1325 l 1,3,-1
 343 1325 l 1,4,-1
 343 797 l 1,5,-1
 935 797 l 1,6,-1
 935 669 l 1,7,-1
 343 669 l 1,8,-1
 343 0 l 1,9,-1
 164 0 l 1,0,-1
EndSplineSet
EndChar

StartChar: G
Encoding: 71 71 42
Width: 1449
Flags: W
LayerCount: 2
UndoRedoHistory
Layer: 1
Undoes
EndUndoes
Redoes
EndRedoes
EndUndoRedoHistory
Fore
SplineSet
806 -19 m 0,0,1
 641 -19 641 -19 510 38 c 128,-1,2
 379 95 379 95 294 196 c 128,-1,3
 209 297 209 297 164.5 432.5 c 128,-1,4
 120 568 120 568 120 728 c 128,-1,5
 120 888 120 888 170.5 1026.5 c 128,-1,6
 221 1165 221 1165 312.5 1265 c 128,-1,7
 404 1365 404 1365 539 1422.5 c 128,-1,8
 674 1480 674 1480 835 1480 c 0,9,10
 1102 1480 1102 1480 1265 1367 c 1,11,-1
 1222 1235 l 1,12,13
 1216 1240 1216 1240 1168 1265 c 0,14,15
 1160 1269 1160 1269 1137.5 1280.5 c 128,-1,16
 1115 1292 1115 1292 1100.5 1297 c 128,-1,17
 1086 1302 1086 1302 1062 1311 c 0,18,19
 978 1342 978 1342 838 1342 c 0,20,21
 671 1342 671 1342 547 1260.5 c 128,-1,22
 423 1179 423 1179 360 1041 c 128,-1,23
 297 903 297 903 297 729 c 0,24,25
 296 452 296 452 422 290 c 0,26,27
 486 208 486 208 591 164.5 c 128,-1,28
 696 121 696 121 849 121 c 128,-1,29
 1002 121 1002 121 1141 164 c 1,30,-1
 1141 605 l 1,31,-1
 816 605 l 1,32,-1
 823 745 l 1,33,-1
 1304 745 l 1,34,-1
 1304 71 l 1,35,36
 1072 -19 1072 -19 806 -19 c 0,0,1
EndSplineSet
EndChar

StartChar: H
Encoding: 72 72 43
Width: 1440
Flags: W
LayerCount: 2
UndoRedoHistory
Layer: 1
Undoes
EndUndoes
Redoes
EndRedoes
EndUndoRedoHistory
Fore
SplineSet
164 0 m 1,0,-1
 164 1460 l 1,1,-1
 340 1460 l 1,2,-1
 340 809 l 1,3,-1
 1100 809 l 1,4,-1
 1100 1460 l 1,5,-1
 1276 1460 l 1,6,-1
 1276 0 l 1,7,-1
 1100 0 l 1,8,-1
 1100 681 l 1,9,-1
 340 681 l 1,10,-1
 340 0 l 1,11,-1
 164 0 l 1,0,-1
EndSplineSet
EndChar

StartChar: I
Encoding: 73 73 44
Width: 818
Flags: W
LayerCount: 2
UndoRedoHistory
Layer: 1
Undoes
EndUndoes
Redoes
EndRedoes
EndUndoRedoHistory
Fore
SplineSet
114 1460 m 1,0,-1
 704 1460 l 1,1,-1
 704 1353 l 1,2,-1
 498 1353 l 1,3,-1
 498 107 l 1,4,-1
 704 107 l 1,5,-1
 704 0 l 1,6,-1
 114 0 l 1,7,-1
 114 107 l 1,8,-1
 322 107 l 1,9,-1
 322 1353 l 1,10,-1
 114 1353 l 1,11,-1
 114 1460 l 1,0,-1
EndSplineSet
EndChar

StartChar: J
Encoding: 74 74 45
Width: 713
Flags: W
LayerCount: 2
UndoRedoHistory
Layer: 1
Undoes
EndUndoes
Redoes
EndRedoes
EndUndoRedoHistory
Fore
SplineSet
112 -168 m 2,0,1
 36 -176 l 1,2,-1
 20 -35 l 1,3,-1
 100 -23 l 2,4,5
 254 0 254 0 312 63 c 128,-1,6
 370 126 370 126 370 271 c 2,7,-1
 370 1460 l 1,8,-1
 547 1460 l 1,9,-1
 547 296 l 2,10,11
 547 68 547 68 450 -37.5 c 128,-1,12
 353 -143 353 -143 112 -168 c 2,0,1
EndSplineSet
EndChar

StartChar: K
Encoding: 75 75 46
Width: 1256
Flags: W
LayerCount: 2
UndoRedoHistory
Layer: 1
Undoes
EndUndoes
Redoes
EndRedoes
EndUndoRedoHistory
Fore
SplineSet
164 0 m 1,0,-1
 164 1460 l 1,1,-1
 340 1460 l 1,2,-1
 340 761 l 1,3,-1
 994 1460 l 1,4,-1
 1200 1460 l 1,5,-1
 602 811 l 1,6,-1
 1230 0 l 1,7,-1
 1024 0 l 1,8,-1
 470 721 l 1,9,-1
 340 601 l 1,10,-1
 340 0 l 1,11,-1
 164 0 l 1,0,-1
EndSplineSet
EndChar

StartChar: L
Encoding: 76 76 47
Width: 1066
Flags: W
LayerCount: 2
UndoRedoHistory
Layer: 1
Undoes
EndUndoes
Redoes
EndRedoes
EndUndoRedoHistory
Fore
SplineSet
164 0 m 1,0,-1
 164 1460 l 1,1,-1
 340 1460 l 1,2,-1
 340 134 l 1,3,-1
 1014 134 l 1,4,-1
 1010 0 l 1,5,-1
 164 0 l 1,0,-1
EndSplineSet
EndChar

StartChar: M
Encoding: 77 77 48
Width: 1744
Flags: W
LayerCount: 2
UndoRedoHistory
Layer: 1
Undoes
EndUndoes
Redoes
EndRedoes
EndUndoRedoHistory
Fore
SplineSet
156 0 m 1,0,-1
 185 1460 l 1,1,-1
 401 1460 l 1,2,-1
 874 360 l 1,3,-1
 1349 1460 l 1,4,-1
 1559 1460 l 1,5,-1
 1588 0 l 1,6,-1
 1424 0 l 1,7,-1
 1410 905 l 1,8,-1
 1410 1234 l 1,9,-1
 947 163 l 1,10,-1
 796 163 l 1,11,-1
 336 1246 l 1,12,-1
 336 901 l 1,13,-1
 322 0 l 1,14,-1
 156 0 l 1,0,-1
EndSplineSet
EndChar

StartChar: N
Encoding: 78 78 49
Width: 1488
Flags: W
LayerCount: 2
UndoRedoHistory
Layer: 1
Undoes
EndUndoes
Redoes
EndRedoes
EndUndoRedoHistory
Fore
SplineSet
164 0 m 1,0,-1
 164 1460 l 1,1,-1
 338 1460 l 1,2,-1
 1171 217 l 1,3,-1
 1162 628 l 1,4,-1
 1162 1460 l 1,5,-1
 1324 1460 l 1,6,-1
 1324 0 l 1,7,-1
 1143 0 l 1,8,-1
 313 1235 l 1,9,-1
 327 781 l 1,10,-1
 327 0 l 1,11,-1
 164 0 l 1,0,-1
EndSplineSet
EndChar

StartChar: O
Encoding: 79 79 50
Width: 1616
Flags: W
LayerCount: 2
UndoRedoHistory
Layer: 1
Undoes
EndUndoes
Redoes
EndRedoes
EndUndoRedoHistory
Fore
SplineSet
788 120 m 0,0,1
 1066 120 1066 120 1196 291 c 0,2,3
 1320 454 1320 454 1320 721 c 0,4,5
 1320 1103 1320 1103 1094 1260 c 0,6,7
 978 1341 978 1341 811.5 1341 c 0,8,9
 646 1341 646 1341 528 1261 c 0,10,11
 298 1104 298 1104 297 721 c 0,12,13
 297 351 297 351 522 199 c 0,14,15
 639 120 639 120 788 120 c 0,0,1
811 -20 m 0,16,17
 592 -20 592 -20 434.5 74 c 128,-1,18
 277 168 277 168 198.5 334 c 128,-1,19
 120 500 120 500 120 724 c 128,-1,20
 120 948 120 948 201 1118.5 c 128,-1,21
 282 1289 282 1289 439.5 1384.5 c 128,-1,22
 597 1480 597 1480 810 1480 c 128,-1,23
 1023 1480 1023 1480 1179 1384 c 128,-1,24
 1335 1288 1335 1288 1415.5 1116.5 c 128,-1,25
 1496 945 1496 945 1496 720 c 0,26,27
 1496 392 1496 392 1320 188 c 0,28,29
 1234 90 1234 90 1104 35 c 128,-1,30
 974 -20 974 -20 811 -20 c 0,16,17
EndSplineSet
EndChar

StartChar: P
Encoding: 80 80 51
Width: 1194
Flags: W
LayerCount: 2
UndoRedoHistory
Layer: 1
Undoes
EndUndoes
Redoes
EndRedoes
EndUndoRedoHistory
Fore
SplineSet
340 1328 m 1,0,-1
 340 841 l 1,1,-1
 652 841 l 2,2,3
 816 841 816 841 884.5 899 c 128,-1,4
 953 957 953 957 953 1091 c 128,-1,5
 953 1225 953 1225 877.5 1276.5 c 128,-1,6
 802 1328 802 1328 658 1328 c 2,7,-1
 340 1328 l 1,0,-1
1129 1103 m 0,8,9
 1129 907 1129 907 1016 806.5 c 128,-1,10
 903 706 903 706 656 706 c 2,11,-1
 340 706 l 1,12,-1
 340 0 l 1,13,-1
 164 0 l 1,14,-1
 164 1460 l 1,15,-1
 659 1460 l 2,16,17
 1129 1460 1129 1460 1129 1103 c 0,8,9
EndSplineSet
EndChar

StartChar: Q
Encoding: 81 81 52
Width: 1616
Flags: W
LayerCount: 2
UndoRedoHistory
Layer: 1
Undoes
EndUndoes
Redoes
EndRedoes
EndUndoRedoHistory
Fore
SplineSet
788 120 m 0,0,1
 1066 120 1066 120 1196 291 c 0,2,3
 1320 454 1320 454 1320 721 c 0,4,5
 1320 1103 1320 1103 1094 1260 c 0,6,7
 978 1341 978 1341 811.5 1341 c 0,8,9
 646 1341 646 1341 528 1261 c 0,10,11
 298 1104 298 1104 297 721 c 0,12,13
 297 351 297 351 522 199 c 0,14,15
 639 120 639 120 788 120 c 0,0,1
1260 -401 m 1,16,17
 1199 -344 1199 -344 1112 -224 c 128,-1,18
 1025 -104 1025 -104 970 -6 c 1,19,20
 895 -20 895 -20 811 -20 c 0,21,22
 592 -20 592 -20 434.5 74 c 128,-1,23
 277 168 277 168 198.5 334 c 128,-1,24
 120 500 120 500 120 724 c 128,-1,25
 120 948 120 948 201 1118.5 c 128,-1,26
 282 1289 282 1289 439.5 1384.5 c 128,-1,27
 597 1480 597 1480 810 1480 c 128,-1,28
 1023 1480 1023 1480 1179 1384 c 128,-1,29
 1335 1288 1335 1288 1415.5 1116.5 c 128,-1,30
 1496 945 1496 945 1496 751 c 0,31,32
 1496 558 1496 558 1450 422 c 0,33,34
 1357 144 1357 144 1110 37 c 1,35,36
 1147 -27 1147 -27 1222 -126.5 c 128,-1,37
 1297 -226 1297 -226 1372 -303 c 1,38,-1
 1260 -401 l 1,16,17
EndSplineSet
EndChar

StartChar: R
Encoding: 82 82 53
Width: 1333
Flags: W
LayerCount: 2
UndoRedoHistory
Layer: 1
Undoes
EndUndoes
Redoes
EndRedoes
EndUndoRedoHistory
Fore
SplineSet
340 1328 m 1,0,-1
 340 832 l 1,1,-1
 724 832 l 2,2,3
 910 832 910 832 970 890 c 0,4,5
 1004 922 1004 922 1016 967.5 c 128,-1,6
 1028 1013 1028 1013 1028 1086 c 0,7,8
 1028 1209 1028 1209 967 1268.5 c 128,-1,9
 906 1328 906 1328 754 1328 c 2,10,-1
 340 1328 l 1,0,-1
164 0 m 1,11,-1
 164 1460 l 1,12,-1
 751 1460 l 2,13,14
 980 1460 980 1460 1090 1370 c 128,-1,15
 1200 1280 1200 1280 1200 1089 c 0,16,17
 1200 936 1200 936 1135.5 850.5 c 128,-1,18
 1071 765 1071 765 945 729 c 1,19,20
 1030 512 l 1,21,-1
 1259 0 l 1,22,-1
 1077 0 l 1,23,24
 830 585 830 585 782 704 c 1,25,-1
 340 704 l 1,26,-1
 340 0 l 1,27,-1
 164 0 l 1,11,-1
EndSplineSet
EndChar

StartChar: S
Encoding: 83 83 54
Width: 1167
Flags: W
LayerCount: 2
UndoRedoHistory
Layer: 1
Undoes
EndUndoes
Redoes
EndRedoes
EndUndoRedoHistory
Fore
SplineSet
1017 1368 m 1,0,1
 953 1244 l 1,2,3
 813 1341 813 1341 586 1341 c 0,4,5
 471 1340 471 1340 390 1294 c 0,6,7
 300 1242 300 1242 300 1097 c 0,8,9
 300 1090 300 1090 300 1083 c 0,10,11
 303 994 303 994 347 956 c 0,12,13
 374 933 374 933 426.5 912.5 c 128,-1,14
 479 892 479 892 537 869 c 128,-1,15
 595 846 595 846 695 809 c 0,16,17
 733 795 733 795 781 775.5 c 128,-1,18
 829 756 829 756 858 741 c 128,-1,19
 887 726 887 726 929.5 699 c 128,-1,20
 972 672 972 672 1014 612 c 0,21,22
 1068 536 1068 536 1068 384 c 0,23,24
 1068 205 1068 205 969 106 c 0,25,26
 924 61 924 61 861 32 c 128,-1,27
 798 3 798 3 731 -8.5 c 128,-1,28
 664 -20 664 -20 559 -20 c 128,-1,29
 454 -20 454 -20 329 18 c 128,-1,30
 204 56 204 56 142 111 c 1,31,-1
 142 269 l 1,32,33
 350 120 350 120 610 120 c 0,34,35
 740 120 740 120 822.5 183 c 128,-1,36
 905 246 905 246 905 393 c 0,37,38
 904 473 904 473 880 514 c 0,39,40
 866 538 866 538 851 554.5 c 128,-1,41
 836 571 836 571 772 606 c 128,-1,42
 708 641 708 641 451 731 c 0,43,44
 298 784 298 784 223 855 c 0,45,46
 138 935 138 935 138 1107 c 0,47,48
 138 1306 138 1306 280 1396 c 0,49,50
 412 1480 412 1480 602 1480 c 0,51,52
 835 1480 835 1480 1017 1368 c 1,0,1
EndSplineSet
EndChar

StartChar: T
Encoding: 84 84 55
Width: 1115
Flags: W
LayerCount: 2
UndoRedoHistory
Layer: 1
Undoes
EndUndoes
Redoes
EndRedoes
EndUndoRedoHistory
Fore
SplineSet
468 0 m 1,0,-1
 468 1326 l 1,1,-1
 34 1326 l 1,2,-1
 34 1460 l 1,3,-1
 1081 1460 l 1,4,-1
 1081 1326 l 1,5,-1
 644 1326 l 1,6,-1
 644 0 l 1,7,-1
 468 0 l 1,0,-1
EndSplineSet
EndChar

StartChar: U
Encoding: 85 85 56
Width: 1412
Flags: W
LayerCount: 2
UndoRedoHistory
Layer: 1
Undoes
EndUndoes
Redoes
EndRedoes
EndUndoRedoHistory
Fore
SplineSet
1278 526 m 2,0,1
 1278 285 1278 285 1134 133 c 128,-1,2
 990 -19 990 -19 707 -19 c 128,-1,3
 424 -19 424 -19 279 129 c 128,-1,4
 134 277 134 277 134 529 c 2,5,-1
 134 1460 l 1,6,-1
 310 1460 l 1,7,-1
 310 532 l 2,8,9
 310 121 310 121 706 121 c 0,10,11
 902 121 902 121 1002 225.5 c 128,-1,12
 1102 330 1102 330 1102 532 c 2,13,-1
 1102 1460 l 1,14,-1
 1278 1460 l 1,15,-1
 1278 526 l 2,0,1
EndSplineSet
EndChar

StartChar: V
Encoding: 86 86 57
Width: 1352
Flags: W
LayerCount: 2
UndoRedoHistory
Layer: 1
Undoes
EndUndoes
Redoes
EndRedoes
EndUndoRedoHistory
Fore
SplineSet
677 215 m 1,0,1
 763 457 763 457 921.5 914.5 c 128,-1,2
 1080 1372 1080 1372 1111 1460 c 1,3,-1
 1292 1460 l 1,4,-1
 753 0 l 1,5,-1
 599 0 l 1,6,-1
 60 1460 l 1,7,-1
 242 1460 l 1,8,9
 622 367 622 367 677 215 c 1,0,1
EndSplineSet
EndChar

StartChar: W
Encoding: 87 87 58
Width: 2049
Flags: W
LayerCount: 2
UndoRedoHistory
Layer: 1
Undoes
EndUndoes
Redoes
EndRedoes
EndUndoRedoHistory
Fore
SplineSet
489 0 m 1,0,-1
 50 1460 l 1,1,-1
 217 1460 l 1,2,-1
 576 223 l 1,3,-1
 940 1429 l 1,4,-1
 1110 1429 l 1,5,-1
 1473 224 l 1,6,-1
 1829 1460 l 1,7,-1
 1999 1460 l 1,8,-1
 1560 0 l 1,9,-1
 1389 0 l 1,10,-1
 1027 1219 l 1,11,-1
 656 0 l 1,12,-1
 489 0 l 1,0,-1
EndSplineSet
EndChar

StartChar: X
Encoding: 88 88 59
Width: 1275
Flags: W
LayerCount: 2
UndoRedoHistory
Layer: 1
Undoes
EndUndoes
Redoes
EndRedoes
EndUndoRedoHistory
Fore
SplineSet
1005 0 m 1,0,-1
 630 589 l 1,1,-1
 257 0 l 1,2,-1
 71 0 l 1,3,-1
 538 732 l 1,4,-1
 74 1460 l 1,5,-1
 275 1460 l 1,6,-1
 650 871 l 1,7,-1
 1009 1460 l 1,8,-1
 1197 1460 l 1,9,-1
 738 732 l 1,10,-1
 1204 0 l 1,11,-1
 1005 0 l 1,0,-1
EndSplineSet
EndChar

StartChar: Y
Encoding: 89 89 60
Width: 1234
Flags: W
LayerCount: 2
UndoRedoHistory
Layer: 1
Undoes
EndUndoes
Redoes
EndRedoes
EndUndoRedoHistory
Fore
SplineSet
545 0 m 1,0,-1
 545 603 l 1,1,-1
 50 1460 l 1,2,-1
 224 1460 l 1,3,-1
 629 750 l 1,4,-1
 1010 1460 l 1,5,-1
 1184 1460 l 1,6,-1
 715 605 l 1,7,-1
 715 0 l 1,8,-1
 545 0 l 1,0,-1
EndSplineSet
EndChar

StartChar: Z
Encoding: 90 90 61
Width: 1224
Flags: W
LayerCount: 2
UndoRedoHistory
Layer: 1
Undoes
EndUndoes
Redoes
EndRedoes
EndUndoRedoHistory
Fore
SplineSet
149 0 m 1,0,-1
 149 124 l 1,1,-1
 902 1328 l 1,2,-1
 182 1328 l 1,3,-1
 182 1460 l 1,4,-1
 1091 1460 l 1,5,-1
 1098 1339 l 1,6,-1
 349 134 l 1,7,-1
 1105 134 l 1,8,-1
 1097 0 l 1,9,-1
 149 0 l 1,0,-1
EndSplineSet
EndChar

StartChar: bracketleft
Encoding: 91 91 62
Width: 674
Flags: W
LayerCount: 2
UndoRedoHistory
Layer: 1
Undoes
EndUndoes
Redoes
EndRedoes
EndUndoRedoHistory
Fore
SplineSet
171 -255 m 1,0,-1
 171 1460 l 1,1,-1
 635 1460 l 1,2,-1
 635 1342 l 1,3,-1
 347 1342 l 1,4,-1
 347 -138 l 1,5,-1
 635 -138 l 1,6,-1
 635 -255 l 1,7,-1
 171 -255 l 1,0,-1
EndSplineSet
EndChar

StartChar: backslash
Encoding: 92 92 63
Width: 924
Flags: W
LayerCount: 2
UndoRedoHistory
Layer: 1
Undoes
EndUndoes
Redoes
EndRedoes
EndUndoRedoHistory
Fore
SplineSet
670 -20 m 1,0,-1
 126 1460 l 1,1,-1
 257 1460 l 1,2,-1
 800 -20 l 1,3,-1
 670 -20 l 1,0,-1
EndSplineSet
EndChar

StartChar: bracketright
Encoding: 93 93 64
Width: 676
Flags: W
LayerCount: 2
UndoRedoHistory
Layer: 1
Undoes
EndUndoes
Redoes
EndRedoes
EndUndoRedoHistory
Fore
SplineSet
58 -255 m 1,0,-1
 58 -138 l 1,1,-1
 346 -138 l 1,2,-1
 346 1342 l 1,3,-1
 58 1342 l 1,4,-1
 58 1460 l 1,5,-1
 522 1460 l 1,6,-1
 522 -255 l 1,7,-1
 58 -255 l 1,0,-1
EndSplineSet
EndChar

StartChar: asciicircum
Encoding: 94 94 65
Width: 775
Flags: W
LayerCount: 2
UndoRedoHistory
Layer: 1
Undoes
EndUndoes
Redoes
EndRedoes
EndUndoRedoHistory
Fore
SplineSet
108 1087 m 1,0,-1
 288 1460 l 1,1,-1
 475 1460 l 1,2,-1
 643 1087 l 1,3,-1
 531 1087 l 1,4,-1
 377 1361 l 1,5,-1
 219 1087 l 1,6,-1
 108 1087 l 1,0,-1
EndSplineSet
EndChar

StartChar: underscore
Encoding: 95 95 66
Width: 1057
Flags: W
LayerCount: 2
UndoRedoHistory
Layer: 1
Undoes
EndUndoes
Redoes
EndRedoes
EndUndoRedoHistory
Fore
SplineSet
84 -260 m 1,0,-1
 84 -141 l 1,1,-1
 980 -141 l 1,2,-1
 980 -260 l 1,3,-1
 84 -260 l 1,0,-1
EndSplineSet
EndChar

StartChar: grave
Encoding: 96 96 67
Width: 650
Flags: W
LayerCount: 2
UndoRedoHistory
Layer: 1
Undoes
EndUndoes
Redoes
EndRedoes
EndUndoRedoHistory
Fore
SplineSet
414 1058 m 1,0,-1
 144 1460 l 1,1,-1
 332 1460 l 1,2,-1
 508 1058 l 1,3,-1
 414 1058 l 1,0,-1
EndSplineSet
EndChar

StartChar: a
Encoding: 97 97 68
Width: 1052
Flags: W
LayerCount: 2
UndoRedoHistory
Layer: 1
Undoes
EndUndoes
Redoes
EndRedoes
EndUndoRedoHistory
Fore
SplineSet
756 578 m 1,0,1
 756 723 l 2,2,3
 756 839 756 839 700.5 896 c 128,-1,4
 645 953 645 953 503 953 c 128,-1,5
 361 953 361 953 201 876 c 1,6,-1
 156 998 l 1,7,8
 332 1080 332 1080 522.5 1080 c 128,-1,9
 713 1080 713 1080 816.5 990.5 c 128,-1,10
 920 901 920 901 920 699 c 2,11,-1
 920 1 l 1,12,-1
 794 1 l 1,13,-1
 776 147 l 1,14,15
 640 -20 640 -20 422 -20 c 0,16,17
 277 -20 277 -20 191.5 60 c 128,-1,18
 106 140 106 140 106 285 c 0,19,20
 106 592 106 592 546 592 c 0,21,22
 647 592 647 592 756 578 c 1,0,1
756 275 m 1,23,-1
 756 467 l 1,24,25
 648 481 648 481 560 481 c 0,26,27
 472 482 472 482 414 468 c 0,28,29
 264 433 264 433 264 284 c 0,30,31
 264 196 264 196 310.5 148.5 c 128,-1,32
 357 101 357 101 430 101 c 0,33,34
 640 101 640 101 756 275 c 1,23,-1
EndSplineSet
EndChar

StartChar: b
Encoding: 98 98 69
Width: 1165
Flags: W
LayerCount: 2
UndoRedoHistory
Layer: 1
Undoes
EndUndoes
Redoes
EndRedoes
EndUndoRedoHistory
Fore
SplineSet
629 -20 m 0,0,1
 512 -20 512 -20 426 38.5 c 128,-1,2
 340 97 340 97 286 186 c 1,3,-1
 271 0 l 1,4,-1
 136 0 l 1,5,-1
 136 1460 l 1,6,-1
 304 1472 l 1,7,-1
 304 1078 l 1,8,-1
 303 894 l 1,9,10
 359 979 359 979 444.5 1029.5 c 128,-1,11
 530 1080 530 1080 637 1080 c 0,12,13
 855 1080 855 1080 967 932 c 128,-1,14
 1079 784 1079 784 1079 530 c 128,-1,15
 1079 276 1079 276 962.5 128 c 128,-1,16
 846 -20 846 -20 629 -20 c 0,0,1
613 107 m 0,17,18
 909 107 909 107 909 530.5 c 128,-1,19
 909 954 909 954 621 954 c 0,20,21
 300 954 300 954 300 534 c 0,22,23
 300 330 300 330 381.5 218.5 c 128,-1,24
 463 107 463 107 613 107 c 0,17,18
EndSplineSet
EndChar

StartChar: c
Encoding: 99 99 70
Width: 935
Flags: W
LayerCount: 2
UndoRedoHistory
Layer: 1
Undoes
EndUndoes
Redoes
EndRedoes
EndUndoRedoHistory
Fore
SplineSet
611 108 m 0,0,1
 733 108 733 108 834 166 c 1,2,-1
 865 53 l 1,3,4
 831 26 831 26 754 3 c 128,-1,5
 677 -20 677 -20 580 -20 c 0,6,7
 353 -20 353 -20 218.5 128 c 128,-1,8
 84 276 84 276 84 529.5 c 128,-1,9
 84 783 84 783 222 931.5 c 128,-1,10
 360 1080 360 1080 581 1080 c 0,11,12
 653 1080 653 1080 735.5 1061.5 c 128,-1,13
 818 1043 818 1043 869 1008 c 1,14,-1
 822 894 l 1,15,16
 725 952 725 952 601 952 c 0,17,18
 444 952 444 952 349 836 c 128,-1,19
 254 720 254 720 254 529 c 128,-1,20
 254 338 254 338 345 223 c 128,-1,21
 436 108 436 108 611 108 c 0,0,1
EndSplineSet
EndChar

StartChar: d
Encoding: 100 100 71
Width: 1169
Flags: W
LayerCount: 2
UndoRedoHistory
Layer: 1
Undoes
EndUndoes
Redoes
EndRedoes
EndUndoRedoHistory
Fore
SplineSet
879 890 m 1,0,1
 871 1131 l 1,2,-1
 871 1460 l 1,3,-1
 1037 1472 l 1,4,-1
 1037 0 l 1,5,-1
 899 0 l 1,6,-1
 884 187 l 1,7,8
 781 -20 781 -20 558 -20 c 128,-1,9
 335 -20 335 -20 216.5 130.5 c 128,-1,10
 98 281 98 281 98 530.5 c 128,-1,11
 98 780 98 780 220.5 930 c 128,-1,12
 343 1080 343 1080 553 1080 c 0,13,14
 620 1080 620 1080 673 1066 c 0,15,16
 802 1032 802 1032 879 890 c 1,0,1
577 953 m 0,17,18
 422 953 422 953 344 843.5 c 128,-1,19
 266 734 266 734 266 534.5 c 128,-1,20
 266 335 266 335 339.5 221 c 128,-1,21
 413 107 413 107 572 107 c 128,-1,22
 731 107 731 107 803 214 c 128,-1,23
 875 321 875 321 876 518 c 1,24,25
 876 953 876 953 577 953 c 0,17,18
EndSplineSet
EndChar

StartChar: e
Encoding: 101 101 72
Width: 1068
Flags: W
LayerCount: 2
UndoRedoHistory
Layer: 1
Undoes
EndUndoes
Redoes
EndRedoes
EndUndoRedoHistory
Fore
SplineSet
834 611 m 1,0,1
 822 953 822 953 570 953 c 0,2,3
 441 953 441 953 356.5 861 c 128,-1,4
 272 769 272 769 258 611 c 1,5,-1
 834 611 l 1,0,1
223 126.5 m 128,-1,7
 84 273 84 273 84 525.5 c 128,-1,8
 84 778 84 778 220 929 c 128,-1,9
 356 1080 356 1080 560.5 1080 c 128,-1,10
 765 1080 765 1080 869.5 949.5 c 128,-1,11
 974 819 974 819 974 587 c 0,12,13
 974 561 974 561 968 503 c 1,14,-1
 253 503 l 1,15,16
 261 301 261 301 356 203.5 c 128,-1,17
 451 106 451 106 604 106 c 0,18,19
 687 106 687 106 755 127 c 128,-1,20
 823 148 823 148 907 190 c 1,21,-1
 942 73 l 1,22,23
 785 -20 785 -20 573.5 -20 c 128,-1,6
 362 -20 362 -20 223 126.5 c 128,-1,7
EndSplineSet
EndChar

StartChar: f
Encoding: 102 102 73
Width: 698
Flags: W
LayerCount: 2
UndoRedoHistory
Layer: 1
Undoes
EndUndoes
Redoes
EndRedoes
EndUndoRedoHistory
Fore
SplineSet
223 0 m 1,0,-1
 223 953 l 1,1,-1
 31 953 l 1,2,-1
 36 1040 l 1,3,-1
 223 1057 l 1,4,-1
 223 1124 l 2,5,6
 223 1318 223 1318 295 1399 c 128,-1,7
 367 1480 367 1480 512 1480 c 0,8,9
 567 1480 567 1480 656 1463 c 1,10,-1
 644 1348 l 1,11,12
 594 1358 594 1358 528.5 1358 c 0,13,14
 462 1358 462 1358 428 1322 c 0,15,16
 388 1281 388 1281 389 1134 c 2,17,-1
 389 1058 l 1,18,-1
 640 1058 l 1,19,-1
 640 953 l 1,20,-1
 389 953 l 1,21,-1
 389 0 l 1,22,-1
 223 0 l 1,0,-1
EndSplineSet
EndChar

StartChar: g
Encoding: 103 103 74
Width: 1159
Flags: W
LayerCount: 2
UndoRedoHistory
Layer: 1
Undoes
EndUndoes
Redoes
EndRedoes
EndUndoRedoHistory
Fore
SplineSet
562 141 m 0,0,1
 728 142 728 142 802 248 c 0,2,3
 868 345 868 345 869 490 c 2,4,-1
 869 579 l 2,5,6
 869 953 869 953 566 953 c 0,7,8
 396 953 396 953 324 822 c 0,9,10
 260 705 260 705 260 538 c 0,11,12
 260 380 260 380 323 268 c 0,13,14
 356 210 356 210 417 175.5 c 128,-1,15
 478 141 478 141 562 141 c 0,0,1
545 14 m 0,16,17
 432 14 432 14 342.5 58 c 128,-1,18
 253 102 253 102 200 176 c 0,19,20
 92 327 92 327 92 530 c 0,21,22
 92 761 92 761 203 916 c 0,23,24
 320 1080 320 1080 558 1080 c 0,25,26
 775 1080 775 1080 870 906 c 1,27,-1
 880 1058 l 1,28,-1
 1031 1058 l 1,29,-1
 1031 84 l 2,30,31
 1031 -193 1031 -193 917.5 -334.5 c 128,-1,32
 804 -476 804 -476 545 -476 c 0,33,34
 404 -476 404 -476 224 -435 c 1,35,-1
 237 -295 l 1,36,37
 420 -338 420 -338 545 -338 c 0,38,39
 715 -338 715 -338 796.5 -250 c 128,-1,40
 878 -162 878 -162 878 37 c 2,41,-1
 878 66 l 1,42,-1
 875 190 l 1,43,44
 776 14 776 14 545 14 c 0,16,17
EndSplineSet
EndChar

StartChar: h
Encoding: 104 104 75
Width: 1131
Flags: W
LayerCount: 2
UndoRedoHistory
Layer: 1
Undoes
EndUndoes
Redoes
EndRedoes
EndUndoRedoHistory
Fore
SplineSet
646 1080 m 0,0,1
 819 1080 819 1080 911 969 c 128,-1,2
 1003 858 1003 858 1003 654 c 2,3,-1
 1003 0 l 1,4,-1
 837 0 l 1,5,-1
 837 648 l 2,6,7
 837 805 837 805 786.5 879.5 c 128,-1,8
 736 954 736 954 617 954 c 0,9,10
 542 954 542 954 486 932 c 0,11,12
 298 861 298 861 299 579 c 2,13,-1
 299 0 l 1,14,-1
 134 0 l 1,15,-1
 134 1460 l 1,16,-1
 300 1472 l 1,17,-1
 300 1118 l 1,18,-1
 294 911 l 1,19,20
 414 1080 414 1080 646 1080 c 0,0,1
EndSplineSet
EndChar

StartChar: i
Encoding: 105 105 76
Width: 494
Flags: W
LayerCount: 2
UndoRedoHistory
Layer: 1
Undoes
EndUndoes
Redoes
EndRedoes
EndUndoRedoHistory
Fore
SplineSet
164 0 m 1,0,-1
 164 1058 l 1,1,-1
 328 1058 l 1,2,-1
 328 0 l 1,3,-1
 164 0 l 1,0,-1
247 1460 m 128,-1,5
 295 1460 295 1460 325.5 1430.5 c 128,-1,6
 356 1401 356 1401 356 1354 c 128,-1,7
 356 1307 356 1307 325 1277 c 128,-1,8
 294 1247 294 1247 246.5 1247 c 128,-1,9
 199 1247 199 1247 168.5 1277 c 128,-1,10
 138 1307 138 1307 138 1354 c 128,-1,11
 138 1401 138 1401 168.5 1430.5 c 128,-1,4
 199 1460 199 1460 247 1460 c 128,-1,5
EndSplineSet
EndChar

StartChar: j
Encoding: 106 106 77
Width: 545
Flags: W
LayerCount: 2
UndoRedoHistory
Layer: 1
Undoes
EndUndoes
Redoes
EndRedoes
EndUndoRedoHistory
Fore
SplineSet
300 1460 m 128,-1,1
 348 1460 348 1460 378.5 1430.5 c 128,-1,2
 409 1401 409 1401 409 1354 c 128,-1,3
 409 1307 409 1307 378 1277 c 128,-1,4
 347 1247 347 1247 299.5 1247 c 128,-1,5
 252 1247 252 1247 221.5 1277 c 128,-1,6
 191 1307 191 1307 191 1354 c 128,-1,7
 191 1401 191 1401 221.5 1430.5 c 128,-1,0
 252 1460 252 1460 300 1460 c 128,-1,1
20 -378 m 1,8,-1
 1 -250 l 1,9,-1
 63 -238 l 2,10,11
 130 -224 130 -224 150 -212 c 0,12,13
 166 -202 166 -202 176.5 -195 c 128,-1,14
 187 -188 187 -188 195 -171.5 c 128,-1,15
 203 -155 203 -155 209 -132.5 c 128,-1,16
 215 -110 215 -110 215 11 c 2,17,-1
 215 1058 l 1,18,-1
 382 1058 l 1,19,-1
 382 -19 l 2,20,21
 382 -258 382 -258 257 -324 c 0,22,23
 194 -358 194 -358 79 -371 c 2,24,-1
 20 -378 l 1,8,-1
EndSplineSet
EndChar

StartChar: k
Encoding: 107 107 78
Width: 1039
Flags: W
LayerCount: 2
UndoRedoHistory
Layer: 1
Undoes
EndUndoes
Redoes
EndRedoes
EndUndoRedoHistory
Fore
SplineSet
140 0 m 1,0,-1
 140 1460 l 1,1,-1
 304 1472 l 1,2,-1
 304 739 l 1,3,-1
 298 521 l 1,4,-1
 794 1058 l 1,5,-1
 995 1058 l 1,6,-1
 533 575 l 1,7,-1
 1033 0 l 1,8,-1
 838 0 l 1,9,-1
 418 495 l 1,10,-1
 304 387 l 1,11,-1
 304 0 l 1,12,-1
 140 0 l 1,0,-1
EndSplineSet
EndChar

StartChar: l
Encoding: 108 108 79
Width: 625
Flags: W
LayerCount: 2
UndoRedoHistory
Layer: 1
Undoes
EndUndoes
Redoes
EndRedoes
EndUndoRedoHistory
Fore
SplineSet
496 -8 m 2,0,1
 327 -8 327 -8 246 50 c 0,2,3
 156 115 156 115 156 303 c 2,4,-1
 156 1460 l 1,5,-1
 320 1472 l 1,6,-1
 320 300 l 2,7,8
 320 236 320 236 332 191 c 0,9,10
 338 171 338 171 352 158 c 128,-1,11
 366 145 366 145 387.5 131.5 c 128,-1,12
 409 118 409 118 539 109 c 2,13,-1
 584 106 l 1,14,-1
 575 -8 l 1,15,-1
 496 -8 l 2,0,1
EndSplineSet
EndChar

StartChar: m
Encoding: 109 109 80
Width: 1705
Flags: W
LayerCount: 2
UndoRedoHistory
Layer: 1
Undoes
EndUndoes
Redoes
EndRedoes
EndUndoRedoHistory
Fore
SplineSet
132 0 m 1,0,-1
 132 1058 l 1,1,-1
 266 1058 l 1,2,-1
 285 902 l 1,3,4
 408 1080 408 1080 611 1080 c 0,5,6
 731 1080 731 1080 799 1023 c 128,-1,7
 867 966 867 966 904 865 c 1,8,9
 1023 1080 1023 1080 1253 1080 c 0,10,11
 1577 1080 1577 1080 1577 682 c 2,12,-1
 1577 0 l 1,13,-1
 1411 0 l 1,14,-1
 1411 630 l 2,15,16
 1411 711 1411 711 1402 792 c 0,17,18
 1396 847 1396 847 1354 902 c 0,19,20
 1316 953 1316 953 1227 953 c 0,21,22
 1131 953 1131 953 1056 890 c 128,-1,23
 981 827 981 827 954 708 c 1,24,25
 946 681 946 681 943 543 c 1,26,-1
 943 0 l 1,27,-1
 777 0 l 1,28,-1
 777 594 l 2,29,30
 777 788 777 788 736 870.5 c 128,-1,31
 695 953 695 953 578.5 953 c 128,-1,32
 462 953 462 953 390.5 868.5 c 128,-1,33
 319 784 319 784 298 645 c 1,34,-1
 298 0 l 1,35,-1
 132 0 l 1,0,-1
EndSplineSet
EndChar

StartChar: n
Encoding: 110 110 81
Width: 1133
Flags: W
LayerCount: 2
UndoRedoHistory
Layer: 1
Undoes
EndUndoes
Redoes
EndRedoes
EndUndoRedoHistory
Fore
SplineSet
132 0 m 1,0,-1
 132 1058 l 1,1,-1
 276 1058 l 1,2,-1
 294 912 l 1,3,4
 414 1080 414 1080 653 1080 c 0,5,6
 834 1080 834 1080 920.5 972.5 c 128,-1,7
 1007 865 1007 865 1007 647 c 2,8,-1
 1007 0 l 1,9,-1
 841 0 l 1,10,-1
 841 665 l 2,11,12
 841 808 841 808 793 880.5 c 128,-1,13
 745 953 745 953 624 953 c 0,14,15
 298 953 298 953 298 590 c 2,16,-1
 298 0 l 1,17,-1
 132 0 l 1,0,-1
EndSplineSet
EndChar

StartChar: o
Encoding: 111 111 82
Width: 1165
Flags: W
LayerCount: 2
UndoRedoHistory
Layer: 1
Undoes
EndUndoes
Redoes
EndRedoes
EndUndoRedoHistory
Fore
SplineSet
582 106 m 0,0,1
 692 106 692 106 768 162 c 0,2,3
 912 267 912 267 911 526 c 0,4,5
 911 720 911 720 828 836.5 c 128,-1,6
 745 953 745 953 583.5 953 c 128,-1,7
 422 953 422 953 338 836.5 c 128,-1,8
 254 720 254 720 254 529 c 128,-1,9
 254 338 254 338 338 222 c 128,-1,10
 422 106 422 106 582 106 c 0,0,1
218 132.5 m 128,-1,12
 84 285 84 285 84 531 c 128,-1,13
 84 777 84 777 216.5 928.5 c 128,-1,14
 349 1080 349 1080 583 1080 c 128,-1,15
 817 1080 817 1080 949 928.5 c 128,-1,16
 1081 777 1081 777 1081 532 c 128,-1,17
 1081 287 1081 287 944 133.5 c 128,-1,18
 807 -20 807 -20 579.5 -20 c 128,-1,11
 352 -20 352 -20 218 132.5 c 128,-1,12
EndSplineSet
EndChar

StartChar: p
Encoding: 112 112 83
Width: 1156
Flags: W
LayerCount: 2
UndoRedoHistory
Layer: 1
Undoes
EndUndoes
Redoes
EndRedoes
EndUndoRedoHistory
Fore
SplineSet
132 -464 m 1,0,-1
 132 1058 l 1,1,-1
 270 1058 l 1,2,-1
 287 873 l 1,3,4
 404 1080 404 1080 625.5 1080 c 128,-1,5
 847 1080 847 1080 958.5 931 c 128,-1,6
 1070 782 1070 782 1070 531 c 128,-1,7
 1070 280 1070 280 954 130 c 128,-1,8
 838 -20 838 -20 623.5 -20 c 128,-1,9
 409 -20 409 -20 291 179 c 1,10,-1
 298 -66 l 1,11,-1
 298 -464 l 1,12,-1
 132 -464 l 1,0,-1
604 107 m 0,13,14
 900 107 900 107 900 530 c 128,-1,15
 900 953 900 953 614 953 c 0,16,17
 294 953 294 953 292 537 c 0,18,19
 292 337 292 337 373 222 c 128,-1,20
 454 107 454 107 604 107 c 0,13,14
EndSplineSet
EndChar

StartChar: q
Encoding: 113 113 84
Width: 1183
Flags: W
LayerCount: 2
UndoRedoHistory
Layer: 1
Undoes
EndUndoes
Redoes
EndRedoes
EndUndoRedoHistory
Fore
SplineSet
893 -464 m 1,0,-1
 893 -71 l 1,1,-1
 897 176 l 1,2,3
 790 -20 790 -20 554 -20 c 0,4,5
 347 -20 347 -20 215.5 133 c 128,-1,6
 84 286 84 286 84 529 c 128,-1,7
 84 772 84 772 210 926 c 128,-1,8
 336 1080 336 1080 559 1080 c 128,-1,9
 782 1080 782 1080 889 887 c 1,10,-1
 907 1058 l 1,11,-1
 1057 1058 l 1,12,-1
 1057 -464 l 1,13,-1
 893 -464 l 1,0,-1
574 106 m 0,14,15
 889 106 889 106 889 549 c 0,16,17
 889 738 889 738 811 845.5 c 128,-1,18
 733 953 733 953 573 953 c 128,-1,19
 413 953 413 953 330.5 839 c 128,-1,20
 248 725 248 725 248 529.5 c 128,-1,21
 248 334 248 334 331 220 c 128,-1,22
 414 106 414 106 574 106 c 0,14,15
EndSplineSet
EndChar

StartChar: r
Encoding: 114 114 85
Width: 730
Flags: W
LayerCount: 2
UndoRedoHistory
Layer: 1
Undoes
EndUndoes
Redoes
EndRedoes
EndUndoRedoHistory
Fore
SplineSet
138 0 m 1,0,-1
 138 1058 l 1,1,-1
 271 1058 l 1,2,-1
 289 848 l 1,3,4
 349 962 349 962 435.5 1015.5 c 128,-1,5
 522 1069 522 1069 618 1069 c 0,6,7
 663 1069 663 1069 692 1064 c 1,8,9
 685 928 l 1,10,11
 645 936 645 936 617 936 c 0,12,13
 481 936 481 936 392.5 838 c 128,-1,14
 304 740 304 740 304 599 c 2,15,-1
 304 0 l 1,16,-1
 138 0 l 1,0,-1
EndSplineSet
EndChar

StartChar: s
Encoding: 115 115 86
Width: 890
Flags: W
LayerCount: 2
UndoRedoHistory
Layer: 1
Undoes
EndUndoes
Redoes
EndRedoes
EndUndoRedoHistory
Fore
SplineSet
624 148 m 128,-1,1
 672 190 672 190 672 266.5 c 128,-1,2
 672 343 672 343 629.5 383.5 c 128,-1,3
 587 424 587 424 471 468 c 0,4,5
 234 556 234 556 167 630 c 0,6,7
 130 670 130 670 118 707 c 128,-1,8
 106 744 106 744 106 797 c 0,9,10
 106 930 106 930 197 1005 c 128,-1,11
 288 1080 288 1080 458.5 1080 c 128,-1,12
 629 1080 629 1080 779 1006 c 1,13,-1
 740 883 l 1,14,15
 602 953 602 953 477.5 953 c 128,-1,16
 353 953 353 953 305 916 c 128,-1,17
 257 879 257 879 257 809.5 c 128,-1,18
 257 740 257 740 293.5 710.5 c 128,-1,19
 330 681 330 681 449.5 633 c 128,-1,20
 569 585 569 585 640.5 550 c 128,-1,21
 712 515 712 515 755 473.5 c 128,-1,22
 798 432 798 432 809.5 392 c 128,-1,23
 821 352 821 352 821 284 c 0,24,25
 821 128 821 128 723.5 54 c 128,-1,26
 626 -20 626 -20 459.5 -20 c 128,-1,27
 293 -20 293 -20 129 58 c 1,28,-1
 129 197 l 1,29,30
 317 106 317 106 446.5 106 c 128,-1,0
 576 106 576 106 624 148 c 128,-1,1
EndSplineSet
EndChar

StartChar: t
Encoding: 116 116 87
Width: 737
Flags: W
LayerCount: 2
UndoRedoHistory
Layer: 1
Undoes
EndUndoes
Redoes
EndRedoes
EndUndoRedoHistory
Fore
SplineSet
578 -8 m 2,0,1
 463 -8 463 -8 392 7 c 128,-1,2
 321 22 321 22 276.5 61 c 128,-1,3
 232 100 232 100 215 160 c 128,-1,4
 198 220 198 220 198 317 c 2,5,-1
 198 953 l 1,6,-1
 35 953 l 1,7,-1
 39 1047 l 1,8,-1
 202 1058 l 1,9,-1
 229 1338 l 1,10,-1
 362 1348 l 1,11,-1
 362 1058 l 1,12,-1
 642 1058 l 1,13,-1
 642 953 l 1,14,-1
 362 953 l 1,15,-1
 362 317 l 2,16,17
 362 190 362 190 400 152.5 c 128,-1,18
 438 115 438 115 571 110 c 1,19,-1
 655 106 l 1,20,-1
 647 -8 l 1,21,-1
 578 -8 l 2,0,1
EndSplineSet
EndChar

StartChar: u
Encoding: 117 117 88
Width: 1125
Flags: W
LayerCount: 2
UndoRedoHistory
Layer: 1
Undoes
EndUndoes
Redoes
EndRedoes
EndUndoRedoHistory
Fore
SplineSet
992 1058 m 1,0,-1
 992 0 l 1,1,-1
 848 0 l 1,2,-1
 831 139 l 1,3,4
 780 59 780 59 704.5 19.5 c 128,-1,5
 629 -20 629 -20 499 -20 c 0,6,7
 315 -20 315 -20 220.5 88.5 c 128,-1,8
 126 197 126 197 126 412 c 2,9,-1
 126 1058 l 1,10,-1
 292 1058 l 1,11,-1
 292 394 l 2,12,13
 292 253 292 253 344.5 180 c 128,-1,14
 397 107 397 107 519 107 c 0,15,16
 826 107 826 107 826 464 c 2,17,-1
 826 1058 l 1,18,-1
 992 1058 l 1,0,-1
EndSplineSet
EndChar

StartChar: v
Encoding: 118 118 89
Width: 1077
Flags: W
LayerCount: 2
UndoRedoHistory
Layer: 1
Undoes
EndUndoes
Redoes
EndRedoes
EndUndoRedoHistory
Fore
SplineSet
543 184 m 1,0,1
 595 330 595 330 700.5 621 c 128,-1,2
 806 912 806 912 858 1058 c 1,3,-1
 1027 1058 l 1,4,-1
 626 0 l 1,5,-1
 459 0 l 1,6,-1
 50 1058 l 1,7,-1
 220 1058 l 1,8,-1
 543 184 l 1,0,1
EndSplineSet
EndChar

StartChar: w
Encoding: 119 119 90
Width: 1563
Flags: W
LayerCount: 2
UndoRedoHistory
Layer: 1
Undoes
EndUndoes
Redoes
EndRedoes
EndUndoRedoHistory
Fore
SplineSet
349 0 m 1,0,-1
 52 1058 l 1,1,-1
 209 1058 l 1,2,-1
 435 203 l 1,3,-1
 695 1058 l 1,4,-1
 872 1058 l 1,5,-1
 1148 206 l 1,6,-1
 1359 1058 l 1,7,-1
 1511 1058 l 1,8,-1
 1226 0 l 1,9,-1
 1079 0 l 1,10,-1
 785 912 l 1,11,-1
 507 0 l 1,12,-1
 349 0 l 1,0,-1
EndSplineSet
EndChar

StartChar: x
Encoding: 120 120 91
Width: 1036
Flags: W
LayerCount: 2
UndoRedoHistory
Layer: 1
Undoes
EndUndoes
Redoes
EndRedoes
EndUndoRedoHistory
Fore
SplineSet
817 0 m 1,0,-1
 514 425 l 1,1,-1
 201 0 l 1,2,-1
 34 0 l 1,3,-1
 429 543 l 1,4,-1
 61 1058 l 1,5,-1
 246 1058 l 1,6,-1
 540 647 l 1,7,-1
 830 1058 l 1,8,-1
 998 1058 l 1,9,-1
 620 535 l 1,10,-1
 1002 0 l 1,11,-1
 817 0 l 1,0,-1
EndSplineSet
EndChar

StartChar: y
Encoding: 121 121 92
Width: 1075
Flags: W
LayerCount: 2
UndoRedoHistory
Layer: 1
Undoes
EndUndoes
Redoes
EndRedoes
EndUndoRedoHistory
Fore
SplineSet
478 -398 m 1,0,-1
 329 -366 l 1,1,-1
 485 32 l 1,2,-1
 66 1058 l 1,3,-1
 235 1058 l 1,4,-1
 565 213 l 1,5,-1
 867 1058 l 1,6,-1
 1035 1058 l 1,7,-1
 478 -398 l 1,0,-1
EndSplineSet
EndChar

StartChar: z
Encoding: 122 122 93
Width: 923
Flags: W
LayerCount: 2
UndoRedoHistory
Layer: 1
Undoes
EndUndoes
Redoes
EndRedoes
EndUndoRedoHistory
Fore
SplineSet
114 0 m 1,0,-1
 114 107 l 1,1,-1
 652 939 l 1,2,-1
 141 939 l 1,3,-1
 135 1058 l 1,4,-1
 825 1058 l 1,5,-1
 825 944 l 1,6,-1
 297 124 l 1,7,-1
 830 124 l 1,8,-1
 834 0 l 1,9,-1
 114 0 l 1,0,-1
EndSplineSet
EndChar

StartChar: braceleft
Encoding: 123 123 94
Width: 901
Flags: W
LayerCount: 2
UndoRedoHistory
Layer: 1
Undoes
EndUndoes
Redoes
EndRedoes
EndUndoRedoHistory
Fore
SplineSet
716 -154 m 1,0,1
 544 -154 544 -154 463 -69 c 128,-1,2
 382 16 382 16 382 184 c 2,3,-1
 382 310 l 2,4,5
 382 446 382 446 368.5 479.5 c 128,-1,6
 355 513 355 513 340.5 534 c 0,7,8
 326 554 326 554 305 566 c 0,9,10
 257 592 257 592 183 593 c 1,11,-1
 183 739 l 1,12,13
 300 739 300 739 340 797 c 0,14,15
 378 852 378 852 381 950 c 0,16,17
 382 978 382 978 382 1020 c 2,18,-1
 382 1190 l 2,19,20
 382 1336 382 1336 469 1414 c 128,-1,21
 556 1492 556 1492 716 1493 c 1,22,-1
 716 1371 l 1,23,24
 662 1370 662 1370 631 1359 c 128,-1,25
 600 1348 600 1348 584 1318 c 0,26,27
 558 1272 558 1272 558 1140 c 2,28,-1
 558 943 l 1,29,30
 557 829 557 829 517.5 764.5 c 128,-1,31
 478 700 478 700 380 662 c 1,32,33
 477 635 477 635 517.5 572.5 c 128,-1,34
 558 510 558 510 558 393 c 2,35,-1
 558 196 l 2,36,37
 558 34 558 34 598 -1 c 0,38,39
 635 -33 635 -33 716 -35 c 1,40,-1
 716 -154 l 1,0,1
EndSplineSet
EndChar

StartChar: bar
Encoding: 124 124 95
Width: 602
Flags: W
LayerCount: 2
UndoRedoHistory
Layer: 1
Undoes
EndUndoes
Redoes
EndRedoes
EndUndoRedoHistory
Fore
SplineSet
228 -216 m 1,0,-1
 228 1550 l 1,1,-1
 374 1550 l 1,2,-1
 374 -216 l 1,3,-1
 228 -216 l 1,0,-1
EndSplineSet
EndChar

StartChar: braceright
Encoding: 125 125 96
Width: 901
Flags: W
LayerCount: 2
UndoRedoHistory
Layer: 1
Undoes
EndUndoes
Redoes
EndRedoes
EndUndoRedoHistory
Fore
SplineSet
223 1493 m 1,0,1
 395 1493 395 1493 476 1408 c 128,-1,2
 557 1323 557 1323 557 1155 c 2,3,-1
 557 1029 l 2,4,5
 557 893 557 893 570.5 859.5 c 128,-1,6
 584 826 584 826 598.5 805 c 128,-1,7
 613 784 613 784 634 772 c 0,8,9
 682 746 682 746 756 746 c 1,10,-1
 756 600 l 1,11,12
 640 600 640 600 600 542 c 0,13,14
 562 486 562 486 558 388 c 0,15,16
 557 360 557 360 557 319 c 2,17,-1
 557 149 l 2,18,19
 557 3 557 3 470 -75 c 128,-1,20
 383 -153 383 -153 223 -154 c 1,21,-1
 223 -32 l 1,22,23
 277 -31 277 -31 308 -20 c 0,24,25
 340 -9 340 -9 356 21 c 0,26,27
 382 67 382 67 381 199 c 2,28,-1
 381 396 l 1,29,30
 382 510 382 510 421.5 574.5 c 128,-1,31
 461 639 461 639 559 677 c 1,32,33
 462 704 462 704 421.5 766.5 c 128,-1,34
 381 829 381 829 381 946 c 2,35,-1
 381 1143 l 2,36,37
 380 1305 380 1305 340 1340 c 0,38,39
 303 1372 303 1372 223 1374 c 1,40,-1
 223 1493 l 1,0,1
EndSplineSet
EndChar

StartChar: asciitilde
Encoding: 126 126 97
Width: 1204
Flags: W
LayerCount: 2
UndoRedoHistory
Layer: 1
Undoes
EndUndoes
Redoes
EndRedoes
EndUndoRedoHistory
Fore
SplineSet
155 491 m 1,0,-1
 114 585 l 1,1,2
 150 672 150 672 216 725 c 128,-1,3
 282 778 282 778 355 778 c 128,-1,4
 428 778 428 778 476 763.5 c 128,-1,5
 524 749 524 749 573 727.5 c 128,-1,6
 622 706 622 706 662 688.5 c 128,-1,7
 702 671 702 671 717 665 c 128,-1,8
 732 659 732 659 760 649 c 0,9,10
 808 632 808 632 855 632 c 128,-1,11
 902 632 902 632 957.5 677 c 128,-1,12
 1013 722 1013 722 1043 788 c 1,13,-1
 1090 701 l 1,14,15
 1011 505 1011 505 841 505 c 0,16,17
 763 505 763 505 656.5 552 c 0,18,19
 550 600 550 600 520 612 c 0,20,21
 430 649 430 649 368.5 649 c 128,-1,22
 307 649 307 649 249.5 604 c 128,-1,23
 192 559 192 559 155 491 c 1,0,-1
EndSplineSet
EndChar

StartChar: cent
Encoding: 162 162 100
Width: 982
Flags: W
LayerCount: 2
UndoRedoHistory
Layer: 1
Undoes
EndUndoes
Redoes
EndRedoes
EndUndoRedoHistory
Fore
SplineSet
611 108 m 0,0,1
 733 108 733 108 834 166 c 1,2,-1
 865 53 l 1,3,4
 831 26 831 26 767 7 c 128,-1,5
 703 -12 703 -12 644 -17 c 1,6,-1
 614 -278 l 1,7,-1
 548 -278 l 1,8,-1
 506 -16 l 1,9,10
 330 5 330 5 218 128 c 0,11,12
 84 276 84 276 84 529.5 c 0,13,14
 84 784 84 784 222 932 c 0,15,16
 338 1057 338 1057 513 1076 c 1,17,-1
 543 1340 l 1,18,-1
 609 1340 l 1,19,-1
 651 1076 l 1,20,21
 791 1061 791 1061 869 1008 c 1,22,-1
 822 894 l 1,23,24
 725 952 725 952 601 952 c 0,25,26
 444 952 444 952 349 836 c 128,-1,27
 254 720 254 720 254 529 c 128,-1,28
 254 338 254 338 345 223 c 128,-1,29
 436 108 436 108 611 108 c 0,0,1
EndSplineSet
EndChar

StartChar: sterling
Encoding: 163 163 101
Width: 1204
Flags: W
LayerCount: 2
UndoRedoHistory
Layer: 1
Undoes
EndUndoes
Redoes
EndRedoes
EndUndoRedoHistory
Fore
SplineSet
155 0 m 1,0,-1
 143 112 l 1,1,-1
 315 129 l 1,2,-1
 315 666 l 1,3,-1
 143 666 l 1,4,-1
 143 786 l 1,5,-1
 315 786 l 1,6,-1
 315 938 l 2,7,8
 315 1480 315 1480 733 1480 c 0,9,10
 925 1480 925 1480 1074 1354 c 1,11,-1
 1006 1239 l 1,12,13
 873 1341 873 1341 733 1341 c 0,14,15
 586 1340 586 1340 536 1236 c 0,16,17
 490 1142 490 1142 491 966 c 2,18,-1
 491 786 l 1,19,-1
 874 786 l 1,20,-1
 874 666 l 1,21,-1
 491 666 l 1,22,-1
 491 131 l 1,23,-1
 1088 131 l 1,24,-1
 1075 0 l 1,25,-1
 155 0 l 1,0,-1
EndSplineSet
EndChar

StartChar: currency
Encoding: 164 164 102
Width: 1280
Flags: W
LayerCount: 2
UndoRedoHistory
Layer: 1
Undoes
EndUndoes
Redoes
EndRedoes
EndUndoRedoHistory
Fore
SplineSet
1086 225 m 1,0,-1
 905 395 l 1,1,2
 795 305 795 305 645.5 305 c 128,-1,3
 496 305 496 305 387 396 c 1,4,-1
 207 226 l 1,5,-1
 144 291 l 1,6,-1
 325 463 l 1,7,8
 244 570 244 570 244 707.5 c 128,-1,9
 244 845 244 845 325 951 c 1,10,-1
 143 1125 l 1,11,-1
 207 1188 l 1,12,-1
 386 1019 l 1,13,14
 496 1111 496 1111 644.5 1111 c 128,-1,15
 793 1111 793 1111 905 1018 c 1,16,-1
 1086 1188 l 1,17,-1
 1147 1123 l 1,18,-1
 967 951 l 1,19,20
 1048 840 1048 840 1048 703.5 c 128,-1,21
 1048 567 1048 567 968 463 c 1,22,-1
 1146 290 l 1,23,-1
 1086 225 l 1,0,-1
868 485 m 128,-1,25
 952 576 952 576 952 707 c 128,-1,26
 952 838 952 838 867.5 929.5 c 128,-1,27
 783 1021 783 1021 646.5 1021 c 128,-1,28
 510 1021 510 1021 425.5 929.5 c 128,-1,29
 341 838 341 838 341 707 c 128,-1,30
 341 576 341 576 425 485 c 128,-1,31
 509 394 509 394 646.5 394 c 128,-1,24
 784 394 784 394 868 485 c 128,-1,25
EndSplineSet
EndChar

StartChar: yen
Encoding: 165 165 103
Width: 1234
Flags: W
LayerCount: 2
UndoRedoHistory
Layer: 1
Undoes
EndUndoes
Redoes
EndRedoes
EndUndoRedoHistory
Fore
SplineSet
545 0 m 1,0,-1
 545 284 l 1,1,-1
 221 284 l 1,2,-1
 221 388 l 1,3,-1
 545 388 l 1,4,-1
 545 575 l 1,5,-1
 223 575 l 1,6,-1
 223 679 l 1,7,-1
 501 679 l 1,8,-1
 50 1460 l 1,9,-1
 224 1460 l 1,10,-1
 629 750 l 1,11,-1
 1010 1460 l 1,12,-1
 1184 1460 l 1,13,-1
 756 679 l 1,14,-1
 1029 679 l 1,15,-1
 1029 575 l 1,16,-1
 715 575 l 1,17,-1
 715 388 l 1,18,-1
 1030 388 l 1,19,-1
 1030 284 l 1,20,-1
 715 284 l 1,21,-1
 715 0 l 1,22,-1
 545 0 l 1,0,-1
EndSplineSet
EndChar

StartChar: brokenbar
Encoding: 166 166 104
Width: 334
Flags: W
LayerCount: 2
UndoRedoHistory
Layer: 1
Undoes
EndUndoes
Redoes
EndRedoes
EndUndoRedoHistory
Fore
SplineSet
110 -208 m 1,0,-1
 110 535 l 1,1,-1
 234 535 l 1,2,-1
 234 -208 l 1,3,-1
 110 -208 l 1,0,-1
110 800 m 1,4,-1
 110 1540 l 1,5,-1
 234 1540 l 1,6,-1
 234 800 l 1,7,-1
 110 800 l 1,4,-1
EndSplineSet
EndChar

StartChar: section
Encoding: 167 167 105
Width: 1000
Flags: W
LayerCount: 2
UndoRedoHistory
Layer: 1
Undoes
EndUndoes
Redoes
EndRedoes
EndUndoRedoHistory
Fore
SplineSet
382 923 m 1,0,1
 317 885 317 885 317 807.5 c 128,-1,2
 317 730 317 730 349 701 c 128,-1,3
 381 672 381 672 484 639 c 2,4,-1
 589 606 l 2,5,6
 642 590 642 590 692 568 c 1,7,8
 732 614 732 614 732 684 c 128,-1,9
 732 754 732 754 688 796 c 128,-1,10
 644 838 644 838 529 875 c 2,11,-1
 413 912 l 2,12,13
 402 915 402 915 382 923 c 1,0,1
349 1102 m 128,-1,15
 381 1073 381 1073 484 1040 c 2,16,-1
 589 1007 l 2,17,18
 765 952 765 952 823 881 c 0,19,20
 879 813 879 813 879 689 c 0,21,22
 879 569 879 569 812 492 c 1,23,24
 879 424 879 424 879 276.5 c 0,25,26
 878 129 878 129 770 52 c 0,27,28
 669 -20 669 -20 518 -20 c 0,29,30
 351 -20 351 -20 187 58 c 1,31,-1
 187 197 l 1,32,33
 377 106 377 106 530 106 c 0,34,35
 626 106 626 106 679 153.5 c 128,-1,36
 732 201 732 201 732 277 c 128,-1,37
 732 353 732 353 688 395 c 128,-1,38
 644 437 644 437 529 474 c 2,39,-1
 413 511 l 2,40,41
 270 557 270 557 217 622.5 c 128,-1,42
 164 688 164 688 164 803 c 128,-1,43
 164 918 164 918 248 994 c 1,44,45
 164 1062 164 1062 164 1192 c 128,-1,46
 164 1322 164 1322 256 1401.5 c 128,-1,47
 348 1481 348 1481 517.5 1481 c 128,-1,48
 687 1481 687 1481 837 1407 c 1,49,-1
 798 1284 l 1,50,51
 660 1354 660 1354 531 1354 c 0,52,53
 317 1354 317 1354 317 1202 c 0,54,14
 317 1131 317 1131 349 1102 c 128,-1,15
EndSplineSet
EndChar

StartChar: dieresis
Encoding: 168 168 106
AltUni2: 000308.ffffffff.0
Width: 740
Flags: W
LayerCount: 2
UndoRedoHistory
Layer: 1
Undoes
EndUndoes
Redoes
EndRedoes
EndUndoRedoHistory
Fore
SplineSet
698 1325 m 128,-1,1
 698 1278 698 1278 666.5 1248 c 128,-1,2
 635 1218 635 1218 587 1218 c 128,-1,3
 539 1218 539 1218 507.5 1248 c 128,-1,4
 476 1278 476 1278 476 1325 c 128,-1,5
 476 1372 476 1372 507.5 1401.5 c 128,-1,6
 539 1431 539 1431 587 1431 c 128,-1,7
 635 1431 635 1431 666.5 1401.5 c 128,-1,0
 698 1372 698 1372 698 1325 c 128,-1,1
153 1431 m 128,-1,9
 201 1431 201 1431 232.5 1401.5 c 128,-1,10
 264 1372 264 1372 264 1325 c 128,-1,11
 264 1278 264 1278 232.5 1248 c 128,-1,12
 201 1218 201 1218 153 1218 c 128,-1,13
 105 1218 105 1218 73.5 1248 c 128,-1,14
 42 1278 42 1278 42 1325 c 128,-1,15
 42 1372 42 1372 73.5 1401.5 c 128,-1,8
 105 1431 105 1431 153 1431 c 128,-1,9
EndSplineSet
EndChar

StartChar: copyright
Encoding: 169 169 107
Width: 1791
Flags: W
LayerCount: 2
UndoRedoHistory
Layer: 1
Undoes
EndUndoes
Redoes
EndRedoes
EndUndoRedoHistory
Fore
SplineSet
660.5 1012 m 128,-1,1
 559 901 559 901 559 725 c 128,-1,2
 559 549 559 549 661 439.5 c 128,-1,3
 763 330 763 330 903.5 330 c 128,-1,4
 1044 330 1044 330 1159 400 c 1,5,-1
 1194 317 l 1,6,7
 1064 234 1064 234 924.5 234 c 128,-1,8
 785 234 785 234 676.5 296 c 128,-1,9
 568 358 568 358 503 472 c 128,-1,10
 438 586 438 586 438 725.5 c 128,-1,11
 438 865 438 865 501.5 978.5 c 128,-1,12
 565 1092 565 1092 672 1156 c 128,-1,13
 779 1220 779 1220 920 1220 c 128,-1,14
 1061 1220 1061 1220 1191 1130 c 1,15,-1
 1148 1043 l 1,16,17
 1041 1123 1041 1123 901.5 1123 c 128,-1,0
 762 1123 762 1123 660.5 1012 c 128,-1,1
1089 90 m 128,-1,19
 1184 117 1184 117 1267.5 173 c 128,-1,20
 1351 229 1351 229 1413.5 307 c 128,-1,21
 1476 385 1476 385 1512 494 c 128,-1,22
 1548 603 1548 603 1548 730 c 0,23,24
 1548 858 1548 858 1512 966 c 0,25,26
 1446 1168 1446 1168 1268 1286 c 0,27,28
 1103 1396 1103 1396 893 1395.5 c 0,29,30
 682 1396 682 1396 520 1286 c 0,31,32
 438 1230 438 1230 376 1152 c 128,-1,33
 314 1074 314 1074 278.5 965.5 c 128,-1,34
 243 857 243 857 243 730 c 128,-1,35
 243 603 243 603 278.5 494 c 128,-1,36
 314 385 314 385 376 307 c 128,-1,37
 438 229 438 229 520.5 173 c 128,-1,38
 603 117 603 117 698 90 c 128,-1,39
 793 63 793 63 893.5 63 c 128,-1,18
 994 63 994 63 1089 90 c 128,-1,19
670.5 9 m 128,-1,41
 562 39 562 39 465.5 101.5 c 128,-1,42
 369 164 369 164 296.5 251.5 c 128,-1,43
 224 339 224 339 181.5 462.5 c 128,-1,44
 139 586 139 586 139 730 c 0,45,46
 140 874 140 874 182 998 c 0,47,48
 260 1226 260 1226 466 1358 c 0,49,50
 655 1480 655 1480 893 1481 c 0,51,52
 1132 1480 1132 1480 1324 1358 c 0,53,54
 1422 1296 1422 1296 1494.5 1208.5 c 128,-1,55
 1567 1121 1567 1121 1609.5 997.5 c 128,-1,56
 1652 874 1652 874 1652 730 c 128,-1,57
 1652 586 1652 586 1609.5 462.5 c 128,-1,58
 1567 339 1567 339 1494 251.5 c 128,-1,59
 1421 164 1421 164 1324 101.5 c 128,-1,60
 1227 39 1227 39 1117.5 9 c 128,-1,61
 1008 -21 1008 -21 893.5 -21 c 128,-1,40
 779 -21 779 -21 670.5 9 c 128,-1,41
EndSplineSet
EndChar

StartChar: guillemotleft
Encoding: 171 171 109
Width: 985
Flags: W
LayerCount: 2
UndoRedoHistory
Layer: 1
Undoes
EndUndoes
Redoes
EndRedoes
EndUndoRedoHistory
Fore
SplineSet
738 148 m 1,0,-1
 454 539 l 1,1,-1
 741 933 l 1,2,-1
 862 933 l 1,3,-1
 598 542 l 1,4,-1
 855 148 l 1,5,-1
 738 148 l 1,0,-1
385 148 m 1,6,-1
 101 539 l 1,7,-1
 389 933 l 1,8,-1
 510 933 l 1,9,-1
 246 542 l 1,10,-1
 502 148 l 1,11,-1
 385 148 l 1,6,-1
EndSplineSet
EndChar

StartChar: logicalnot
Encoding: 172 172 110
Width: 1182
Flags: W
LayerCount: 2
UndoRedoHistory
Layer: 1
Undoes
EndUndoes
Redoes
EndRedoes
EndUndoRedoHistory
Fore
SplineSet
936 253 m 1,0,-1
 936 666 l 1,1,-1
 101 666 l 1,2,-1
 101 791 l 1,3,-1
 1057 791 l 1,4,-1
 1057 253 l 1,5,-1
 936 253 l 1,0,-1
EndSplineSet
EndChar

StartChar: uni00AD
Encoding: 173 173 111
Width: 957
Flags: W
LayerCount: 2
UndoRedoHistory
Layer: 1
Undoes
EndUndoes
Redoes
EndRedoes
EndUndoRedoHistory
Fore
SplineSet
114 205 m 1,0,-1
 114 338 l 1,1,-1
 856 338 l 1,2,-1
 856 205 l 1,3,-1
 114 205 l 1,0,-1
EndSplineSet
EndChar

StartChar: registered
Encoding: 174 174 112
Width: 1788
Flags: W
LayerCount: 2
UndoRedoHistory
Layer: 1
Undoes
EndUndoes
Redoes
EndRedoes
EndUndoRedoHistory
Fore
SplineSet
1038 737 m 1,0,1
 1054 715 1054 715 1262 293 c 1,2,-1
 1138 293 l 1,3,-1
 1087 398 l 2,4,5
 932 717 932 717 927 722 c 1,6,-1
 711 722 l 1,7,-1
 711 293 l 1,8,-1
 600 293 l 1,9,-1
 600 1212 l 1,10,-1
 916 1212 l 2,11,12
 1087 1212 1087 1212 1158 1155.5 c 128,-1,13
 1229 1099 1229 1099 1229 974 c 0,14,15
 1229 757 1229 757 1038 737 c 1,0,1
712 820 m 1,16,-1
 936 820 l 2,17,18
 1040 820 1040 820 1080.5 854 c 128,-1,19
 1121 888 1121 888 1121 974 c 128,-1,20
 1121 1060 1121 1060 1074.5 1087 c 128,-1,21
 1028 1114 1028 1114 900 1114 c 2,22,-1
 712 1114 l 1,23,-1
 712 820 l 1,16,-1
893 64 m 128,-1,25
 1019 64 1019 64 1134.5 108 c 128,-1,26
 1250 152 1250 152 1342 233.5 c 128,-1,27
 1434 315 1434 315 1488.5 443.5 c 128,-1,28
 1543 572 1543 572 1543 713.5 c 0,29,30
 1543 856 1543 856 1507 964 c 0,31,32
 1440 1166 1440 1166 1264 1284 c 0,33,34
 1100 1394 1100 1394 893 1395 c 0,35,36
 635 1396 635 1396 446 1226 c 0,37,38
 355 1144 355 1144 300.5 1015.5 c 128,-1,39
 246 887 246 887 246 730 c 128,-1,40
 246 573 246 573 300.5 444 c 128,-1,41
 355 315 355 315 446 233.5 c 128,-1,42
 537 152 537 152 652 108 c 128,-1,24
 767 64 767 64 893 64 c 128,-1,25
893 -20 m 128,-1,44
 779 -20 779 -20 671 10 c 128,-1,45
 563 40 563 40 467 102.5 c 128,-1,46
 371 165 371 165 298.5 252.5 c 128,-1,47
 226 340 226 340 184 463 c 128,-1,48
 142 586 142 586 142 729.5 c 128,-1,49
 142 873 142 873 184 996 c 0,50,51
 262 1224 262 1224 467 1358 c 0,52,53
 655 1480 655 1480 893 1480 c 0,54,55
 1130 1480 1130 1480 1320 1358 c 0,56,57
 1646 1147 1646 1147 1646 730 c 0,58,59
 1646 440 1646 440 1490 252 c 0,60,61
 1418 164 1418 164 1321 102 c 128,-1,62
 1224 40 1224 40 1115.5 10 c 128,-1,43
 1007 -20 1007 -20 893 -20 c 128,-1,44
EndSplineSet
EndChar

StartChar: macron
Encoding: 175 175 113
Width: 1056
Flags: W
LayerCount: 2
UndoRedoHistory
Layer: 1
Undoes
EndUndoes
Redoes
EndRedoes
EndUndoRedoHistory
Fore
SplineSet
224 1341 m 1,0,-1
 224 1460 l 1,1,-1
 809 1460 l 1,2,-1
 809 1341 l 1,3,-1
 224 1341 l 1,0,-1
EndSplineSet
EndChar

StartChar: degree
Encoding: 176 176 114
Width: 809
Flags: W
LayerCount: 2
UndoRedoHistory
Layer: 1
Undoes
EndUndoes
Redoes
EndRedoes
EndUndoRedoHistory
Fore
SplineSet
404 1001 m 128,-1,1
 485 1001 485 1001 541 1055.5 c 128,-1,2
 597 1110 597 1110 597 1194 c 128,-1,3
 597 1278 597 1278 541.5 1332 c 128,-1,4
 486 1386 486 1386 405.5 1386 c 128,-1,5
 325 1386 325 1386 269 1332 c 128,-1,6
 213 1278 213 1278 213 1193.5 c 128,-1,7
 213 1109 213 1109 268 1055 c 128,-1,0
 323 1001 323 1001 404 1001 c 128,-1,1
194 988.5 m 128,-1,9
 105 1070 105 1070 105 1194 c 128,-1,10
 105 1318 105 1318 194 1399 c 128,-1,11
 283 1480 283 1480 405 1480 c 128,-1,12
 527 1480 527 1480 616 1399.5 c 128,-1,13
 705 1319 705 1319 705 1196 c 128,-1,14
 705 1073 705 1073 616.5 990 c 128,-1,15
 528 907 528 907 405.5 907 c 128,-1,8
 283 907 283 907 194 988.5 c 128,-1,9
EndSplineSet
EndChar

StartChar: plusminus
Encoding: 177 177 115
Width: 1204
Flags: W
LayerCount: 2
UndoRedoHistory
Layer: 1
Undoes
EndUndoes
Redoes
EndRedoes
EndUndoRedoHistory
Fore
SplineSet
137 0 m 1,0,-1
 137 115 l 1,1,-1
 1066 115 l 1,2,-1
 1066 0 l 1,3,-1
 137 0 l 1,0,-1
530 207 m 1,4,-1
 530 595 l 1,5,-1
 158 595 l 1,6,-1
 158 711 l 1,7,-1
 530 711 l 1,8,-1
 530 1090 l 1,9,-1
 655 1090 l 1,10,-1
 655 711 l 1,11,-1
 1021 711 l 1,12,-1
 1021 595 l 1,13,-1
 656 595 l 1,14,-1
 656 207 l 1,15,-1
 530 207 l 1,4,-1
EndSplineSet
EndChar

StartChar: uni00B2
Encoding: 178 178 116
Width: 730
Flags: W
LayerCount: 2
UndoRedoHistory
Layer: 1
Undoes
EndUndoes
Redoes
EndRedoes
EndUndoRedoHistory
Fore
SplineSet
622 649 m 1,0,-1
 107 649 l 1,1,-1
 107 739 l 1,2,3
 141 773 141 773 204 835.5 c 128,-1,4
 267 898 267 898 295.5 927 c 128,-1,5
 324 956 324 956 369 1003 c 128,-1,6
 414 1050 414 1050 435 1077 c 128,-1,7
 456 1104 456 1104 480 1139 c 0,8,9
 522 1201 522 1201 521.5 1265 c 128,-1,10
 521 1329 521 1329 479.5 1367.5 c 128,-1,11
 438 1406 438 1406 376 1406 c 0,12,13
 241 1406 241 1406 150 1284 c 1,14,-1
 79 1343 l 1,15,16
 117 1414 117 1414 197.5 1459 c 128,-1,17
 278 1504 278 1504 381 1504 c 128,-1,18
 484 1504 484 1504 558.5 1441.5 c 128,-1,19
 633 1379 633 1379 633 1263 c 0,20,21
 634 1178 634 1178 590 1104 c 0,22,23
 553 1041 553 1041 523.5 1008.5 c 128,-1,24
 494 976 494 976 477 957.5 c 128,-1,25
 460 939 460 939 425.5 906.5 c 128,-1,26
 391 874 391 874 371.5 856.5 c 128,-1,27
 352 839 352 839 311.5 802 c 128,-1,28
 271 765 271 765 250 746 c 1,29,-1
 622 746 l 1,30,-1
 622 649 l 1,0,-1
EndSplineSet
EndChar

StartChar: uni00B3
Encoding: 179 179 117
Width: 800
Flags: W
LayerCount: 2
UndoRedoHistory
Layer: 1
Undoes
EndUndoes
Redoes
EndRedoes
EndUndoRedoHistory
Fore
SplineSet
391 615 m 0,0,1
 321 615 321 615 246.5 637 c 128,-1,2
 172 659 172 659 130 702 c 1,3,-1
 179 798 l 1,4,5
 214 766 214 766 272 747 c 128,-1,6
 330 728 330 728 386 728 c 128,-1,7
 442 728 442 728 481.5 764.5 c 128,-1,8
 521 801 521 801 521 869.5 c 128,-1,9
 521 938 521 938 467.5 973.5 c 128,-1,10
 414 1009 414 1009 328 1009 c 2,11,-1
 254 1009 l 1,12,-1
 254 1122 l 1,13,-1
 325 1122 l 2,14,15
 403 1122 403 1122 452.5 1153.5 c 128,-1,16
 502 1185 502 1185 502 1243.5 c 128,-1,17
 502 1302 502 1302 469 1332 c 128,-1,18
 436 1362 436 1362 382.5 1362 c 128,-1,19
 329 1362 329 1362 270 1342 c 128,-1,20
 211 1322 211 1322 182 1293 c 1,21,-1
 128 1380 l 1,22,23
 168 1423 168 1423 242.5 1449 c 128,-1,24
 317 1475 317 1475 402 1475 c 128,-1,25
 487 1475 487 1475 560 1415 c 128,-1,26
 633 1355 633 1355 633 1246 c 0,27,28
 633 1192 633 1192 597.5 1141.5 c 128,-1,29
 562 1091 562 1091 489 1073 c 1,30,31
 567 1050 567 1050 609.5 995.5 c 128,-1,32
 652 941 652 941 652 867 c 0,33,34
 652 752 652 752 577.5 683.5 c 128,-1,35
 503 615 503 615 391 615 c 0,0,1
EndSplineSet
EndChar

StartChar: acute
Encoding: 180 180 118
Width: 619
Flags: W
LayerCount: 2
UndoRedoHistory
Layer: 1
Undoes
EndUndoes
Redoes
EndRedoes
EndUndoRedoHistory
Fore
SplineSet
112 1058 m 1,0,-1
 295 1460 l 1,1,-1
 501 1460 l 1,2,-1
 209 1058 l 1,3,-1
 112 1058 l 1,0,-1
EndSplineSet
EndChar

StartChar: paragraph
Encoding: 182 182 120
Width: 1204
Flags: W
LayerCount: 2
UndoRedoHistory
Layer: 1
Undoes
EndUndoes
Redoes
EndRedoes
EndUndoRedoHistory
Fore
SplineSet
521 0 m 1,0,-1
 521 791 l 1,1,2
 318 790 318 790 224 896 c 0,3,4
 181 944 181 944 160 1003 c 128,-1,5
 139 1062 139 1062 139 1147 c 0,6,7
 138 1232 138 1232 192 1312 c 0,8,9
 291 1460 291 1460 552 1460 c 2,10,-1
 1061 1460 l 1,11,-1
 1061 1341 l 1,12,-1
 945 1341 l 1,13,-1
 945 0 l 1,14,-1
 821 0 l 1,15,-1
 821 1341 l 1,16,-1
 645 1341 l 1,17,-1
 645 0 l 1,18,-1
 521 0 l 1,0,-1
EndSplineSet
EndChar

StartChar: periodcentered
Encoding: 183 183 121
Width: 478
Flags: W
LayerCount: 2
UndoRedoHistory
Layer: 1
Undoes
EndUndoes
Redoes
EndRedoes
EndUndoRedoHistory
Fore
SplineSet
239 727 m 128,-1,1
 287 727 287 727 318.5 697.5 c 128,-1,2
 350 668 350 668 350 621 c 128,-1,3
 350 574 350 574 318.5 544 c 128,-1,4
 287 514 287 514 239 514 c 128,-1,5
 191 514 191 514 159.5 544 c 128,-1,6
 128 574 128 574 128 621 c 128,-1,7
 128 668 128 668 159.5 697.5 c 128,-1,0
 191 727 191 727 239 727 c 128,-1,1
EndSplineSet
EndChar

StartChar: cedilla
Encoding: 184 184 122
Width: 575
Flags: W
LayerCount: 2
UndoRedoHistory
Layer: 1
Undoes
EndUndoes
Redoes
EndRedoes
EndUndoRedoHistory
Fore
SplineSet
125 -376 m 1,0,-1
 213 10 l 1,1,-1
 296 10 l 1,2,-1
 258 -376 l 1,3,-1
 125 -376 l 1,0,-1
EndSplineSet
EndChar

StartChar: uni00B9
Encoding: 185 185 123
Width: 802
Flags: W
LayerCount: 2
UndoRedoHistory
Layer: 1
Undoes
EndUndoes
Redoes
EndRedoes
EndUndoRedoHistory
Fore
SplineSet
197 659 m 1,0,-1
 197 782 l 1,1,-1
 372 782 l 1,2,-1
 372 1307 l 1,3,4
 345 1290 345 1290 283 1265.5 c 128,-1,5
 221 1241 221 1241 192 1235 c 1,6,-1
 192 1368 l 1,7,8
 221 1375 221 1375 300 1412.5 c 128,-1,9
 379 1450 379 1450 398 1469 c 1,10,-1
 528 1469 l 1,11,-1
 528 782 l 1,12,-1
 694 782 l 1,13,-1
 694 659 l 1,14,-1
 197 659 l 1,0,-1
EndSplineSet
EndChar

StartChar: ordmasculine
Encoding: 186 186 124
Width: 844
Flags: W
LayerCount: 2
UndoRedoHistory
Layer: 1
Undoes
EndUndoes
Redoes
EndRedoes
EndUndoRedoHistory
Fore
SplineSet
272.5 908.5 m 128,-1,1
 323 839 323 839 421 839 c 0,2,3
 627 839 627 839 627 1104 c 0,4,5
 627 1232 627 1232 574.5 1304 c 128,-1,6
 522 1376 522 1376 422.5 1376 c 128,-1,7
 323 1376 323 1376 272.5 1305 c 128,-1,8
 222 1234 222 1234 222 1106 c 128,-1,0
 222 978 222 978 272.5 908.5 c 128,-1,1
665 840 m 128,-1,10
 573 735 573 735 417.5 735 c 128,-1,11
 262 735 262 735 173.5 838 c 128,-1,12
 85 941 85 941 85 1106.5 c 128,-1,13
 85 1272 85 1272 173.5 1376 c 128,-1,14
 262 1480 262 1480 423 1480 c 128,-1,15
 584 1480 584 1480 670.5 1377.5 c 128,-1,16
 757 1275 757 1275 757 1110 c 128,-1,9
 757 945 757 945 665 840 c 128,-1,10
EndSplineSet
EndChar

StartChar: guillemotright
Encoding: 187 187 125
Width: 989
Flags: W
LayerCount: 2
UndoRedoHistory
Layer: 1
Undoes
EndUndoes
Redoes
EndRedoes
EndUndoRedoHistory
Fore
SplineSet
245 933 m 1,0,-1
 529 542 l 1,1,-1
 242 148 l 1,2,-1
 121 148 l 1,3,-1
 385 539 l 1,4,-1
 128 933 l 1,5,-1
 245 933 l 1,0,-1
598 933 m 1,6,-1
 882 542 l 1,7,-1
 594 148 l 1,8,-1
 473 148 l 1,9,-1
 737 539 l 1,10,-1
 481 933 l 1,11,-1
 598 933 l 1,6,-1
EndSplineSet
EndChar

StartChar: onequarter
Encoding: 188 188 126
Width: 1585
Flags: W
LayerCount: 2
UndoRedoHistory
Layer: 1
Undoes
EndUndoes
Redoes
EndRedoes
EndUndoRedoHistory
Fore
SplineSet
265 1460 m 1,0,1
 375 1460 l 1,2,-1
 375 707 l 1,3,-1
 514 707 l 1,4,-1
 514 598 l 1,5,-1
 83 598 l 1,6,-1
 83 707 l 1,7,-1
 237 707 l 1,8,-1
 237 1320 l 1,9,10
 184 1287 184 1287 73 1248 c 1,11,-1
 73 1359 l 1,12,13
 213 1411 213 1411 265 1460 c 1,0,1
1315 0 m 1,14,-1
 1315 186 l 1,15,-1
 937 186 l 1,16,-1
 937 277 l 1,17,-1
 1305 836 l 1,18,-1
 1443 836 l 1,19,-1
 1443 290 l 1,20,-1
 1556 290 l 1,21,-1
 1564 186 l 1,22,-1
 1442 186 l 1,23,-1
 1442 0 l 1,24,-1
 1315 0 l 1,14,-1
328 0 m 1,25,-1
 1236 1480 l 1,26,-1
 1367 1480 l 1,27,-1
 460 0 l 1,28,-1
 328 0 l 1,25,-1
1076 290 m 1,29,-1
 1314 290 l 1,30,-1
 1314 673 l 1,31,-1
 1076 290 l 1,29,-1
EndSplineSet
EndChar

StartChar: onehalf
Encoding: 189 189 127
Width: 1645
Flags: W
LayerCount: 2
UndoRedoHistory
Layer: 1
Undoes
EndUndoes
Redoes
EndRedoes
EndUndoRedoHistory
Fore
SplineSet
265 1460 m 1,0,1
 375 1460 l 1,2,-1
 375 707 l 1,3,-1
 514 707 l 1,4,-1
 514 598 l 1,5,-1
 83 598 l 1,6,-1
 83 707 l 1,7,-1
 237 707 l 1,8,-1
 237 1320 l 1,9,10
 184 1287 184 1287 73 1248 c 1,11,-1
 73 1359 l 1,12,13
 213 1411 213 1411 265 1460 c 1,0,1
1054 612 m 1,14,-1
 982 690 l 1,15,16
 1021 758 1021 758 1102 799.5 c 128,-1,17
 1183 841 1183 841 1287.5 841 c 128,-1,18
 1392 841 1392 841 1475 774.5 c 128,-1,19
 1558 708 1558 708 1558 591 c 0,20,21
 1558 541 1558 541 1546.5 501 c 128,-1,22
 1535 461 1535 461 1497.5 410.5 c 128,-1,23
 1460 360 1460 360 1360 265 c 2,24,-1
 1189 102 l 1,25,-1
 1550 102 l 1,26,-1
 1544 -9 l 1,27,-1
 1023 -9 l 1,28,-1
 1023 98 l 1,29,-1
 1271 340 l 2,30,31
 1358 425 1358 425 1392 478.5 c 128,-1,32
 1426 532 1426 532 1426 592 c 128,-1,33
 1426 652 1426 652 1382.5 688 c 128,-1,34
 1339 724 1339 724 1273 724 c 0,35,36
 1138 724 1138 724 1054 612 c 1,14,-1
303 6 m 1,37,-1
 1211 1479 l 1,38,-1
 1344 1479 l 1,39,-1
 436 6 l 1,40,-1
 303 6 l 1,37,-1
EndSplineSet
EndChar

StartChar: threequarters
Encoding: 190 190 128
Width: 1615
Flags: W
LayerCount: 2
UndoRedoHistory
Layer: 1
Undoes
EndUndoes
Redoes
EndRedoes
EndUndoRedoHistory
Fore
SplineSet
349 0 m 1,0,-1
 1257 1480 l 1,1,-1
 1388 1480 l 1,2,-1
 481 0 l 1,3,-1
 349 0 l 1,0,-1
1076 290 m 1,4,-1
 1314 290 l 1,5,-1
 1314 673 l 1,6,-1
 1076 290 l 1,4,-1
1315 0 m 1,7,-1
 1315 186 l 1,8,-1
 937 186 l 1,9,-1
 937 277 l 1,10,-1
 1305 836 l 1,11,-1
 1443 836 l 1,12,-1
 1443 290 l 1,13,-1
 1556 290 l 1,14,-1
 1564 186 l 1,15,-1
 1442 186 l 1,16,-1
 1442 0 l 1,17,-1
 1315 0 l 1,7,-1
350 615 m 0,18,19
 280 615 280 615 205.5 637 c 128,-1,20
 131 659 131 659 89 702 c 1,21,-1
 138 798 l 1,22,23
 173 766 173 766 231 747 c 128,-1,24
 289 728 289 728 345 728 c 128,-1,25
 401 728 401 728 440.5 764.5 c 128,-1,26
 480 801 480 801 480 869.5 c 128,-1,27
 480 938 480 938 426.5 973.5 c 128,-1,28
 373 1009 373 1009 287 1009 c 2,29,-1
 213 1009 l 1,30,-1
 213 1122 l 1,31,-1
 284 1122 l 2,32,33
 362 1122 362 1122 411.5 1153.5 c 128,-1,34
 461 1185 461 1185 461 1243.5 c 128,-1,35
 461 1302 461 1302 428 1332 c 128,-1,36
 395 1362 395 1362 341.5 1362 c 128,-1,37
 288 1362 288 1362 229 1342 c 128,-1,38
 170 1322 170 1322 141 1293 c 1,39,-1
 87 1380 l 1,40,41
 127 1423 127 1423 201.5 1449 c 128,-1,42
 276 1475 276 1475 361 1475 c 128,-1,43
 446 1475 446 1475 519 1415 c 128,-1,44
 592 1355 592 1355 592 1246 c 0,45,46
 592 1192 592 1192 556.5 1141.5 c 128,-1,47
 521 1091 521 1091 448 1073 c 1,48,49
 526 1050 526 1050 568.5 995.5 c 128,-1,50
 611 941 611 941 611 867 c 0,51,52
 611 752 611 752 536.5 683.5 c 128,-1,53
 462 615 462 615 350 615 c 0,18,19
EndSplineSet
EndChar

StartChar: AE
Encoding: 198 198 136
Width: 1653
Flags: W
LayerCount: 2
UndoRedoHistory
Layer: 1
Undoes
EndUndoes
Redoes
EndRedoes
EndUndoRedoHistory
Fore
SplineSet
779 592 m 1,0,-1
 779 1308 l 1,1,-1
 484 592 l 1,2,-1
 779 592 l 1,0,-1
779 0 m 1,3,-1
 779 470 l 1,4,-1
 436 470 l 1,5,-1
 235 0 l 1,6,-1
 52 0 l 1,7,-1
 695 1460 l 1,8,-1
 1566 1460 l 1,9,-1
 1560 1328 l 1,10,-1
 948 1328 l 1,11,-1
 948 821 l 1,12,-1
 1498 821 l 1,13,-1
 1498 689 l 1,14,-1
 948 689 l 1,15,-1
 948 134 l 1,16,-1
 1581 134 l 1,17,-1
 1569 0 l 1,18,-1
 779 0 l 1,3,-1
EndSplineSet
EndChar

StartChar: Eth
Encoding: 208 208 146
Width: 1522
Flags: W
LayerCount: 2
UndoRedoHistory
Layer: 1
Undoes
EndUndoes
Redoes
EndRedoes
EndUndoRedoHistory
Fore
SplineSet
340 1328 m 1,0,-1
 340 795 l 1,1,-1
 658 795 l 1,2,-1
 658 681 l 1,3,-1
 340 681 l 1,4,-1
 340 134 l 1,5,-1
 597 134 l 2,6,7
 1184 134 1184 134 1184 738 c 0,8,9
 1184 1039 1184 1039 1027.5 1183.5 c 128,-1,10
 871 1328 871 1328 570 1328 c 2,11,-1
 340 1328 l 1,0,-1
164 0 m 1,12,-1
 164 681 l 1,13,-1
 62 681 l 1,14,-1
 62 795 l 1,15,-1
 164 795 l 1,16,-1
 164 1460 l 1,17,-1
 578 1460 l 2,18,19
 865 1460 865 1460 1053 1348 c 0,20,21
 1360 1166 1360 1166 1360 734 c 0,22,23
 1360 382 1360 382 1159 191 c 128,-1,24
 958 0 958 0 607 0 c 2,25,-1
 164 0 l 1,12,-1
EndSplineSet
EndChar

StartChar: multiply
Encoding: 215 215 153
Width: 1204
Flags: W
LayerCount: 2
UndoRedoHistory
Layer: 1
Undoes
EndUndoes
Redoes
EndRedoes
EndUndoRedoHistory
Fore
SplineSet
899 253 m 1,0,-1
 605 562 l 1,1,-1
 309 253 l 1,2,-1
 218 344 l 1,3,-1
 514 657 l 1,4,-1
 228 961 l 1,5,-1
 319 1055 l 1,6,-1
 605 751 l 1,7,-1
 888 1051 l 1,8,-1
 983 957 l 1,9,-1
 695 657 l 1,10,11
 717 635 717 635 986 347 c 1,12,-1
 899 253 l 1,0,-1
EndSplineSet
EndChar

StartChar: Oslash
Encoding: 216 216 154
Width: 1616
Flags: W
LayerCount: 2
UndoRedoHistory
Layer: 1
Undoes
EndUndoes
Redoes
EndRedoes
EndUndoRedoHistory
Fore
SplineSet
606 4 m 1,0,1
 515 -228 l 1,2,-1
 419 -195 l 1,3,-1
 508 36 l 1,4,5
 468 52 468 52 434 74 c 0,6,7
 120 262 120 262 120 724 c 0,8,9
 120 948 120 948 201 1118.5 c 128,-1,10
 282 1289 282 1289 439.5 1384.5 c 128,-1,11
 597 1480 597 1480 812 1480 c 0,12,13
 943 1480 943 1480 1052 1443 c 1,14,-1
 1137 1662 l 1,15,-1
 1239 1624 l 1,16,-1
 1151 1400 l 1,17,18
 1328 1304 1328 1304 1416 1116 c 0,19,20
 1496 944 1496 944 1496 720 c 0,21,22
 1496 392 1496 392 1320 188 c 0,23,24
 1234 90 1234 90 1104 35 c 128,-1,25
 974 -20 974 -20 837.5 -20 c 128,-1,26
 701 -20 701 -20 606 4 c 1,0,1
562 175 m 1,27,-1
 1000 1309 l 1,28,29
 915 1341 915 1341 811 1341 c 0,30,31
 646 1341 646 1341 528 1261 c 0,32,33
 298 1104 298 1104 297 721 c 0,34,35
 297 314 297 314 562 175 c 1,27,-1
1096 1258 m 1,36,-1
 658 138 l 1,37,38
 727 120 727 120 809 120 c 0,39,40
 1066 120 1066 120 1196 291 c 0,41,42
 1320 454 1320 454 1320 721 c 0,43,44
 1320 1100 1320 1100 1096 1258 c 1,36,-1
EndSplineSet
EndChar

StartChar: Thorn
Encoding: 222 222 160
Width: 1051
Flags: W
LayerCount: 2
UndoRedoHistory
Layer: 1
Undoes
EndUndoes
Redoes
EndRedoes
EndUndoRedoHistory
Fore
SplineSet
340 1016 m 1,0,-1
 340 579 l 1,1,-1
 523 579 l 2,2,3
 688 579 688 579 750.5 628 c 128,-1,4
 813 677 813 677 813 803.5 c 128,-1,5
 813 930 813 930 743.5 973 c 128,-1,6
 674 1016 674 1016 529 1016 c 2,7,-1
 340 1016 l 1,0,-1
164 0 m 1,8,-1
 164 1460 l 1,9,-1
 340 1460 l 1,10,-1
 340 1141 l 1,11,-1
 530 1141 l 2,12,13
 742 1140 742 1140 860 1072 c 0,14,15
 989 997 989 997 989 815 c 0,16,17
 989 629 989 629 881.5 540 c 128,-1,18
 774 451 774 451 527 451 c 2,19,-1
 340 451 l 1,20,-1
 340 0 l 1,21,-1
 164 0 l 1,8,-1
EndSplineSet
EndChar

StartChar: germandbls
Encoding: 223 223 161
Width: 1132
Flags: W
LayerCount: 2
UndoRedoHistory
Layer: 1
Undoes
EndUndoes
Redoes
EndRedoes
EndUndoRedoHistory
Fore
SplineSet
298 0 m 1,0,-1
 134 0 l 1,1,-1
 134 1019 l 2,2,3
 134 1480 134 1480 553 1480 c 0,4,5
 720 1480 720 1480 820 1395 c 128,-1,6
 920 1310 920 1310 920 1171 c 0,7,8
 920 1060 920 1060 846 961 c 0,9,10
 816 920 816 920 785 885 c 0,11,12
 711 801 711 801 711 769.5 c 128,-1,13
 711 738 711 738 732 714 c 128,-1,14
 753 690 753 690 786 666.5 c 128,-1,15
 819 643 819 643 859.5 617 c 128,-1,16
 900 591 900 591 940.5 558 c 0,17,18
 981 526 981 526 1014 488 c 0,19,20
 1089 403 1089 403 1089 274 c 128,-1,21
 1089 145 1089 145 1002.5 62.5 c 128,-1,22
 916 -20 916 -20 767 -20 c 0,23,24
 590 -20 590 -20 438 56 c 1,25,-1
 482 178 l 1,26,27
 611 111 611 111 748 111 c 0,28,29
 838 111 838 111 883.5 160.5 c 128,-1,30
 929 210 929 210 929 271 c 128,-1,31
 929 332 929 332 901.5 377 c 128,-1,32
 874 422 874 422 833 454 c 128,-1,33
 792 486 792 486 744 521.5 c 128,-1,34
 696 557 696 557 655 587.5 c 128,-1,35
 614 618 614 618 586.5 660 c 128,-1,36
 559 702 559 702 559 747 c 128,-1,37
 559 792 559 792 580 833.5 c 128,-1,38
 601 875 601 875 631 910 c 128,-1,39
 661 945 661 945 691 981 c 0,40,41
 763 1067 763 1067 763 1161 c 128,-1,42
 763 1255 763 1255 710.5 1303.5 c 128,-1,43
 658 1352 658 1352 558 1352 c 0,44,45
 418 1352 418 1352 358 1276.5 c 128,-1,46
 298 1201 298 1201 298 1023 c 2,47,-1
 298 0 l 1,0,-1
EndSplineSet
EndChar

StartChar: ae
Encoding: 230 230 168
Width: 1709
Flags: W
LayerCount: 2
UndoRedoHistory
Layer: 1
Undoes
EndUndoes
Redoes
EndRedoes
EndUndoRedoHistory
Fore
SplineSet
187.5 63.5 m 128,-1,1
 97 147 97 147 97 304.5 c 128,-1,2
 97 462 97 462 220 534 c 128,-1,3
 343 606 343 606 601 606 c 2,4,-1
 764 606 l 1,5,-1
 764 722 l 2,6,7
 764 838 764 838 710 895.5 c 128,-1,8
 656 953 656 953 537 953 c 0,9,10
 329 953 329 953 184 879 c 1,11,-1
 138 1000 l 1,12,13
 309 1080 309 1080 517 1080 c 128,-1,14
 725 1080 725 1080 817 971 c 0,15,16
 865 914 865 914 875 830 c 1,17,18
 908 943 908 943 1013 1011.5 c 128,-1,19
 1118 1080 1118 1080 1241 1080 c 0,20,21
 1430 1080 1430 1080 1526 986 c 0,22,23
 1614 900 1614 900 1615 781 c 0,24,25
 1616 676 1616 676 1556 616 c 0,26,27
 1436 495 1436 495 919 495 c 1,28,29
 933 106 933 106 1256 106 c 0,30,31
 1348 106 1348 106 1419 126 c 128,-1,32
 1490 146 1490 146 1573 190 c 1,33,-1
 1608 73 l 1,34,35
 1455 -20 1455 -20 1247 -20 c 0,36,37
 994 -20 994 -20 873 162 c 1,38,39
 807 86 807 86 677 33 c 128,-1,40
 547 -20 547 -20 412.5 -20 c 128,-1,0
 278 -20 278 -20 187.5 63.5 c 128,-1,1
637 148.5 m 128,-1,42
 745 196 745 196 810 264 c 1,43,44
 768 365 768 365 766 496 c 1,45,-1
 611 496 l 2,46,47
 346 496 346 496 284 412 c 0,48,49
 254 372 254 372 253.5 288 c 128,-1,50
 253 204 253 204 302 152.5 c 128,-1,51
 351 101 351 101 440 101 c 128,-1,41
 529 101 529 101 637 148.5 c 128,-1,42
922 603 m 1,52,53
 1229 603 1229 603 1357 641.5 c 128,-1,54
 1485 680 1485 680 1485 780 c 0,55,56
 1485 858 1485 858 1421.5 905.5 c 128,-1,57
 1358 953 1358 953 1233 953 c 128,-1,58
 1108 953 1108 953 1023 863.5 c 128,-1,59
 938 774 938 774 922 603 c 1,52,53
EndSplineSet
EndChar

StartChar: eth
Encoding: 240 240 178
Width: 1244
Flags: W
LayerCount: 2
UndoRedoHistory
Layer: 1
Undoes
EndUndoes
Redoes
EndRedoes
EndUndoRedoHistory
Fore
SplineSet
406.5 21 m 0,0,1
 310 62 310 62 250 131 c 0,2,3
 124 274 124 274 125 478 c 0,4,5
 125 690 125 690 259.5 821.5 c 128,-1,6
 394 953 394 953 605 953 c 0,7,8
 642 952 642 952 684 946 c 0,9,10
 700 944 700 944 718 938.5 c 128,-1,11
 736 933 736 933 748 929 c 128,-1,12
 760 925 760 925 775.5 917 c 128,-1,13
 791 909 791 909 799 904.5 c 128,-1,14
 807 900 807 900 821.5 890 c 128,-1,15
 836 880 836 880 841.5 876.5 c 128,-1,16
 847 873 847 873 861 862 c 128,-1,17
 875 851 875 851 879 848 c 1,18,19
 787 1018 787 1018 544 1253 c 1,20,-1
 288 1155 l 1,21,-1
 241 1262 l 1,22,-1
 465 1348 l 1,23,-1
 249 1548 l 1,24,-1
 434 1548 l 1,25,-1
 589 1397 l 1,26,-1
 878 1506 l 1,27,-1
 926 1401 l 1,28,-1
 673 1307 l 1,29,30
 935 1030 935 1030 1030 850 c 0,31,32
 1115 687 1115 687 1115 480 c 0,33,34
 1114 262 1114 262 992 124 c 0,35,36
 932 56 932 56 836.5 18 c 128,-1,37
 741 -20 741 -20 621.5 -20 c 128,-1,38
 502 -20 502 -20 406.5 21 c 0,0,1
284 480.5 m 128,-1,40
 284 328 284 328 370.5 217 c 128,-1,41
 457 106 457 106 624 106 c 128,-1,42
 791 106 791 106 879 208 c 128,-1,43
 967 310 967 310 967 469 c 128,-1,44
 967 628 967 628 873.5 730.5 c 128,-1,45
 780 833 780 833 622.5 833 c 128,-1,46
 465 833 465 833 374.5 733 c 128,-1,39
 284 633 284 633 284 480.5 c 128,-1,40
EndSplineSet
EndChar

StartChar: divide
Encoding: 247 247 185
Width: 1204
Flags: W
LayerCount: 2
UndoRedoHistory
Layer: 1
Undoes
EndUndoes
Redoes
EndRedoes
EndUndoRedoHistory
Fore
SplineSet
507 32 m 1,0,-1
 507 233 l 1,1,-1
 698 233 l 1,2,-1
 698 32 l 1,3,-1
 507 32 l 1,0,-1
126 495 m 1,4,-1
 126 630 l 1,5,-1
 1077 630 l 1,6,-1
 1077 495 l 1,7,-1
 126 495 l 1,4,-1
507 871 m 1,8,-1
 507 1068 l 1,9,-1
 700 1068 l 1,10,-1
 700 871 l 1,11,-1
 507 871 l 1,8,-1
EndSplineSet
EndChar

StartChar: oslash
Encoding: 248 248 186
Width: 1165
Flags: W
LayerCount: 2
UndoRedoHistory
Layer: 1
Undoes
EndUndoes
Redoes
EndRedoes
EndUndoRedoHistory
Fore
SplineSet
1081 528 m 0,0,1
 1081 288 1081 288 944 134 c 0,2,3
 582 -272 582 -272 582 -20 c 1,4,5
 471 -20 471 -20 383 15 c 1,6,-1
 293 -150 l 1,7,-1
 228 -113 l 1,8,-1
 316 49 l 1,9,10
 262 82 262 82 218 132 c 0,11,12
 84 284 84 284 84 530.5 c 128,-1,13
 84 777 84 777 216.5 928.5 c 128,-1,14
 349 1080 349 1080 582 1080 c 0,15,16
 732 1080 732 1080 840 1018 c 1,17,-1
 947 1216 l 1,18,-1
 1018 1179 l 1,19,-1
 905 972 l 1,20,21
 1081 820 1081 820 1081 528 c 0,0,1
383 173 m 1,22,23
 773 894 l 1,24,25
 698 953 698 953 582 953 c 0,26,27
 422 953 422 953 338 836.5 c 128,-1,28
 254 720 254 720 254 527 c 0,29,30
 254 284 254 284 383 173 c 1,22,23
447 132 m 1,31,32
 506 106 506 106 599 106 c 128,-1,33
 692 106 692 106 768 162 c 0,34,35
 912 267 912 267 911 526 c 0,36,37
 911 718 911 718 830 834 c 1,38,-1
 447 132 l 1,31,32
EndSplineSet
EndChar

StartChar: thorn
Encoding: 254 254 192
Width: 1165
Flags: W
LayerCount: 2
UndoRedoHistory
Layer: 1
Undoes
EndUndoes
Redoes
EndRedoes
EndUndoRedoHistory
Fore
SplineSet
304 158 m 1,0,1
 304 -464 l 1,2,-1
 136 -464 l 1,3,-1
 136 1460 l 1,4,-1
 304 1472 l 1,5,-1
 304 1078 l 1,6,-1
 303 894 l 1,7,8
 359 979 359 979 444.5 1029.5 c 128,-1,9
 530 1080 530 1080 637 1080 c 0,10,11
 855 1080 855 1080 967 932 c 128,-1,12
 1079 784 1079 784 1079 530 c 128,-1,13
 1079 276 1079 276 962.5 128 c 128,-1,14
 846 -20 846 -20 637.5 -20 c 128,-1,15
 429 -20 429 -20 304 158 c 1,0,1
613 107 m 0,16,17
 909 107 909 107 909 530.5 c 128,-1,18
 909 954 909 954 621 954 c 0,19,20
 300 954 300 954 300 534 c 0,21,22
 300 330 300 330 381.5 218.5 c 128,-1,23
 463 107 463 107 613 107 c 0,16,17
EndSplineSet
EndChar

StartChar: Dcroat
Encoding: 272 272 205
Width: 1520
Flags: W
LayerCount: 2
UndoRedoHistory
Layer: 1
Undoes
EndUndoes
Redoes
EndRedoes
EndUndoRedoHistory
Fore
SplineSet
340 1328 m 1,0,-1
 340 784 l 1,1,-1
 579 784 l 1,2,-1
 579 694 l 1,3,-1
 340 694 l 1,4,-1
 340 134 l 1,5,-1
 597 134 l 2,6,7
 1184 134 1184 134 1184 738 c 0,8,9
 1184 1039 1184 1039 1027.5 1183.5 c 128,-1,10
 871 1328 871 1328 570 1328 c 2,11,-1
 340 1328 l 1,0,-1
164 0 m 1,12,-1
 164 694 l 1,13,-1
 61 694 l 1,14,-1
 61 784 l 1,15,-1
 164 784 l 1,16,-1
 164 1460 l 1,17,-1
 578 1460 l 2,18,19
 865 1460 865 1460 1053 1348 c 0,20,21
 1360 1166 1360 1166 1360 734 c 0,22,23
 1360 382 1360 382 1159 191 c 128,-1,24
 958 0 958 0 607 0 c 2,25,-1
 164 0 l 1,12,-1
EndSplineSet
EndChar

StartChar: Delta
Encoding: 916 916 206
Width: 1474
Flags: W
LayerCount: 2
UndoRedoHistory
Layer: 1
Undoes
EndUndoes
Redoes
EndRedoes
EndUndoRedoHistory
Fore
SplineSet
122 0 m 1,0,-1
 661 1446 l 1,1,-1
 827 1446 l 1,2,-1
 1368 0 l 1,3,-1
 122 0 l 1,0,-1
340 142 m 1,4,-1
 1154 142 l 1,5,-1
 744 1275 l 1,6,-1
 340 142 l 1,4,-1
EndSplineSet
EndChar

StartChar: Eng
Encoding: 330 330 211
Width: 1367
Flags: W
LayerCount: 2
UndoRedoHistory
Layer: 1
Undoes
EndUndoes
Redoes
EndRedoes
EndUndoRedoHistory
Fore
SplineSet
999 -294 m 128,-1,1
 927 -316 927 -316 846.5 -316 c 128,-1,2
 766 -316 766 -316 607 -301 c 1,3,-1
 585 -174 l 1,4,5
 755 -184 755 -184 800.5 -184 c 128,-1,6
 846 -184 846 -184 896 -178 c 128,-1,7
 946 -172 946 -172 981.5 -153.5 c 128,-1,8
 1017 -135 1017 -135 1036.5 -113 c 0,9,10
 1056 -92 1056 -92 1067 -46 c 0,11,12
 1083 20 1083 20 1083 169 c 2,13,-1
 1083 980 l 2,14,15
 1083 1176 1083 1176 1018.5 1252.5 c 128,-1,16
 954 1329 954 1329 789.5 1329 c 128,-1,17
 625 1329 625 1329 500 1252.5 c 128,-1,18
 375 1176 375 1176 295 1059 c 1,19,-1
 295 0 l 1,20,-1
 158 0 l 1,21,-1
 155 1460 l 1,22,-1
 282 1460 l 1,23,-1
 298 1238 l 1,24,25
 438 1385 438 1385 576 1433 c 0,26,27
 696 1475 696 1475 836 1475 c 0,28,29
 1025 1475 1025 1475 1122.5 1350 c 128,-1,30
 1220 1225 1220 1225 1220 984 c 2,31,-1
 1220 161 l 2,32,33
 1220 -28 1220 -28 1188 -112.5 c 128,-1,34
 1156 -197 1156 -197 1113.5 -234.5 c 128,-1,0
 1071 -272 1071 -272 999 -294 c 128,-1,1
EndSplineSet
EndChar

StartChar: Euro
Encoding: 8364 8364 214
Width: 1292
Flags: W
LayerCount: 2
UndoRedoHistory
Layer: 1
Undoes
EndUndoes
Redoes
EndRedoes
EndUndoRedoHistory
Fore
SplineSet
815 -19 m 0,0,1
 664 -20 664 -20 536 34 c 0,2,3
 223 164 223 164 142 524 c 1,4,-1
 17 524 l 1,5,-1
 25 633 l 1,6,-1
 125 633 l 1,7,8
 120 683 120 683 120 727.5 c 128,-1,9
 120 772 120 772 122 808 c 1,10,-1
 24 808 l 1,11,-1
 30 914 l 1,12,-1
 136 914 l 1,13,14
 194 1236 194 1236 444 1386 c 0,15,16
 600 1480 600 1480 826.5 1480 c 128,-1,17
 1053 1480 1053 1480 1209 1368 c 1,18,-1
 1151 1253 l 1,19,20
 1010 1341 1010 1341 821 1341 c 0,21,22
 578 1342 578 1342 438 1172 c 0,23,24
 349 1064 349 1064 316 914 c 1,25,-1
 890 914 l 1,26,-1
 882 808 l 1,27,-1
 300 808 l 1,28,29
 297 770 297 770 297 724.5 c 128,-1,30
 297 679 297 679 302 633 c 1,31,-1
 882 633 l 1,32,-1
 874 524 l 1,33,-1
 321 524 l 1,34,35
 356 387 356 387 442 288 c 0,36,37
 586 121 586 121 834 121 c 0,38,39
 995 121 995 121 1159 198 c 1,40,-1
 1200 67 l 1,41,42
 1031 -19 1031 -19 815 -19 c 0,0,1
EndSplineSet
EndChar

StartChar: Gamma
Encoding: 915 915 215
Width: 1209
Flags: W
LayerCount: 2
UndoRedoHistory
Layer: 1
Undoes
EndUndoes
Redoes
EndRedoes
EndUndoRedoHistory
Fore
SplineSet
229 0 m 1,0,-1
 229 1449 l 1,1,-1
 1081 1448 l 1,2,-1
 1076 1354 l 1,3,-1
 351 1355 l 1,4,-1
 351 0 l 1,5,-1
 229 0 l 1,0,-1
EndSplineSet
EndChar

StartChar: Hbar
Encoding: 294 294 221
Width: 1567
Flags: W
LayerCount: 2
UndoRedoHistory
Layer: 1
Undoes
EndUndoes
Redoes
EndRedoes
EndUndoRedoHistory
Fore
SplineSet
230 0 m 1,0,-1
 230 1106 l 1,1,-1
 141 1106 l 1,2,-1
 141 1199 l 1,3,-1
 230 1199 l 1,4,-1
 230 1452 l 1,5,-1
 377 1452 l 1,6,-1
 377 1199 l 1,7,-1
 1205 1199 l 1,8,-1
 1205 1452 l 1,9,-1
 1352 1452 l 1,10,-1
 1352 1199 l 1,11,-1
 1441 1199 l 1,12,-1
 1441 1106 l 1,13,-1
 1352 1106 l 1,14,-1
 1352 0 l 1,15,-1
 1205 0 l 1,16,-1
 1205 680 l 1,17,-1
 377 680 l 1,18,-1
 377 0 l 1,19,-1
 230 0 l 1,0,-1
377 818 m 1,20,-1
 1205 818 l 1,21,-1
 1205 1106 l 1,22,-1
 377 1106 l 1,23,-1
 377 818 l 1,20,-1
EndSplineSet
EndChar

StartChar: Lambda
Encoding: 923 923 232
Width: 1474
Flags: W
LayerCount: 2
UndoRedoHistory
Layer: 1
Undoes
EndUndoes
Redoes
EndRedoes
EndUndoRedoHistory
Fore
SplineSet
123 0 m 1,0,-1
 656 1446 l 1,1,-1
 833 1446 l 1,2,-1
 1368 0 l 1,3,-1
 1196 0 l 1,4,-1
 744 1270 l 1,5,-1
 299 0 l 1,6,-1
 123 0 l 1,0,-1
EndSplineSet
EndChar

StartChar: OE
Encoding: 338 338 240
Width: 1881
Flags: W
LayerCount: 2
UndoRedoHistory
Layer: 1
Undoes
EndUndoes
Redoes
EndRedoes
EndUndoRedoHistory
Fore
SplineSet
912 1326 m 1,0,-1
 883 1326 l 2,1,2
 296 1326 296 1326 296 722 c 0,3,4
 296 421 296 421 452.5 276.5 c 128,-1,5
 609 132 609 132 910 132 c 2,6,-1
 912 132 l 1,7,-1
 912 1326 l 1,0,-1
902 0 m 2,8,9
 615 0 615 0 427 112 c 0,10,11
 120 294 120 294 120 726 c 0,12,13
 120 1078 120 1078 321 1269 c 128,-1,14
 522 1460 522 1460 873 1460 c 2,15,-1
 1794 1460 l 1,16,-1
 1788 1328 l 1,17,-1
 1088 1328 l 1,18,-1
 1088 821 l 1,19,-1
 1726 821 l 1,20,-1
 1726 689 l 1,21,-1
 1088 689 l 1,22,-1
 1088 134 l 1,23,-1
 1809 134 l 1,24,-1
 1797 0 l 1,25,-1
 902 0 l 2,8,9
EndSplineSet
EndChar

StartChar: Omega
Encoding: 937 937 245
Width: 1598
Flags: W
LayerCount: 2
UndoRedoHistory
Layer: 1
Undoes
EndUndoes
Redoes
EndRedoes
EndUndoRedoHistory
Fore
SplineSet
811 154 m 128,-1,1
 1037 154 1037 154 1158.5 307.5 c 128,-1,2
 1280 461 1280 461 1280 715 c 128,-1,3
 1280 969 1280 969 1157 1124 c 128,-1,4
 1034 1279 1034 1279 811 1279 c 0,5,6
 662 1279 662 1279 554 1207 c 0,7,8
 340 1063 340 1063 340 712 c 0,9,10
 340 461 340 461 462.5 307.5 c 128,-1,0
 585 154 585 154 811 154 c 128,-1,1
1317 178.5 m 128,-1,12
 1132 -20 1132 -20 809.5 -20 c 128,-1,13
 487 -20 487 -20 303 177.5 c 128,-1,14
 119 375 119 375 119 715.5 c 128,-1,15
 119 1056 119 1056 304.5 1255.5 c 128,-1,16
 490 1455 490 1455 809.5 1455 c 128,-1,17
 1129 1455 1129 1455 1315.5 1254.5 c 128,-1,18
 1502 1054 1502 1054 1502 715.5 c 128,-1,11
 1502 377 1502 377 1317 178.5 c 128,-1,12
EndSplineSet
EndChar

StartChar: Phi
Encoding: 934 934 247
Width: 1644
Flags: W
LayerCount: 2
UndoRedoHistory
Layer: 1
Undoes
EndUndoes
Redoes
EndRedoes
EndUndoRedoHistory
Fore
SplineSet
744 0 m 1,0,-1
 744 166 l 1,1,2
 441 188 441 188 278 351 c 0,3,4
 121 508 121 508 121 748 c 128,-1,5
 121 988 121 988 285.5 1140.5 c 128,-1,6
 450 1293 450 1293 744 1314 c 1,7,-1
 744 1446 l 1,8,-1
 912 1446 l 1,9,-1
 912 1314 l 1,10,11
 1209 1295 1209 1295 1374 1142 c 128,-1,12
 1539 989 1539 989 1539 746.5 c 128,-1,13
 1539 504 1539 504 1376 345 c 128,-1,14
 1213 186 1213 186 912 166 c 1,15,-1
 912 0 l 1,16,-1
 744 0 l 1,0,-1
744 309 m 1,17,-1
 744 1171 l 1,18,19
 527 1151 527 1151 413.5 1038.5 c 128,-1,20
 300 926 300 926 300 747 c 0,21,22
 300 503 300 503 494 385 c 0,23,24
 596 323 596 323 744 309 c 1,17,-1
912 309 m 1,25,26
 1135 328 1135 328 1247.5 448 c 128,-1,27
 1360 568 1360 568 1360 747.5 c 128,-1,28
 1360 927 1360 927 1245.5 1039.5 c 128,-1,29
 1131 1152 1131 1152 912 1171 c 1,30,-1
 912 309 l 1,25,26
EndSplineSet
EndChar

StartChar: Pi
Encoding: 928 928 248
Width: 1415
Flags: W
LayerCount: 2
UndoRedoHistory
Layer: 1
Undoes
EndUndoes
Redoes
EndRedoes
EndUndoRedoHistory
Fore
SplineSet
147 0 m 1,0,-1
 147 1446 l 1,1,-1
 1285 1446 l 1,2,-1
 1285 0 l 1,3,-1
 1118 0 l 1,4,-1
 1118 1303 l 1,5,-1
 316 1303 l 1,6,-1
 316 0 l 1,7,-1
 147 0 l 1,0,-1
EndSplineSet
EndChar

StartChar: Sigma
Encoding: 931 931 257
Width: 1143
Flags: W
LayerCount: 2
UndoRedoHistory
Layer: 1
Undoes
EndUndoes
Redoes
EndRedoes
EndUndoRedoHistory
Fore
SplineSet
147 0 m 1,0,-1
 147 1433 l 1,1,-1
 1011 1433 l 1,2,-1
 1004 1299 l 1,3,-1
 305 1299 l 1,4,-1
 305 808 l 1,5,-1
 944 808 l 1,6,-1
 944 675 l 1,7,-1
 305 675 l 1,8,-1
 305 134 l 1,9,-1
 1009 134 l 1,10,-1
 1001 0 l 1,11,-1
 147 0 l 1,0,-1
EndSplineSet
EndChar

StartChar: breve
Encoding: 728 728 286
Width: 736
Flags: W
LayerCount: 2
UndoRedoHistory
Layer: 1
Undoes
EndUndoes
Redoes
EndRedoes
EndUndoRedoHistory
Fore
SplineSet
199 1284.5 m 128,-1,1
 134 1342 134 1342 134 1460 c 1,2,-1
 236 1460 l 1,3,4
 236 1392 236 1392 272.5 1358.5 c 128,-1,5
 309 1325 309 1325 365 1325 c 128,-1,6
 421 1325 421 1325 459.5 1358.5 c 128,-1,7
 498 1392 498 1392 498 1460 c 1,8,-1
 600 1460 l 1,9,10
 600 1343 600 1343 533.5 1285 c 128,-1,11
 467 1227 467 1227 365.5 1227 c 128,-1,0
 264 1227 264 1227 199 1284.5 c 128,-1,1
EndSplineSet
EndChar

StartChar: bullet
Encoding: 8226 8226 287
Width: 831
Flags: W
LayerCount: 2
UndoRedoHistory
Layer: 1
Undoes
EndUndoes
Redoes
EndRedoes
EndUndoRedoHistory
Fore
SplineSet
646.5 501 m 128,-1,1
 553 413 553 413 422.5 413 c 128,-1,2
 292 413 292 413 201 499 c 128,-1,3
 110 585 110 585 110 733 c 128,-1,4
 110 881 110 881 203.5 969.5 c 128,-1,5
 297 1058 297 1058 427 1058 c 0,6,7
 608 1058 608 1058 696 910 c 0,8,9
 740 836 740 836 740 737 c 0,10,0
 740 589 740 589 646.5 501 c 128,-1,1
EndSplineSet
EndChar

StartChar: caron
Encoding: 711 711 289
Width: 775
Flags: W
LayerCount: 2
UndoRedoHistory
Layer: 1
Undoes
EndUndoes
Redoes
EndRedoes
EndUndoRedoHistory
Fore
SplineSet
276 1097 m 1,0,-1
 104 1460 l 1,1,-1
 222 1460 l 1,2,-1
 366 1193 l 1,3,-1
 527 1460 l 1,4,-1
 646 1460 l 1,5,-1
 461 1097 l 1,6,-1
 276 1097 l 1,0,-1
EndSplineSet
EndChar

StartChar: circumflex
Encoding: 710 710 293
Width: 775
Flags: W
LayerCount: 2
UndoRedoHistory
Layer: 1
Undoes
EndUndoes
Redoes
EndRedoes
EndUndoRedoHistory
Fore
SplineSet
108 1087 m 1,0,-1
 288 1460 l 1,1,-1
 475 1460 l 1,2,-1
 643 1087 l 1,3,-1
 531 1087 l 1,4,-1
 377 1361 l 1,5,-1
 219 1087 l 1,6,-1
 108 1087 l 1,0,-1
EndSplineSet
EndChar

StartChar: dagger
Encoding: 8224 8224 294
Width: 911
Flags: W
LayerCount: 2
UndoRedoHistory
Layer: 1
Undoes
EndUndoes
Redoes
EndRedoes
EndUndoRedoHistory
Fore
SplineSet
400 118 m 1,0,-1
 400 988 l 1,1,-1
 113 988 l 1,2,-1
 113 1087 l 1,3,-1
 400 1087 l 1,4,-1
 400 1460 l 1,5,-1
 507 1460 l 1,6,-1
 507 1087 l 1,7,-1
 800 1087 l 1,8,-1
 800 988 l 1,9,-1
 509 988 l 1,10,-1
 509 118 l 1,11,-1
 400 118 l 1,0,-1
EndSplineSet
EndChar

StartChar: daggerdbl
Encoding: 8225 8225 295
Width: 979
Flags: W
LayerCount: 2
UndoRedoHistory
Layer: 1
Undoes
EndUndoes
Redoes
EndRedoes
EndUndoRedoHistory
Fore
SplineSet
788 443 m 1,0,-1
 517 443 l 1,1,-1
 517 79 l 1,2,-1
 406 79 l 1,3,-1
 406 443 l 1,4,-1
 130 443 l 1,5,-1
 130 536 l 1,6,-1
 406 536 l 1,7,-1
 406 968 l 1,8,-1
 130 968 l 1,9,-1
 130 1065 l 1,10,-1
 406 1065 l 1,11,-1
 406 1441 l 1,12,-1
 513 1441 l 1,13,-1
 513 1065 l 1,14,-1
 789 1065 l 1,15,-1
 789 968 l 1,16,-1
 517 968 l 1,17,-1
 517 536 l 1,18,-1
 788 536 l 1,19,-1
 788 443 l 1,0,-1
EndSplineSet
EndChar

StartChar: dcroat
Encoding: 273 273 297
Width: 1276
Flags: W
LayerCount: 2
UndoRedoHistory
Layer: 1
Undoes
EndUndoes
Redoes
EndRedoes
EndUndoRedoHistory
Fore
SplineSet
879 890 m 1,0,1
 871 1131 l 1,2,-1
 871 1232 l 1,3,-1
 694 1232 l 1,4,-1
 694 1341 l 1,5,-1
 871 1341 l 1,6,-1
 871 1460 l 1,7,-1
 1037 1472 l 1,8,-1
 1037 1341 l 1,9,-1
 1189 1341 l 1,10,-1
 1189 1232 l 1,11,-1
 1037 1232 l 1,12,-1
 1037 0 l 1,13,-1
 899 0 l 1,14,-1
 884 187 l 1,15,16
 781 -20 781 -20 558 -20 c 128,-1,17
 335 -20 335 -20 216.5 130.5 c 128,-1,18
 98 281 98 281 98 530.5 c 128,-1,19
 98 780 98 780 220.5 930 c 128,-1,20
 343 1080 343 1080 553 1080 c 0,21,22
 620 1080 620 1080 673 1066 c 0,23,24
 802 1032 802 1032 879 890 c 1,0,1
577 953 m 0,25,26
 422 953 422 953 344 843.5 c 128,-1,27
 266 734 266 734 266 534.5 c 128,-1,28
 266 335 266 335 339.5 221 c 128,-1,29
 413 107 413 107 572 107 c 128,-1,30
 731 107 731 107 803 214 c 128,-1,31
 875 321 875 321 876 518 c 1,32,33
 876 953 876 953 577 953 c 0,25,26
EndSplineSet
EndChar

StartChar: dotaccent
Encoding: 729 729 298
Width: 365
Flags: W
LayerCount: 2
UndoRedoHistory
Layer: 1
Undoes
EndUndoes
Redoes
EndRedoes
EndUndoRedoHistory
Fore
SplineSet
110 1289 m 1,0,-1
 110 1460 l 1,1,-1
 261 1460 l 1,2,-1
 261 1289 l 1,3,-1
 110 1289 l 1,0,-1
EndSplineSet
EndChar

StartChar: dotlessi
Encoding: 305 305 299
Width: 427
Flags: W
LayerCount: 2
UndoRedoHistory
Layer: 1
Undoes
EndUndoes
Redoes
EndRedoes
EndUndoRedoHistory
Fore
SplineSet
164 0 m 1,0,-1
 164 1058 l 1,1,-1
 328 1058 l 1,2,-1
 328 0 l 1,3,-1
 164 0 l 1,0,-1
EndSplineSet
EndChar

StartChar: ellipsis
Encoding: 8230 8230 303
Width: 1448
Flags: W
LayerCount: 2
UndoRedoHistory
Layer: 1
Undoes
EndUndoes
Redoes
EndRedoes
EndUndoRedoHistory
Fore
SplineSet
244 -12 m 128,-1,1
 183 -12 183 -12 148.5 26.5 c 128,-1,2
 114 65 114 65 114 117 c 128,-1,3
 114 169 114 169 148 207 c 128,-1,4
 182 245 182 245 244 245 c 128,-1,5
 306 245 306 245 339.5 207 c 128,-1,6
 373 169 373 169 373 117 c 128,-1,7
 373 65 373 65 339 26.5 c 128,-1,0
 305 -12 305 -12 244 -12 c 128,-1,1
821 26.5 m 128,-1,9
 787 -12 787 -12 725.5 -12 c 128,-1,10
 664 -12 664 -12 630 26.5 c 128,-1,11
 596 65 596 65 596 117 c 128,-1,12
 596 169 596 169 630 207 c 128,-1,13
 664 245 664 245 725.5 245 c 128,-1,14
 787 245 787 245 821 207 c 128,-1,15
 855 169 855 169 855 117 c 128,-1,8
 855 65 855 65 821 26.5 c 128,-1,9
1302 26.5 m 128,-1,17
 1268 -12 1268 -12 1206.5 -12 c 128,-1,18
 1145 -12 1145 -12 1110.5 26.5 c 128,-1,19
 1076 65 1076 65 1076 117 c 128,-1,20
 1076 169 1076 169 1110 207 c 128,-1,21
 1144 245 1144 245 1206 245 c 128,-1,22
 1268 245 1268 245 1302 207 c 128,-1,23
 1336 169 1336 169 1336 117 c 128,-1,16
 1336 65 1336 65 1302 26.5 c 128,-1,17
EndSplineSet
EndChar

StartChar: emdash
Encoding: 8212 8212 305
Width: 2356
Flags: W
LayerCount: 2
UndoRedoHistory
Layer: 1
Undoes
EndUndoes
Redoes
EndRedoes
EndUndoRedoHistory
Fore
SplineSet
132 521 m 1,0,-1
 132 655 l 1,1,-1
 2244 655 l 1,2,-1
 2244 521 l 1,3,-1
 132 521 l 1,0,-1
EndSplineSet
EndChar

StartChar: endash
Encoding: 8211 8211 306
Width: 1236
Flags: W
LayerCount: 2
UndoRedoHistory
Layer: 1
Undoes
EndUndoes
Redoes
EndRedoes
EndUndoRedoHistory
Fore
SplineSet
119 521 m 1,0,-1
 119 655 l 1,1,-1
 1123 655 l 1,2,-1
 1123 521 l 1,3,-1
 119 521 l 1,0,-1
EndSplineSet
EndChar

StartChar: eng
Encoding: 331 331 307
Width: 1163
Flags: W
LayerCount: 2
UndoRedoHistory
Layer: 1
Undoes
EndUndoes
Redoes
EndRedoes
EndUndoRedoHistory
Fore
SplineSet
629 -282 m 1,0,-1
 621 -133 l 1,1,-1
 656 -133 l 2,2,3
 702 -133 702 -133 746.5 -129 c 0,4,5
 791 -124 791 -124 816 -92 c 0,6,7
 846 -52 846 -52 846 109 c 2,8,-1
 846 665 l 2,9,10
 846 810 846 810 801.5 881.5 c 128,-1,11
 757 953 757 953 637 953 c 0,12,13
 393 953 393 953 339 725 c 1,14,15
 332 650 332 650 332 590 c 2,16,-1
 332 0 l 1,17,-1
 165 0 l 1,18,-1
 165 1059 l 1,19,-1
 309 1059 l 1,20,-1
 328 902 l 1,21,22
 439 1080 439 1080 665 1080 c 0,23,24
 846 1080 846 1080 929 973 c 128,-1,25
 1012 866 1012 866 1012 647 c 2,26,-1
 1012 161 l 2,27,28
 1012 65 1012 65 1006 1 c 0,29,30
 990 -152 990 -152 926 -212 c 0,31,32
 851 -282 851 -282 696 -282 c 2,33,-1
 629 -282 l 1,0,-1
EndSplineSet
EndChar

StartChar: fraction
Encoding: 8260 8260 309
Width: 1139
Flags: W
LayerCount: 2
UndoRedoHistory
Layer: 1
Undoes
EndUndoes
Redoes
EndRedoes
EndUndoRedoHistory
Fore
SplineSet
127 0 m 1,0,-1
 906 1460 l 1,1,-1
 1034 1460 l 1,2,-1
 264 0 l 1,3,-1
 127 0 l 1,0,-1
EndSplineSet
EndChar

StartChar: greaterequal
Encoding: 8805 8805 314
Width: 1176
Flags: W
LayerCount: 2
UndoRedoHistory
Layer: 1
Undoes
EndUndoes
Redoes
EndRedoes
EndUndoRedoHistory
Fore
SplineSet
158 230 m 1,0,-1
 158 364 l 1,1,-1
 868 740 l 1,2,-1
 162 1141 l 1,3,-1
 162 1277 l 1,4,-1
 1043 779 l 1,5,-1
 1043 701 l 1,6,-1
 158 230 l 1,0,-1
128 8 m 1,7,-1
 128 130 l 1,8,-1
 1062 131 l 1,9,-1
 1062 8 l 1,10,-1
 128 8 l 1,7,-1
EndSplineSet
EndChar

StartChar: guilsinglleft
Encoding: 8249 8249 315
Width: 599
Flags: W
LayerCount: 2
UndoRedoHistory
Layer: 1
Undoes
EndUndoes
Redoes
EndRedoes
EndUndoRedoHistory
Fore
SplineSet
525 980 m 1,0,-1
 235 559 l 1,1,-1
 519 148 l 1,2,-1
 388 148 l 1,3,-1
 95 560 l 1,4,-1
 393 980 l 1,5,-1
 525 980 l 1,0,-1
EndSplineSet
EndChar

StartChar: guilsinglright
Encoding: 8250 8250 316
Width: 607
Flags: W
LayerCount: 2
UndoRedoHistory
Layer: 1
Undoes
EndUndoes
Redoes
EndRedoes
EndUndoRedoHistory
Fore
SplineSet
111 148 m 1,0,-1
 401 568 l 1,1,-1
 117 980 l 1,2,-1
 248 980 l 1,3,-1
 542 568 l 1,4,-1
 244 148 l 1,5,-1
 111 148 l 1,0,-1
EndSplineSet
EndChar

StartChar: hbar
Encoding: 295 295 317
Width: 1207
Flags: W
LayerCount: 2
UndoRedoHistory
Layer: 1
Undoes
EndUndoes
Redoes
EndRedoes
EndUndoRedoHistory
Fore
SplineSet
234 0 m 1,0,-1
 234 1239 l 1,1,-1
 145 1239 l 1,2,-1
 145 1344 l 1,3,-1
 234 1344 l 1,4,-1
 234 1440 l 1,5,-1
 374 1460 l 1,6,-1
 374 1344 l 1,7,-1
 638 1344 l 1,8,-1
 638 1239 l 1,9,-1
 374 1239 l 1,10,-1
 374 909 l 1,11,12
 519 1087 519 1087 765 1087 c 0,13,14
 1078 1087 1078 1087 1078 641 c 2,15,-1
 1078 0 l 1,16,-1
 938 0 l 1,17,-1
 938 589 l 2,18,19
 938 833 938 833 875 901 c 0,20,21
 822 958 822 958 712 958 c 0,22,23
 588 958 588 958 490 883 c 128,-1,24
 392 808 392 808 374 724 c 1,25,-1
 374 0 l 1,26,-1
 234 0 l 1,0,-1
EndSplineSet
EndChar

StartChar: hungarumlaut
Encoding: 733 733 319
Width: 746
Flags: W
LayerCount: 2
UndoRedoHistory
Layer: 1
Undoes
EndUndoes
Redoes
EndRedoes
EndUndoRedoHistory
Fore
SplineSet
114 1058 m 1,0,-1
 264 1460 l 1,1,-1
 420 1460 l 1,2,-1
 198 1058 l 1,3,-1
 114 1058 l 1,0,-1
350 1058 m 1,4,-1
 531 1460 l 1,5,-1
 696 1460 l 1,6,-1
 436 1058 l 1,7,-1
 350 1058 l 1,4,-1
EndSplineSet
EndChar

StartChar: infinity
Encoding: 8734 8734 323
Width: 1735
Flags: W
LayerCount: 2
UndoRedoHistory
Layer: 1
Undoes
EndUndoes
Redoes
EndRedoes
EndUndoRedoHistory
Fore
SplineSet
462 247 m 0,0,1
 302 247 302 247 207.5 361 c 128,-1,2
 113 475 113 475 113 631 c 128,-1,3
 113 787 113 787 213.5 888.5 c 128,-1,4
 314 990 314 990 445 990 c 128,-1,5
 576 990 576 990 673 922.5 c 128,-1,6
 770 855 770 855 868 725 c 1,7,8
 961 853 961 853 1057.5 921.5 c 128,-1,9
 1154 990 1154 990 1273 990 c 0,10,11
 1435 990 1435 990 1526 889 c 128,-1,12
 1617 788 1617 788 1617 624 c 128,-1,13
 1617 460 1617 460 1517.5 353.5 c 128,-1,14
 1418 247 1418 247 1271 247 c 0,15,16
 1162 247 1162 247 1066 311.5 c 128,-1,17
 970 376 970 376 868 511 c 1,18,19
 772 384 772 384 674.5 315.5 c 128,-1,20
 577 247 577 247 462 247 c 0,0,1
464 371 m 0,21,22
 628 371 628 371 798 620 c 1,23,24
 639 870 639 870 457 870 c 0,25,26
 352 870 352 870 288 798 c 128,-1,27
 224 726 224 726 224 624.5 c 128,-1,28
 224 523 224 523 292 447 c 128,-1,29
 360 371 360 371 464 371 c 0,21,22
1109.5 430.5 m 128,-1,31
 1185 371 1185 371 1283.5 371 c 128,-1,32
 1382 371 1382 371 1439.5 448 c 128,-1,33
 1497 525 1497 525 1497 632 c 128,-1,34
 1497 739 1497 739 1432 804.5 c 128,-1,35
 1367 870 1367 870 1271.5 870 c 128,-1,36
 1176 870 1176 870 1095.5 802.5 c 128,-1,37
 1015 735 1015 735 938 622 c 1,38,30
 1034 490 1034 490 1109.5 430.5 c 128,-1,31
EndSplineSet
EndChar

StartChar: integral
Encoding: 8747 8747 324
Width: 719
Flags: W
LayerCount: 2
UndoRedoHistory
Layer: 1
Undoes
EndUndoes
Redoes
EndRedoes
EndUndoRedoHistory
Fore
SplineSet
162 -411 m 0,0,1
 110 -411 110 -411 51 -398 c 1,2,-1
 51 -306 l 1,3,4
 103 -319 103 -319 145 -319 c 128,-1,5
 187 -319 187 -319 215.5 -305.5 c 128,-1,6
 244 -292 244 -292 261 -270.5 c 0,7,8
 278 -248 278 -248 288 -212 c 0,9,10
 304 -152 304 -152 303 -49 c 2,11,-1
 303 1115 l 2,12,13
 303 1296 303 1296 357 1383 c 128,-1,14
 411 1470 411 1470 536 1470 c 0,15,16
 587 1470 587 1470 653 1455 c 1,17,-1
 653 1363 l 1,18,19
 599 1378 599 1378 560 1378 c 0,20,21
 478 1378 478 1378 448.5 1315.5 c 128,-1,22
 419 1253 419 1253 419 1124 c 2,23,-1
 419 -41 l 2,24,25
 419 -225 419 -225 357 -318 c 128,-1,26
 295 -411 295 -411 162 -411 c 0,0,1
EndSplineSet
EndChar

StartChar: lessequal
Encoding: 8804 8804 333
Width: 1179
Flags: W
LayerCount: 2
UndoRedoHistory
Layer: 1
Undoes
EndUndoes
Redoes
EndRedoes
EndUndoRedoHistory
Fore
SplineSet
1035 252 m 1,0,-1
 158 711 l 1,1,-1
 158 791 l 1,2,-1
 1035 1274 l 1,3,-1
 1035 1137 l 1,4,-1
 336 752 l 1,5,-1
 1035 387 l 1,6,-1
 1035 252 l 1,0,-1
123 1 m 1,7,-1
 123 118 l 1,8,-1
 1064 118 l 1,9,-1
 1064 1 l 1,10,-1
 123 1 l 1,7,-1
EndSplineSet
EndChar

StartChar: lozenge
Encoding: 9674 9674 334
Width: 1143
Flags: W
LayerCount: 2
UndoRedoHistory
Layer: 1
Undoes
EndUndoes
Redoes
EndRedoes
EndUndoRedoHistory
Fore
SplineSet
520 -47 m 1,0,-1
 112 747 l 1,1,-1
 527 1545 l 1,2,-1
 628 1545 l 1,3,-1
 1036 749 l 1,4,-1
 620 -47 l 1,5,-1
 520 -47 l 1,0,-1
568 89 m 1,6,7
 712 353 712 353 928 747 c 1,8,9
 648 1271 648 1271 580 1402 c 1,10,11
 548 1345 548 1345 220 749 c 1,12,13
 265 665 265 665 383 437 c 128,-1,14
 501 209 501 209 568 89 c 1,6,7
EndSplineSet
EndChar

StartChar: middot
Encoding: 65538 -1 335
Width: 398
Flags: W
LayerCount: 2
UndoRedoHistory
Layer: 1
Undoes
EndUndoes
Redoes
EndRedoes
EndUndoRedoHistory
Fore
SplineSet
114 547 m 1,0,-1
 114 739 l 1,1,-1
 278 739 l 1,2,-1
 278 547 l 1,3,-1
 114 547 l 1,0,-1
EndSplineSet
EndChar

StartChar: minus
Encoding: 8722 8722 336
Width: 1148
Flags: W
LayerCount: 2
UndoRedoHistory
Layer: 1
Undoes
EndUndoes
Redoes
EndRedoes
EndUndoRedoHistory
Fore
SplineSet
87 528 m 1,0,-1
 87 663 l 1,1,-1
 1045 663 l 1,2,-1
 1045 528 l 1,3,-1
 87 528 l 1,0,-1
EndSplineSet
EndChar

StartChar: mu
Encoding: 956 956 337
Width: 1125
Flags: W
LayerCount: 2
UndoRedoHistory
Layer: 1
Undoes
EndUndoes
Redoes
EndRedoes
EndUndoRedoHistory
Fore
SplineSet
992 1058 m 1,0,-1
 992 0 l 1,1,-1
 848 0 l 1,2,-1
 831 139 l 1,3,4
 780 59 780 59 704.5 19.5 c 128,-1,5
 629 -20 629 -20 502 -20 c 128,-1,6
 375 -20 375 -20 292 29 c 1,7,-1
 292 -464 l 1,8,-1
 126 -464 l 1,9,-1
 126 1058 l 1,10,-1
 292 1058 l 1,11,-1
 292 394 l 2,12,13
 292 253 292 253 344.5 180 c 128,-1,14
 397 107 397 107 519 107 c 0,15,16
 826 107 826 107 826 464 c 2,17,-1
 826 1058 l 1,18,-1
 992 1058 l 1,0,-1
EndSplineSet
EndChar

StartChar: notequal
Encoding: 8800 8800 342
Width: 1160
Flags: W
LayerCount: 2
UndoRedoHistory
Layer: 1
Undoes
EndUndoes
Redoes
EndRedoes
EndUndoRedoHistory
Fore
SplineSet
361 48 m 1,0,-1
 267 65 l 1,1,-1
 382 346 l 1,2,-1
 128 346 l 1,3,-1
 122 461 l 1,4,-1
 439 461 l 1,5,-1
 596 770 l 1,6,-1
 128 770 l 1,7,-1
 121 886 l 1,8,-1
 648 886 l 1,9,-1
 786 1174 l 1,10,-1
 882 1161 l 1,11,-1
 768 886 l 1,12,-1
 1039 886 l 1,13,-1
 1048 770 l 1,14,-1
 717 770 l 1,15,-1
 555 460 l 1,16,-1
 1042 460 l 1,17,-1
 1048 346 l 1,18,-1
 504 346 l 1,19,-1
 361 48 l 1,0,-1
EndSplineSet
EndChar

StartChar: ogonek
Encoding: 731 731 344
Width: 570
Flags: W
LayerCount: 2
UndoRedoHistory
Layer: 1
Undoes
EndUndoes
Redoes
EndRedoes
EndUndoRedoHistory
Fore
SplineSet
448 -381 m 1,0,1
 386 -410 386 -410 299 -410 c 128,-1,2
 212 -410 212 -410 163.5 -371 c 128,-1,3
 115 -332 115 -332 115 -257.5 c 128,-1,4
 115 -183 115 -183 177.5 -105.5 c 128,-1,5
 240 -28 240 -28 321 4 c 1,6,-1
 401 4 l 1,7,8
 351 -31 351 -31 303 -101.5 c 128,-1,9
 255 -172 255 -172 255 -225 c 0,10,11
 256 -304 256 -304 346 -304 c 0,12,13
 390 -304 390 -304 446 -280 c 1,14,-1
 448 -381 l 1,0,1
EndSplineSet
EndChar

StartChar: onesuperior
Encoding: 65539 -1 349
Width: 780
Flags: W
LayerCount: 2
UndoRedoHistory
Layer: 1
Undoes
EndUndoes
Redoes
EndRedoes
EndUndoRedoHistory
Fore
SplineSet
421 1460 m 1,0,1
 531 1460 l 1,2,-1
 531 707 l 1,3,-1
 670 707 l 1,4,-1
 670 598 l 1,5,-1
 239 598 l 1,6,-1
 239 707 l 1,7,-1
 393 707 l 1,8,-1
 393 1320 l 1,9,10
 340 1287 340 1287 229 1248 c 1,11,-1
 229 1359 l 1,12,13
 369 1411 369 1411 421 1460 c 1,0,1
EndSplineSet
EndChar

StartChar: partialdiff
Encoding: 8706 8706 351
Width: 1182
Flags: W
LayerCount: 2
UndoRedoHistory
Layer: 1
Undoes
EndUndoes
Redoes
EndRedoes
EndUndoRedoHistory
Fore
SplineSet
905 877 m 1,0,-1
 906 954 l 1,1,2
 906 1195 906 1195 822 1331 c 128,-1,3
 738 1467 738 1467 591.5 1467 c 128,-1,4
 445 1467 445 1467 306 1369 c 1,5,-1
 293 1512 l 1,6,7
 432 1608 432 1608 606 1608 c 0,8,9
 1054 1608 1054 1608 1054 892 c 0,10,11
 1054 600 1054 600 972 373 c 0,12,13
 881 122 881 122 713 26 c 0,14,15
 621 -26 621 -26 516 -26.5 c 128,-1,16
 411 -27 411 -27 336 8.5 c 128,-1,17
 261 44 261 44 215 108 c 0,18,19
 123 236 123 236 123 423.5 c 128,-1,20
 123 611 123 611 183.5 750 c 128,-1,21
 244 889 244 889 354 969 c 128,-1,22
 464 1049 464 1049 602 1049 c 0,23,24
 802 1049 802 1049 905 877 c 1,0,-1
332.5 204 m 128,-1,26
 399 116 399 116 505.5 116 c 128,-1,27
 612 116 612 116 695 194 c 0,28,29
 858 347 858 347 892 687 c 1,30,31
 864 783 864 783 795 847 c 128,-1,32
 726 911 726 911 627 911 c 0,33,34
 477 911 477 911 371.5 771.5 c 128,-1,35
 266 632 266 632 266 439 c 0,36,25
 266 292 266 292 332.5 204 c 128,-1,26
EndSplineSet
EndChar

StartChar: perthousand
Encoding: 8240 8240 352
Width: 2278
Flags: W
LayerCount: 2
UndoRedoHistory
Layer: 1
Undoes
EndUndoes
Redoes
EndRedoes
EndUndoRedoHistory
Fore
SplineSet
284.5 965.5 m 128,-1,1
 327 895 327 895 406 895 c 128,-1,2
 485 895 485 895 527 967 c 128,-1,3
 569 1039 569 1039 569 1149.5 c 128,-1,4
 569 1260 569 1260 527 1330.5 c 128,-1,5
 485 1401 485 1401 405 1401 c 128,-1,6
 325 1401 325 1401 283.5 1329 c 128,-1,7
 242 1257 242 1257 242 1146.5 c 128,-1,0
 242 1036 242 1036 284.5 965.5 c 128,-1,1
616.5 878.5 m 128,-1,9
 539 775 539 775 403 775 c 128,-1,10
 267 775 267 775 191.5 876.5 c 128,-1,11
 116 978 116 978 116 1145.5 c 128,-1,12
 116 1313 116 1313 192.5 1415.5 c 128,-1,13
 269 1518 269 1518 407 1518 c 128,-1,14
 545 1518 545 1518 619.5 1418.5 c 128,-1,15
 694 1319 694 1319 694 1150.5 c 128,-1,8
 694 982 694 982 616.5 878.5 c 128,-1,9
263 -21 m 1,16,-1
 1097 1507 l 1,17,-1
 1250 1507 l 1,18,-1
 395 -21 l 1,19,-1
 263 -21 l 1,16,-1
945 162 m 128,-1,21
 995 91 995 91 1087.5 91 c 128,-1,22
 1180 91 1180 91 1231 164.5 c 128,-1,23
 1282 238 1282 238 1282 347.5 c 128,-1,24
 1282 457 1282 457 1233 525.5 c 128,-1,25
 1184 594 1184 594 1089.5 594 c 128,-1,26
 995 594 995 594 945 523 c 128,-1,27
 895 452 895 452 895 342.5 c 128,-1,20
 895 233 895 233 945 162 c 128,-1,21
1086 -29 m 128,-1,29
 930 -29 930 -29 848.5 71.5 c 128,-1,30
 767 172 767 172 767 342 c 128,-1,31
 767 512 767 512 849 614 c 128,-1,32
 931 716 931 716 1089 716 c 128,-1,33
 1247 716 1247 716 1327 616.5 c 128,-1,34
 1407 517 1407 517 1407 347 c 128,-1,35
 1407 177 1407 177 1324.5 74 c 128,-1,28
 1242 -29 1242 -29 1086 -29 c 128,-1,29
1695 161.5 m 128,-1,37
 1746 91 1746 91 1840.5 91 c 128,-1,38
 1935 91 1935 91 1986 164 c 128,-1,39
 2037 237 2037 237 2037 345 c 128,-1,40
 2037 453 2037 453 1985 523.5 c 128,-1,41
 1933 594 1933 594 1839 594 c 128,-1,42
 1745 594 1745 594 1694.5 523.5 c 128,-1,43
 1644 453 1644 453 1644 342.5 c 128,-1,36
 1644 232 1644 232 1695 161.5 c 128,-1,37
2076 74 m 128,-1,45
 1993 -29 1993 -29 1837.5 -29 c 128,-1,46
 1682 -29 1682 -29 1601 71.5 c 128,-1,47
 1520 172 1520 172 1520 341.5 c 128,-1,48
 1520 511 1520 511 1603 613.5 c 128,-1,49
 1686 716 1686 716 1843 716 c 128,-1,50
 2000 716 2000 716 2079.5 617.5 c 128,-1,51
 2159 519 2159 519 2159 348 c 128,-1,44
 2159 177 2159 177 2076 74 c 128,-1,45
EndSplineSet
EndChar

StartChar: product
Encoding: 8719 8719 353
Width: 1428
Flags: W
LayerCount: 2
UndoRedoHistory
Layer: 1
Undoes
EndUndoes
Redoes
EndRedoes
EndUndoRedoHistory
Fore
SplineSet
146 0 m 1,0,-1
 146 1460 l 1,1,-1
 1284 1460 l 1,2,-1
 1284 0 l 1,3,-1
 1112 0 l 1,4,-1
 1112 1313 l 1,5,-1
 319 1313 l 1,6,-1
 319 0 l 1,7,-1
 146 0 l 1,0,-1
EndSplineSet
EndChar

StartChar: quotedblbase
Encoding: 8222 8222 354
Width: 708
Flags: W
LayerCount: 2
UndoRedoHistory
Layer: 1
Undoes
EndUndoes
Redoes
EndRedoes
EndUndoRedoHistory
Fore
SplineSet
125 -248 m 1,0,-1
 207 204 l 1,1,-1
 343 204 l 1,2,-1
 223 -248 l 1,3,-1
 125 -248 l 1,0,-1
387 -248 m 1,4,-1
 468 204 l 1,5,-1
 608 204 l 1,6,-1
 483 -248 l 1,7,-1
 387 -248 l 1,4,-1
EndSplineSet
EndChar

StartChar: quotedblleft
Encoding: 8220 8220 355
Width: 762
Flags: W
LayerCount: 2
UndoRedoHistory
Layer: 1
Undoes
EndUndoes
Redoes
EndRedoes
EndUndoRedoHistory
Fore
SplineSet
278 1086 m 1,0,-1
 127 1019 l 1,1,-1
 236 1533 l 1,2,-1
 354 1599 l 1,3,-1
 278 1086 l 1,0,-1
585 1086 m 1,4,-1
 428 1019 l 1,5,-1
 540 1533 l 1,6,-1
 653 1599 l 1,7,-1
 585 1086 l 1,4,-1
EndSplineSet
EndChar

StartChar: quotedblright
Encoding: 8221 8221 356
Width: 682
Flags: W
LayerCount: 2
UndoRedoHistory
Layer: 1
Undoes
EndUndoes
Redoes
EndRedoes
EndUndoRedoHistory
Fore
SplineSet
84 1058 m 1,0,-1
 171 1460 l 1,1,-1
 310 1460 l 1,2,-1
 182 1058 l 1,3,-1
 84 1058 l 1,0,-1
377 1062 m 1,4,-1
 462 1460 l 1,5,-1
 604 1460 l 1,6,-1
 476 1062 l 1,7,-1
 377 1062 l 1,4,-1
EndSplineSet
EndChar

StartChar: quoteleft
Encoding: 8216 8216 357
Width: 463
Flags: W
LayerCount: 2
UndoRedoHistory
Layer: 1
Undoes
EndUndoes
Redoes
EndRedoes
EndUndoRedoHistory
Fore
SplineSet
203 1015 m 1,0,-1
 202 1440 l 1,1,-1
 314 1440 l 1,2,-1
 329 1015 l 1,3,-1
 203 1015 l 1,0,-1
EndSplineSet
EndChar

StartChar: quoteright
Encoding: 8217 8217 358
Width: 456
Flags: W
LayerCount: 2
UndoRedoHistory
Layer: 1
Undoes
EndUndoes
Redoes
EndRedoes
EndUndoRedoHistory
Fore
SplineSet
129 1058 m 1,0,-1
 216 1460 l 1,1,-1
 350 1460 l 1,2,-1
 226 1058 l 1,3,-1
 129 1058 l 1,0,-1
EndSplineSet
EndChar

StartChar: quotesinglbase
Encoding: 8218 8218 359
Width: 436
Flags: W
LayerCount: 2
UndoRedoHistory
Layer: 1
Undoes
EndUndoes
Redoes
EndRedoes
EndUndoRedoHistory
Fore
SplineSet
97 -248 m 1,0,-1
 182 204 l 1,1,-1
 320 204 l 1,2,-1
 196 -248 l 1,3,-1
 97 -248 l 1,0,-1
EndSplineSet
EndChar

StartChar: radical
Encoding: 8730 8730 361
Width: 1241
Flags: W
LayerCount: 2
UndoRedoHistory
Layer: 1
Undoes
EndUndoes
Redoes
EndRedoes
EndUndoRedoHistory
Fore
SplineSet
597 -162 m 1,0,-1
 273 723 l 1,1,-1
 124 693 l 1,2,-1
 109 811 l 1,3,-1
 363 866 l 1,4,-1
 597 224 l 1,5,-1
 655 43 l 1,6,7
 954 1276 954 1276 1051 1672 c 1,8,-1
 1161 1672 l 1,9,-1
 732 -162 l 1,10,-1
 597 -162 l 1,0,-1
EndSplineSet
EndChar

StartChar: rho
Encoding: 961 961 364
Width: 1250
Flags: W
LayerCount: 2
UndoRedoHistory
Layer: 1
Undoes
EndUndoes
Redoes
EndRedoes
EndUndoRedoHistory
Fore
SplineSet
138 -464 m 1,0,-1
 138 1058 l 1,1,-1
 291 1058 l 1,2,-1
 308 875 l 1,3,4
 350 973 350 973 443 1026.5 c 128,-1,5
 536 1080 536 1080 650 1080 c 0,6,7
 874 1080 874 1080 1001 926.5 c 128,-1,8
 1128 773 1128 773 1128 529 c 128,-1,9
 1128 285 1128 285 995 131 c 128,-1,10
 862 -23 862 -23 656 -23 c 0,11,12
 548 -23 548 -23 450.5 25.5 c 128,-1,13
 353 74 353 74 300 151 c 1,14,15
 305 59 305 59 305 -66 c 2,16,-1
 305 -455 l 1,17,-1
 138 -464 l 1,0,-1
305 546 m 0,18,19
 305 326 305 326 379.5 213.5 c 128,-1,20
 454 101 454 101 623 101 c 128,-1,21
 792 101 792 101 877 216 c 128,-1,22
 962 331 962 331 962 527.5 c 128,-1,23
 962 724 962 724 878.5 839.5 c 128,-1,24
 795 955 795 955 633 955 c 0,25,26
 305 955 305 955 305 546 c 0,18,19
EndSplineSet
EndChar

StartChar: ring
Encoding: 730 730 365
Width: 603
Flags: W
LayerCount: 2
UndoRedoHistory
Layer: 1
Undoes
EndUndoes
Redoes
EndRedoes
EndUndoRedoHistory
Fore
SplineSet
302 1203 m 128,-1,1
 343 1203 343 1203 370.5 1232 c 128,-1,2
 398 1261 398 1261 398 1302.5 c 128,-1,3
 398 1344 398 1344 370.5 1373 c 128,-1,4
 343 1402 343 1402 302 1402 c 128,-1,5
 261 1402 261 1402 233.5 1373 c 128,-1,6
 206 1344 206 1344 206 1302.5 c 128,-1,7
 206 1261 206 1261 233.5 1232 c 128,-1,0
 261 1203 261 1203 302 1203 c 128,-1,1
302 1128 m 128,-1,9
 223 1128 223 1128 170.5 1179 c 128,-1,10
 118 1230 118 1230 118 1304 c 128,-1,11
 118 1378 118 1378 170.5 1429 c 128,-1,12
 223 1480 223 1480 302 1480 c 128,-1,13
 381 1480 381 1480 433 1429 c 128,-1,14
 485 1378 485 1378 485 1304 c 128,-1,15
 485 1230 485 1230 433 1179 c 128,-1,8
 381 1128 381 1128 302 1128 c 128,-1,9
EndSplineSet
EndChar

StartChar: summation
Encoding: 8721 8721 371
Width: 1174
Flags: W
LayerCount: 2
UndoRedoHistory
Layer: 1
Undoes
EndUndoes
Redoes
EndRedoes
EndUndoRedoHistory
Fore
SplineSet
96 -148 m 1,0,-1
 96 -59 l 1,1,-1
 602 651 l 1,2,-1
 118 1367 l 1,3,-1
 118 1460 l 1,4,-1
 1011 1460 l 1,5,-1
 1011 1320 l 1,6,-1
 344 1320 l 1,7,-1
 799 644 l 1,8,-1
 327 0 l 1,9,-1
 1058 0 l 1,10,-1
 1058 -148 l 1,11,-1
 96 -148 l 1,0,-1
EndSplineSet
EndChar

StartChar: tbar
Encoding: 359 359 372
Width: 737
Flags: W
LayerCount: 2
UndoRedoHistory
Layer: 1
Undoes
EndUndoes
Redoes
EndRedoes
EndUndoRedoHistory
Fore
SplineSet
578 -8 m 2,0,1
 463 -8 463 -8 392 7 c 128,-1,2
 321 22 321 22 276.5 61 c 128,-1,3
 232 100 232 100 215 160 c 128,-1,4
 198 220 198 220 198 317 c 2,5,-1
 198 622 l 1,6,-1
 65 622 l 1,7,-1
 65 719 l 1,8,-1
 198 719 l 1,9,-1
 198 953 l 1,10,-1
 35 953 l 1,11,-1
 39 1047 l 1,12,-1
 202 1058 l 1,13,-1
 229 1338 l 1,14,-1
 362 1348 l 1,15,-1
 362 1058 l 1,16,-1
 642 1058 l 1,17,-1
 642 953 l 1,18,-1
 362 953 l 1,19,-1
 362 719 l 1,20,-1
 603 719 l 1,21,-1
 603 622 l 1,22,-1
 362 622 l 1,23,-1
 362 317 l 2,24,25
 362 190 362 190 400 152.5 c 128,-1,26
 438 115 438 115 571 110 c 1,27,-1
 655 106 l 1,28,-1
 647 -8 l 1,29,-1
 578 -8 l 2,0,1
EndSplineSet
EndChar

StartChar: threesuperior
Encoding: 65540 -1 375
Width: 952
Flags: W
LayerCount: 2
UndoRedoHistory
Layer: 1
Undoes
EndUndoes
Redoes
EndRedoes
EndUndoRedoHistory
Fore
SplineSet
477 615 m 0,0,1
 407 615 407 615 332.5 637 c 128,-1,2
 258 659 258 659 216 702 c 1,3,-1
 265 798 l 1,4,5
 300 766 300 766 358 747 c 128,-1,6
 416 728 416 728 472 728 c 128,-1,7
 528 728 528 728 567.5 764.5 c 128,-1,8
 607 801 607 801 607 869.5 c 128,-1,9
 607 938 607 938 553.5 973.5 c 128,-1,10
 500 1009 500 1009 414 1009 c 2,11,-1
 340 1009 l 1,12,-1
 340 1122 l 1,13,-1
 411 1122 l 2,14,15
 489 1122 489 1122 538.5 1153.5 c 128,-1,16
 588 1185 588 1185 588 1243.5 c 128,-1,17
 588 1302 588 1302 555 1332 c 128,-1,18
 522 1362 522 1362 468.5 1362 c 128,-1,19
 415 1362 415 1362 356 1342 c 128,-1,20
 297 1322 297 1322 268 1293 c 1,21,-1
 214 1380 l 1,22,23
 254 1423 254 1423 328.5 1449 c 128,-1,24
 403 1475 403 1475 488 1475 c 128,-1,25
 573 1475 573 1475 646 1415 c 128,-1,26
 719 1355 719 1355 719 1246 c 0,27,28
 719 1192 719 1192 683.5 1141.5 c 128,-1,29
 648 1091 648 1091 575 1073 c 1,30,31
 653 1050 653 1050 695.5 995.5 c 128,-1,32
 738 941 738 941 738 867 c 0,33,34
 738 752 738 752 663.5 683.5 c 128,-1,35
 589 615 589 615 477 615 c 0,0,1
EndSplineSet
EndChar

StartChar: tilde
Encoding: 732 732 376
Width: 874
Flags: W
LayerCount: 2
UndoRedoHistory
Layer: 1
Undoes
EndUndoes
Redoes
EndRedoes
EndUndoRedoHistory
Fore
SplineSet
213 1261 m 1,0,1
 129 1261 l 1,2,3
 129 1361 129 1361 171.5 1411 c 128,-1,4
 214 1461 214 1461 286 1461 c 0,5,6
 358 1460 358 1460 499 1396 c 0,7,8
 546 1374 546 1374 570 1375 c 0,9,10
 620 1375 620 1375 630 1460 c 1,11,-1
 716 1460 l 1,12,13
 716 1361 716 1361 678 1311 c 128,-1,14
 640 1261 640 1261 580 1261 c 128,-1,15
 520 1261 520 1261 416.5 1309.5 c 128,-1,16
 313 1358 313 1358 281 1358 c 0,17,18
 224 1358 224 1358 213 1261 c 1,0,1
EndSplineSet
EndChar

StartChar: trademark
Encoding: 8482 8482 377
Width: 1770
Flags: W
LayerCount: 2
UndoRedoHistory
Layer: 1
Undoes
EndUndoes
Redoes
EndRedoes
EndUndoRedoHistory
Fore
SplineSet
830 582 m 1,0,-1
 830 1451 l 1,1,-1
 966 1451 l 1,2,-1
 1241 778 l 1,3,-1
 1529 1451 l 1,4,-1
 1657 1451 l 1,5,-1
 1657 582 l 1,6,-1
 1563 582 l 1,7,-1
 1563 1339 l 1,8,-1
 1272 660 l 1,9,-1
 1195 660 l 1,10,-1
 922 1341 l 1,11,-1
 922 582 l 1,12,-1
 830 582 l 1,0,-1
338 582 m 1,13,-1
 338 1365 l 1,14,-1
 85 1365 l 1,15,-1
 86 1451 l 1,16,-1
 694 1451 l 1,17,-1
 694 1365 l 1,18,-1
 433 1365 l 1,19,-1
 433 582 l 1,20,-1
 338 582 l 1,13,-1
EndSplineSet
EndChar

StartChar: twosuperior
Encoding: 65541 -1 378
Width: 933
Flags: W
LayerCount: 2
UndoRedoHistory
Layer: 1
Undoes
EndUndoes
Redoes
EndRedoes
EndUndoRedoHistory
Fore
SplineSet
257 1251 m 1,0,1
 185 1329 l 1,2,3
 224 1397 224 1397 305 1438.5 c 128,-1,4
 386 1480 386 1480 490.5 1480 c 128,-1,5
 595 1480 595 1480 678 1413.5 c 128,-1,6
 761 1347 761 1347 761 1230 c 0,7,8
 761 1180 761 1180 749.5 1140 c 128,-1,9
 738 1100 738 1100 700.5 1049.5 c 128,-1,10
 663 999 663 999 563 904 c 2,11,-1
 392 741 l 1,12,-1
 753 741 l 1,13,-1
 747 630 l 1,14,-1
 226 630 l 1,15,-1
 226 737 l 1,16,-1
 474 979 l 2,17,18
 561 1064 561 1064 595 1117.5 c 128,-1,19
 629 1171 629 1171 629 1231 c 128,-1,20
 629 1291 629 1291 585.5 1327 c 128,-1,21
 542 1363 542 1363 476 1363 c 0,22,23
 341 1363 341 1363 257 1251 c 1,0,1
EndSplineSet
EndChar

StartChar: u.alt
Encoding: 65542 -1 379
Width: 1118
Flags: W
LayerCount: 2
UndoRedoHistory
Layer: 1
Undoes
EndUndoes
Redoes
EndRedoes
EndUndoRedoHistory
Fore
SplineSet
886.5 90 m 128,-1,1
 781 -18 781 -18 559.5 -18 c 128,-1,2
 338 -18 338 -18 232 90.5 c 128,-1,3
 126 199 126 199 126 426 c 2,4,-1
 126 1058 l 1,5,-1
 292 1058 l 1,6,-1
 292 428 l 2,7,8
 292 264 292 264 351.5 185 c 128,-1,9
 411 106 411 106 559 106 c 128,-1,10
 707 106 707 106 766.5 185 c 128,-1,11
 826 264 826 264 826 428 c 2,12,-1
 826 1058 l 1,13,-1
 992 1058 l 1,14,-1
 992 426 l 2,15,0
 992 198 992 198 886.5 90 c 128,-1,1
EndSplineSet
EndChar

StartChar: uni0237
Encoding: 567 567 469
Width: 455
Flags: W
LayerCount: 2
UndoRedoHistory
Layer: 1
Undoes
EndUndoes
Redoes
EndRedoes
EndUndoRedoHistory
Fore
SplineSet
135 -96 m 1,0,-1
 135 1073 l 1,1,-1
 315 1073 l 1,2,-1
 315 -120 l 2,3,4
 315 -219 315 -219 303 -279.5 c 128,-1,5
 291 -340 291 -340 256.5 -381.5 c 128,-1,6
 222 -423 222 -423 163 -439 c 128,-1,7
 104 -455 104 -455 8 -455 c 2,8,9
 -49 -455 l 1,10,-1
 -82 -316 l 1,11,-1
 -22 -316 l 2,12,13
 32 -316 32 -316 63 -309.5 c 128,-1,14
 94 -303 94 -303 115 -281.5 c 128,-1,15
 136 -260 136 -260 136 -187 c 2,16,-1
 135 -96 l 1,0,-1
EndSplineSet
EndChar

StartChar: uni02BC
Encoding: 700 700 470
Width: 512
Flags: W
LayerCount: 2
UndoRedoHistory
Layer: 1
Undoes
EndUndoes
Redoes
EndRedoes
EndUndoRedoHistory
Fore
SplineSet
137 1090 m 1,0,-1
 249 1537 l 1,1,-1
 387 1537 l 1,2,-1
 239 1090 l 1,3,-1
 137 1090 l 1,0,-1
EndSplineSet
EndChar

StartChar: uni0307
Encoding: 775 775 471
Width: 339
Flags: W
LayerCount: 2
UndoRedoHistory
Layer: 1
Undoes
EndUndoes
Redoes
EndRedoes
EndUndoRedoHistory
Fore
SplineSet
94 1274 m 1,0,-1
 94 1460 l 1,1,-1
 245 1460 l 1,2,-1
 245 1274 l 1,3,-1
 94 1274 l 1,0,-1
EndSplineSet
EndChar

StartChar: uni030F
Encoding: 783 783 472
Width: 695
Flags: W
LayerCount: 2
UndoRedoHistory
Layer: 1
Undoes
EndUndoes
Redoes
EndRedoes
EndUndoRedoHistory
Fore
SplineSet
561 1058 m 1,0,-1
 485 1058 l 1,1,-1
 324 1460 l 1,2,-1
 452 1460 l 1,3,-1
 561 1058 l 1,0,-1
372 1058 m 1,4,-1
 293 1058 l 1,5,-1
 87 1460 l 1,6,-1
 220 1460 l 1,7,-1
 372 1058 l 1,4,-1
EndSplineSet
EndChar

StartChar: uni0311
Encoding: 785 785 473
Width: 685
Flags: W
LayerCount: 2
UndoRedoHistory
Layer: 1
Undoes
EndUndoes
Redoes
EndRedoes
EndUndoRedoHistory
Fore
SplineSet
113 1269 m 1,0,1
 113 1387 113 1387 180 1446.5 c 128,-1,2
 247 1506 247 1506 342.5 1506 c 128,-1,3
 438 1506 438 1506 508 1446 c 128,-1,4
 578 1386 578 1386 578 1269 c 1,5,-1
 475 1269 l 1,6,7
 475 1339 475 1339 438 1375.5 c 128,-1,8
 401 1412 401 1412 343 1412 c 128,-1,9
 285 1412 285 1412 249 1375.5 c 128,-1,10
 213 1339 213 1339 213 1269 c 1,11,-1
 113 1269 l 1,0,1
EndSplineSet
EndChar

StartChar: uni031B
Encoding: 795 795 474
Width: 481
Flags: W
LayerCount: 2
UndoRedoHistory
Layer: 1
Undoes
EndUndoes
Redoes
EndRedoes
EndUndoRedoHistory
Fore
SplineSet
220 494 m 1,0,1
 313 494 l 1,2,3
 339 435 339 435 339 358.5 c 128,-1,4
 339 282 339 282 298 226 c 0,5,6
 276 196 276 196 235 178 c 128,-1,7
 194 160 194 160 153 160 c 128,-1,8
 112 160 112 160 77 165 c 1,9,10
 77 246 l 1,11,12
 84 245 84 245 99 245 c 0,13,14
 178 244 178 244 208 300 c 0,15,16
 222 326 222 326 228 352 c 128,-1,17
 234 378 234 378 234 417.5 c 128,-1,18
 234 457 234 457 220 494 c 1,0,1
EndSplineSet
EndChar

StartChar: uni0326
Encoding: 806 806 475
Width: 297
Flags: W
LayerCount: 2
UndoRedoHistory
Layer: 1
Undoes
EndUndoes
Redoes
EndRedoes
EndUndoRedoHistory
Fore
SplineSet
51 -664 m 1,0,-1
 132 -196 l 1,1,-1
 235 -196 l 1,2,-1
 117 -664 l 1,3,-1
 51 -664 l 1,0,-1
EndSplineSet
EndChar

StartChar: afii10059
Encoding: 1034 1034 483
Width: 2134
Flags: W
LayerCount: 2
UndoRedoHistory
Layer: 1
Undoes
EndUndoes
Redoes
EndRedoes
EndUndoRedoHistory
Fore
SplineSet
1247 677 m 1,0,-1
 1247 128 l 1,1,-1
 1533 128 l 2,2,3
 1707 128 1707 128 1785.5 193 c 128,-1,4
 1864 258 1864 258 1864 407.5 c 128,-1,5
 1864 557 1864 557 1789 617 c 128,-1,6
 1714 677 1714 677 1531 677 c 2,7,-1
 1247 677 l 1,0,-1
1072 0 m 1,8,-1
 1072 677 l 1,9,-1
 383 677 l 1,10,-1
 383 0 l 1,11,-1
 207 0 l 1,12,-1
 207 1435 l 1,13,-1
 383 1435 l 1,14,-1
 383 805 l 1,15,-1
 1072 805 l 1,16,-1
 1072 1435 l 1,17,-1
 1248 1435 l 1,18,-1
 1247 805 l 1,19,-1
 1538 805 l 2,20,21
 1674 805 1674 805 1771 777 c 0,22,23
 2034 701 2034 701 2034 407 c 0,24,25
 2034 0 2034 0 1540 0 c 2,26,-1
 1072 0 l 1,8,-1
EndSplineSet
EndChar

StartChar: afii10060
Encoding: 1035 1035 484
Width: 1544
Flags: W
LayerCount: 2
UndoRedoHistory
Layer: 1
Undoes
EndUndoes
Redoes
EndRedoes
EndUndoRedoHistory
Fore
SplineSet
1255 0 m 1,0,-1
 1255 403 l 2,1,2
 1255 566 1255 566 1177.5 631.5 c 128,-1,3
 1100 697 1100 697 936 697 c 2,4,-1
 628 697 l 1,5,-1
 628 0 l 1,6,-1
 506 0 l 1,7,-1
 506 1361 l 1,8,-1
 58 1361 l 1,9,-1
 58 1449 l 1,10,-1
 1082 1449 l 1,11,-1
 1082 1361 l 1,12,-1
 628 1361 l 1,13,-1
 628 791 l 1,14,-1
 934 791 l 2,15,16
 1162 791 1162 791 1269.5 694 c 128,-1,17
 1377 597 1377 597 1377 404 c 2,18,-1
 1377 0 l 1,19,-1
 1255 0 l 1,0,-1
EndSplineSet
EndChar

StartChar: afii10145
Encoding: 1039 1039 486
Width: 1523
Flags: W
LayerCount: 2
UndoRedoHistory
Layer: 1
Undoes
EndUndoes
Redoes
EndRedoes
EndUndoRedoHistory
Fore
SplineSet
1299 1449 m 1,0,-1
 1299 0 l 1,1,-1
 841 0 l 1,2,-1
 841 -294 l 1,3,-1
 719 -294 l 1,4,-1
 719 0 l 1,5,-1
 225 0 l 1,6,-1
 225 1449 l 1,7,-1
 347 1449 l 1,8,-1
 347 87 l 1,9,-1
 1177 87 l 1,10,-1
 1177 1449 l 1,11,-1
 1299 1449 l 1,0,-1
EndSplineSet
EndChar

StartChar: afii10018
Encoding: 1041 1041 488
Width: 1265
Flags: W
LayerCount: 2
UndoRedoHistory
Layer: 1
Undoes
EndUndoes
Redoes
EndRedoes
EndUndoRedoHistory
Fore
SplineSet
374 689 m 1,0,-1
 374 134 l 1,1,-1
 692 134 l 2,2,3
 860 134 860 134 935 199 c 128,-1,4
 1010 264 1010 264 1010 414.5 c 128,-1,5
 1010 565 1010 565 939 627 c 128,-1,6
 868 689 868 689 690 689 c 2,7,-1
 374 689 l 1,0,-1
699 0 m 2,8,9
 198 0 l 1,10,-1
 198 1460 l 1,11,-1
 1043 1460 l 1,12,-1
 1043 1327 l 1,13,-1
 374 1327 l 1,14,-1
 374 823 l 1,15,-1
 696 823 l 2,16,17
 831 823 831 823 928 794 c 0,18,19
 1186 717 1186 717 1186 416 c 0,20,21
 1186 0 1186 0 699 0 c 2,8,9
EndSplineSet
EndChar

StartChar: afii10021
Encoding: 1044 1044 489
Width: 1463
Flags: W
LayerCount: 2
UndoRedoHistory
Layer: 1
Undoes
EndUndoes
Redoes
EndRedoes
EndUndoRedoHistory
Fore
SplineSet
516 1372 m 1,0,-1
 491 1079 l 2,1,2
 450 604 450 604 433 473 c 0,3,4
 396 198 396 198 336 88 c 1,5,-1
 1111 88 l 1,6,-1
 1111 1373 l 1,7,-1
 516 1372 l 1,0,-1
27 -294 m 1,8,-1
 27 88 l 1,9,-1
 187 88 l 1,10,11
 257 137 257 137 297.5 349 c 128,-1,12
 338 561 338 561 377 1090 c 2,13,-1
 404 1460 l 1,14,-1
 1233 1460 l 1,15,-1
 1233 88 l 1,16,-1
 1366 88 l 1,17,-1
 1366 -294 l 1,18,-1
 1257 -294 l 1,19,-1
 1257 0 l 1,20,-1
 138 0 l 1,21,-1
 138 -294 l 1,22,-1
 27 -294 l 1,8,-1
EndSplineSet
EndChar

StartChar: afii10029
Encoding: 1051 1051 493
Width: 1555
Flags: W
LayerCount: 2
UndoRedoHistory
Layer: 1
Undoes
EndUndoes
Redoes
EndRedoes
EndUndoRedoHistory
Fore
SplineSet
-6 -23 m 1,0,-1
 -6 119 l 1,1,-1
 59 119 l 2,2,3
 208 118 208 118 256 188 c 0,4,5
 300 251 300 251 300 401 c 2,6,-1
 300 1435 l 1,7,-1
 1371 1434 l 1,8,-1
 1370 -1 l 1,9,-1
 1195 -1 l 1,10,-1
 1195 1306 l 1,11,-1
 476 1306 l 1,12,-1
 476 426 l 2,13,14
 476 198 476 198 392 90 c 0,15,16
 304 -22 304 -22 71 -23 c 2,17,-1
 -6 -23 l 1,0,-1
EndSplineSet
EndChar

StartChar: afii10033
Encoding: 1055 1055 497
Width: 1502
Flags: W
LayerCount: 2
UndoRedoHistory
Layer: 1
Undoes
EndUndoes
Redoes
EndRedoes
EndUndoRedoHistory
Fore
SplineSet
207 0 m 1,0,-1
 207 1460 l 1,1,-1
 1318 1460 l 1,2,-1
 1318 0 l 1,3,-1
 1142 0 l 1,4,-1
 1142 1331 l 1,5,-1
 383 1331 l 1,6,-1
 383 0 l 1,7,-1
 207 0 l 1,0,-1
EndSplineSet
EndChar

StartChar: afii10037
Encoding: 1059 1059 501
Width: 1335
Flags: W
LayerCount: 2
UndoRedoHistory
Layer: 1
Undoes
EndUndoes
Redoes
EndRedoes
EndUndoRedoHistory
Fore
SplineSet
718 609 m 1,0,-1
 1101 1440 l 1,1,-1
 1217 1440 l 1,2,-1
 532 0 l 1,3,-1
 417 0 l 1,4,-1
 667 509 l 1,5,-1
 158 1440 l 1,6,-1
 273 1440 l 1,7,-1
 718 609 l 1,0,-1
EndSplineSet
EndChar

StartChar: afii10038
Encoding: 1060 1060 502
Width: 1634
Flags: W
LayerCount: 2
UndoRedoHistory
Layer: 1
Undoes
EndUndoes
Redoes
EndRedoes
EndUndoRedoHistory
Fore
SplineSet
751 0 m 1,0,-1
 751 118 l 1,1,2
 433 148 433 148 266.5 303.5 c 128,-1,3
 100 459 100 459 100 719.5 c 128,-1,4
 100 980 100 980 266.5 1136 c 128,-1,5
 433 1292 433 1292 751 1322 c 1,6,-1
 751 1452 l 1,7,-1
 884 1452 l 1,8,-1
 884 1324 l 1,9,10
 1204 1301 1204 1301 1378.5 1147 c 128,-1,11
 1553 993 1553 993 1553 720 c 128,-1,12
 1553 447 1553 447 1378.5 294 c 128,-1,13
 1204 141 1204 141 884 117 c 1,14,-1
 884 0 l 1,15,-1
 751 0 l 1,0,-1
751 258 m 1,16,-1
 751 1183 l 1,17,18
 504 1155 504 1155 383.5 1036.5 c 128,-1,19
 263 918 263 918 263 720.5 c 128,-1,20
 263 523 263 523 384 404.5 c 128,-1,21
 505 286 505 286 751 258 c 1,16,-1
884 256 m 1,22,23
 1142 281 1142 281 1266 400.5 c 128,-1,24
 1390 520 1390 520 1390 720.5 c 128,-1,25
 1390 921 1390 921 1266 1040.5 c 128,-1,26
 1142 1160 1142 1160 884 1185 c 1,27,-1
 884 256 l 1,22,23
EndSplineSet
EndChar

StartChar: afii10041
Encoding: 1063 1063 504
Width: 1073
Flags: W
LayerCount: 2
UndoRedoHistory
Layer: 1
Undoes
EndUndoes
Redoes
EndRedoes
EndUndoRedoHistory
Fore
SplineSet
872 0 m 1,0,-1
 872 477 l 1,1,-1
 482 477 l 2,2,3
 296 477 296 477 200.5 584 c 128,-1,4
 105 691 105 691 105 875 c 2,5,-1
 105 1460 l 1,6,-1
 279 1460 l 1,7,-1
 279 912 l 2,8,9
 279 738 279 738 343 680 c 0,10,11
 401 627 401 627 532 627 c 2,12,-1
 872 627 l 1,13,-1
 872 1460 l 1,14,-1
 1042 1460 l 1,15,-1
 1042 0 l 1,16,-1
 872 0 l 1,0,-1
EndSplineSet
EndChar

StartChar: afii10042
Encoding: 1064 1064 505
Width: 1609
Flags: W
LayerCount: 2
UndoRedoHistory
Layer: 1
Undoes
EndUndoes
Redoes
EndRedoes
EndUndoRedoHistory
Fore
SplineSet
166 0 m 1,0,-1
 166 1460 l 1,1,-1
 317 1460 l 1,2,-1
 317 140 l 1,3,-1
 732 140 l 1,4,-1
 732 1460 l 1,5,-1
 883 1460 l 1,6,-1
 883 140 l 1,7,-1
 1308 140 l 1,8,-1
 1308 1460 l 1,9,-1
 1459 1460 l 1,10,-1
 1459 0 l 1,11,-1
 166 0 l 1,0,-1
EndSplineSet
EndChar

StartChar: afii10043
Encoding: 1065 1065 506
Width: 1677
Flags: W
LayerCount: 2
UndoRedoHistory
Layer: 1
Undoes
EndUndoes
Redoes
EndRedoes
EndUndoRedoHistory
Fore
SplineSet
1439 -288 m 1,0,-1
 1440 0 l 1,1,-1
 198 0 l 1,2,-1
 198 1460 l 1,3,-1
 348 1460 l 1,4,-1
 348 140 l 1,5,-1
 763 140 l 1,6,-1
 763 1460 l 1,7,-1
 915 1460 l 1,8,-1
 915 140 l 1,9,-1
 1339 140 l 1,10,-1
 1339 1460 l 1,11,-1
 1490 1460 l 1,12,-1
 1490 155 l 1,13,-1
 1590 155 l 1,14,-1
 1590 -288 l 1,15,-1
 1439 -288 l 1,0,-1
EndSplineSet
EndChar

StartChar: afii10044
Encoding: 1066 1066 507
Width: 1305
Flags: W
LayerCount: 2
UndoRedoHistory
Layer: 1
Undoes
EndUndoes
Redoes
EndRedoes
EndUndoRedoHistory
Fore
SplineSet
414 690 m 1,0,-1
 414 134 l 1,1,-1
 704 134 l 2,2,3
 872 134 872 134 947 199.5 c 128,-1,4
 1022 265 1022 265 1022 415.5 c 128,-1,5
 1022 566 1022 566 951 628 c 128,-1,6
 880 690 880 690 703 690 c 2,7,-1
 414 690 l 1,0,-1
711 0 m 2,8,9
 238 0 l 1,10,-1
 238 1303 l 1,11,-1
 -14 1302 l 1,12,-1
 -14 1435 l 1,13,-1
 415 1435 l 1,14,-1
 414 823 l 1,15,-1
 709 823 l 2,16,17
 844 823 844 823 941 794 c 0,18,19
 1198 717 1198 717 1198 416 c 0,20,21
 1198 0 1198 0 711 0 c 2,8,9
EndSplineSet
EndChar

StartChar: afii10045
Encoding: 1067 1067 508
Width: 1769
Flags: W
LayerCount: 2
UndoRedoHistory
Layer: 1
Undoes
EndUndoes
Redoes
EndRedoes
EndUndoRedoHistory
Fore
SplineSet
347 725 m 1,0,-1
 347 94 l 1,1,-1
 705 94 l 2,2,3
 891 94 891 94 969.5 168.5 c 128,-1,4
 1048 243 1048 243 1048 414 c 128,-1,5
 1048 585 1048 585 970 655 c 128,-1,6
 892 725 892 725 691 725 c 2,7,-1
 347 725 l 1,0,-1
1423 0 m 1,8,-1
 1423 1449 l 1,9,-1
 1545 1449 l 1,10,-1
 1545 0 l 1,11,-1
 1423 0 l 1,8,-1
225 0 m 1,12,-1
 225 1448 l 1,13,-1
 347 1448 l 1,14,-1
 347 820 l 1,15,-1
 692 820 l 2,16,17
 958 820 958 820 1078 698 c 0,18,19
 1170 605 1170 605 1170 416 c 0,20,21
 1170 178 1170 178 1036 82 c 0,22,23
 922 1 922 1 699 0 c 2,24,-1
 225 0 l 1,12,-1
EndSplineSet
EndChar

StartChar: afii10046
Encoding: 1068 1068 509
Width: 1277
Flags: W
LayerCount: 2
UndoRedoHistory
Layer: 1
Undoes
EndUndoes
Redoes
EndRedoes
EndUndoRedoHistory
Fore
SplineSet
374 690 m 1,0,-1
 374 134 l 1,1,-1
 686 134 l 2,2,3
 854 134 854 134 929 199.5 c 128,-1,4
 1004 265 1004 265 1004 415.5 c 128,-1,5
 1004 566 1004 566 933 628 c 128,-1,6
 862 690 862 690 684 690 c 2,7,-1
 374 690 l 1,0,-1
694 0 m 2,8,9
 198 0 l 1,10,-1
 198 1460 l 1,11,-1
 374 1460 l 1,12,-1
 374 823 l 1,13,-1
 690 823 l 2,14,15
 825 823 825 823 922 794 c 0,16,17
 1181 717 1181 717 1181 416 c 0,18,19
 1181 0 1181 0 694 0 c 2,8,9
EndSplineSet
EndChar

StartChar: afii10066
Encoding: 1073 1073 511
Width: 1076
Flags: W
LayerCount: 2
UndoRedoHistory
Layer: 1
Undoes
EndUndoes
Redoes
EndRedoes
EndUndoRedoHistory
Fore
SplineSet
730.5 16.5 m 0,0,1
 655 -20 655 -20 567.5 -20 c 128,-1,2
 480 -20 480 -20 410 1.5 c 128,-1,3
 340 23 340 23 294.5 57 c 128,-1,4
 249 91 249 91 214 138.5 c 128,-1,5
 179 186 179 186 160.5 231.5 c 0,6,7
 142 276 142 276 131 328 c 0,8,9
 114 408 114 408 114 482 c 1,10,-1
 116 521 l 1,11,12
 116 906 116 906 356 1066 c 0,13,14
 541 1190 541 1190 893 1210 c 1,15,-1
 890 1133 l 1,16,17
 657 1119 657 1119 542 1074 c 0,18,19
 417 1024 417 1024 348 943 c 0,20,21
 262 842 262 842 230 685 c 1,22,23
 269 703 269 703 322.5 734 c 0,24,25
 376 766 376 766 405 780 c 0,26,27
 484 820 484 820 588.5 819.5 c 128,-1,28
 693 819 693 819 763 778.5 c 128,-1,29
 833 738 833 738 874 676 c 0,30,31
 958 549 958 549 958 419 c 0,32,33
 958 244 958 244 855 114 c 0,34,35
 806 52 806 52 730.5 16.5 c 0,0,1
561 72 m 0,36,37
 737 72 737 72 805.5 159 c 128,-1,38
 874 246 874 246 874 434 c 0,39,40
 874 561 874 561 798.5 653.5 c 128,-1,41
 723 746 723 746 607 746 c 0,42,43
 481 746 481 746 357 672 c 0,44,45
 299 638 299 638 248 588 c 1,46,47
 240 522 240 522 240 453.5 c 128,-1,48
 240 385 240 385 260.5 314.5 c 128,-1,49
 281 244 281 244 314 199.5 c 0,50,51
 346 156 346 156 390 126 c 0,52,53
 468 72 468 72 561 72 c 0,36,37
EndSplineSet
EndChar

StartChar: afii10067
Encoding: 1074 1074 512
Width: 1122
Flags: W
LayerCount: 2
UndoRedoHistory
Layer: 1
Undoes
EndUndoes
Redoes
EndRedoes
EndUndoRedoHistory
Fore
SplineSet
193 0 m 1,0,-1
 193 1055 l 1,1,-1
 640 1055 l 2,2,3
 905 1055 905 1055 968 883 c 0,4,5
 984 839 984 839 984 789 c 0,6,7
 984 614 984 614 815 562 c 1,8,9
 972 519 972 519 1010 374 c 0,10,11
 1020 338 1020 338 1020 298.5 c 128,-1,12
 1020 259 1020 259 1012 221 c 128,-1,13
 1004 183 1004 183 979 141 c 128,-1,14
 954 99 954 99 914 69 c 0,15,16
 821 0 821 0 638 0 c 2,17,-1
 193 0 l 1,0,-1
315 85 m 1,18,-1
 633 85 l 2,19,20
 869 85 869 85 895 233 c 0,21,22
 900 262 900 262 900 300 c 128,-1,23
 900 338 900 338 898.5 358.5 c 128,-1,24
 897 379 897 379 885.5 411.5 c 128,-1,25
 874 444 874 444 852 462 c 0,26,27
 797 506 797 506 682 506 c 2,28,-1
 315 506 l 1,29,-1
 315 85 l 1,18,-1
315 596 m 1,30,-1
 677 596 l 2,31,32
 794 596 794 596 832 658 c 0,33,34
 864 710 864 710 865 791 c 0,35,36
 865 970 865 970 638 970 c 2,37,-1
 315 970 l 1,38,-1
 315 596 l 1,30,-1
EndSplineSet
EndChar

StartChar: afii10068
Encoding: 1075 1075 513
Width: 914
Flags: W
LayerCount: 2
UndoRedoHistory
Layer: 1
Undoes
EndUndoes
Redoes
EndRedoes
EndUndoRedoHistory
Fore
SplineSet
193 0 m 1,0,-1
 193 1055 l 1,1,-1
 859 1055 l 1,2,-1
 859 961 l 1,3,-1
 315 961 l 1,4,-1
 315 0 l 1,5,-1
 193 0 l 1,0,-1
EndSplineSet
EndChar

StartChar: afii10069
Encoding: 1076 1076 514
Width: 1241
Flags: W
LayerCount: 2
UndoRedoHistory
Layer: 1
Undoes
EndUndoes
Redoes
EndRedoes
EndUndoRedoHistory
Fore
SplineSet
61 -275 m 1,0,-1
 61 76 l 1,1,-1
 164 76 l 1,2,3
 200 87 200 87 226 116 c 128,-1,4
 252 145 252 145 263.5 171 c 128,-1,5
 275 197 275 197 288 234 c 0,6,7
 301 271 301 271 304 278 c 1,8,-1
 444 1057 l 1,9,-1
 1050 1057 l 1,10,-1
 1050 76 l 1,11,-1
 1111 76 l 1,12,-1
 1111 -275 l 1,13,-1
 1007 -275 l 1,14,-1
 1019 0 l 1,15,-1
 148 0 l 1,16,-1
 154 -275 l 1,17,-1
 61 -275 l 1,0,-1
297 74 m 1,18,-1
 918 74 l 1,19,-1
 918 988 l 1,20,-1
 535 988 l 1,21,22
 531 972 531 972 465 565 c 2,23,-1
 437 393 l 1,24,25
 409 262 409 262 368.5 170 c 128,-1,26
 328 78 328 78 297 74 c 1,18,-1
EndSplineSet
EndChar

StartChar: afii10072
Encoding: 1078 1078 516
Width: 1538
Flags: W
LayerCount: 2
UndoRedoHistory
Layer: 1
Undoes
EndUndoes
Redoes
EndRedoes
EndUndoRedoHistory
Fore
SplineSet
61 0 m 1,0,-1
 603 546 l 1,1,-1
 64 1057 l 1,2,-1
 170 1057 l 1,3,-1
 691 551 l 1,4,-1
 691 1057 l 1,5,-1
 821 1057 l 1,6,-1
 821 551 l 1,7,-1
 1346 1057 l 1,8,-1
 1450 1057 l 1,9,-1
 912 546 l 1,10,-1
 1453 0 l 1,11,-1
 1335 0 l 1,12,-1
 821 524 l 1,13,-1
 821 0 l 1,14,-1
 691 0 l 1,15,-1
 691 524 l 1,16,-1
 180 0 l 1,17,-1
 61 0 l 1,0,-1
EndSplineSet
EndChar

StartChar: afii10074
Encoding: 1080 1080 517
Width: 1164
Flags: W
LayerCount: 2
UndoRedoHistory
Layer: 1
Undoes
EndUndoes
Redoes
EndRedoes
EndUndoRedoHistory
Fore
SplineSet
172 0 m 1,0,-1
 172 1055 l 1,1,-1
 272 1055 l 1,2,-1
 272 157 l 1,3,-1
 875 967 l 1,4,-1
 875 1055 l 1,5,-1
 977 1055 l 1,6,-1
 977 0 l 1,7,-1
 875 0 l 1,8,-1
 875 812 l 1,9,-1
 271 0 l 1,10,-1
 172 0 l 1,0,-1
EndSplineSet
EndChar

StartChar: afii10076
Encoding: 1082 1082 519
Width: 1200
Flags: W
LayerCount: 2
UndoRedoHistory
Layer: 1
Undoes
EndUndoes
Redoes
EndRedoes
EndUndoRedoHistory
Fore
SplineSet
208 0 m 1,0,-1
 208 1055 l 1,1,-1
 337 1055 l 1,2,-1
 337 547 l 1,3,-1
 804 1054 l 1,4,-1
 967 1056 l 1,5,-1
 475 528 l 1,6,-1
 1024 0 l 1,7,-1
 877 0 l 1,8,-1
 337 516 l 1,9,-1
 337 0 l 1,10,-1
 208 0 l 1,0,-1
EndSplineSet
EndChar

StartChar: afii10077
Encoding: 1083 1083 520
Width: 1219
Flags: W
LayerCount: 2
UndoRedoHistory
Layer: 1
Undoes
EndUndoes
Redoes
EndRedoes
EndUndoRedoHistory
Fore
SplineSet
43 -7 m 1,0,-1
 25 93 l 1,1,2
 117 93 117 93 157.5 112.5 c 128,-1,3
 198 132 198 132 218 158 c 128,-1,4
 238 184 238 184 257 229 c 0,5,6
 289 305 289 305 314 489 c 1,7,-1
 379 1055 l 1,8,-1
 1027 1055 l 1,9,-1
 1027 -1 l 1,10,-1
 898 -1 l 1,11,-1
 898 962 l 1,12,-1
 490 962 l 1,13,-1
 428 477 l 1,14,15
 409 320 409 320 383 226.5 c 128,-1,16
 357 133 357 133 309.5 80 c 128,-1,17
 262 27 262 27 202 10 c 128,-1,18
 142 -7 142 -7 43 -7 c 1,0,-1
EndSplineSet
EndChar

StartChar: afii10078
Encoding: 1084 1084 521
Width: 1359
Flags: W
LayerCount: 2
UndoRedoHistory
Layer: 1
Undoes
EndUndoes
Redoes
EndRedoes
EndUndoRedoHistory
Fore
SplineSet
193 0 m 1,0,-1
 193 1055 l 1,1,-1
 302 1055 l 1,2,-1
 683 291 l 1,3,-1
 1061 1055 l 1,4,-1
 1167 1055 l 1,5,-1
 1167 0 l 1,6,-1
 1054 0 l 1,7,-1
 1054 819 l 1,8,-1
 727 162 l 1,9,-1
 636 162 l 1,10,-1
 306 819 l 1,11,-1
 306 0 l 1,12,-1
 193 0 l 1,0,-1
EndSplineSet
EndChar

StartChar: afii10079
Encoding: 1085 1085 522
Width: 1246
Flags: W
LayerCount: 2
UndoRedoHistory
Layer: 1
Undoes
EndUndoes
Redoes
EndRedoes
EndUndoRedoHistory
Fore
SplineSet
193 0 m 1,0,-1
 193 1055 l 1,1,-1
 315 1055 l 1,2,-1
 315 608 l 1,3,-1
 932 608 l 1,4,-1
 932 1055 l 1,5,-1
 1054 1055 l 1,6,-1
 1054 0 l 1,7,-1
 932 0 l 1,8,-1
 932 513 l 1,9,-1
 315 513 l 1,10,-1
 315 0 l 1,11,-1
 193 0 l 1,0,-1
EndSplineSet
EndChar

StartChar: afii10081
Encoding: 1087 1087 524
Width: 1218
Flags: W
LayerCount: 2
UndoRedoHistory
Layer: 1
Undoes
EndUndoes
Redoes
EndRedoes
EndUndoRedoHistory
Fore
SplineSet
193 0 m 1,0,-1
 193 1055 l 1,1,-1
 1026 1055 l 1,2,-1
 1026 0 l 1,3,-1
 904 0 l 1,4,-1
 904 963 l 1,5,-1
 315 963 l 1,6,-1
 315 0 l 1,7,-1
 193 0 l 1,0,-1
EndSplineSet
EndChar

StartChar: afii10084
Encoding: 1090 1090 527
Width: 1025
Flags: W
LayerCount: 2
UndoRedoHistory
Layer: 1
Undoes
EndUndoes
Redoes
EndRedoes
EndUndoRedoHistory
Fore
SplineSet
435 0 m 1,0,-1
 435 954 l 1,1,-1
 136 954 l 1,2,-1
 136 1055 l 1,3,-1
 875 1055 l 1,4,-1
 875 954 l 1,5,-1
 571 954 l 1,6,-1
 571 0 l 1,7,-1
 435 0 l 1,0,-1
EndSplineSet
EndChar

StartChar: afii10085
Encoding: 1091 1091 528
Width: 1118
Flags: W
LayerCount: 2
UndoRedoHistory
Layer: 1
Undoes
EndUndoes
Redoes
EndRedoes
EndUndoRedoHistory
Fore
SplineSet
251 -304 m 1,0,-1
 251 -203 l 1,1,2
 476 -204 476 -204 527 -170 c 0,3,4
 572 -141 572 -141 580 -72 c 0,5,6
 584 -39 584 -39 584 13 c 2,7,-1
 584 28 l 1,8,-1
 583 147 l 1,9,-1
 118 1055 l 1,10,-1
 242 1055 l 1,11,-1
 630 284 l 1,12,-1
 946 1055 l 1,13,-1
 1066 1055 l 1,14,-1
 695 148 l 1,15,-1
 696 26 l 1,16,-1
 696 1 l 2,17,18
 696 -130 696 -130 673.5 -178 c 128,-1,19
 651 -226 651 -226 622.5 -245.5 c 128,-1,20
 594 -265 594 -265 542 -280 c 0,21,22
 459 -304 459 -304 251 -304 c 1,0,-1
EndSplineSet
EndChar

StartChar: afii10086
Encoding: 1092 1092 529
Width: 1473
Flags: W
LayerCount: 2
UndoRedoHistory
Layer: 1
Undoes
EndUndoes
Redoes
EndRedoes
EndUndoRedoHistory
Fore
SplineSet
645 -381 m 1,0,-1
 645 80 l 1,1,2
 564 43 564 43 419 43 c 128,-1,3
 274 43 274 43 168.5 184 c 128,-1,4
 63 325 63 325 63 542 c 128,-1,5
 63 759 63 759 161 889 c 128,-1,6
 259 1019 259 1019 418 1019 c 0,7,8
 468 1019 468 1019 534 1005 c 128,-1,9
 600 991 600 991 645 970 c 1,10,-1
 645 1304 l 1,11,-1
 748 1304 l 1,12,-1
 748 970 l 1,13,14
 856 1019 856 1019 973 1019 c 0,15,16
 1132 1019 1132 1019 1231 889 c 128,-1,17
 1330 759 1330 759 1330 543 c 128,-1,18
 1330 327 1330 327 1224 185 c 128,-1,19
 1118 43 1118 43 972 43 c 128,-1,20
 826 43 826 43 748 80 c 1,21,-1
 748 -381 l 1,22,-1
 645 -381 l 1,0,-1
250.5 255 m 128,-1,24
 320 134 320 134 442.5 134 c 128,-1,25
 565 134 565 134 645 175 c 1,26,-1
 645 885 l 1,27,28
 563 929 563 929 417 929 c 0,29,30
 303 929 303 929 242 819.5 c 128,-1,31
 181 710 181 710 181 543 c 128,-1,23
 181 376 181 376 250.5 255 c 128,-1,24
959 134 m 0,32,33
 1034 134 1034 134 1093 192 c 0,34,35
 1213 311 1213 311 1213 541 c 0,36,37
 1213 709 1213 709 1150.5 818.5 c 128,-1,38
 1088 928 1088 928 963.5 928 c 128,-1,39
 839 928 839 928 748 878 c 1,40,-1
 748 179 l 1,41,42
 825 134 825 134 959 134 c 0,32,33
EndSplineSet
EndChar

StartChar: afii10088
Encoding: 1094 1094 531
Width: 1198
Flags: W
LayerCount: 2
UndoRedoHistory
Layer: 1
Undoes
EndUndoes
Redoes
EndRedoes
EndUndoRedoHistory
Fore
SplineSet
953 -275 m 1,0,-1
 968 0 l 1,1,-1
 208 0 l 1,2,-1
 208 1057 l 1,3,-1
 335 1057 l 1,4,-1
 335 77 l 1,5,-1
 890 77 l 1,6,-1
 890 1057 l 1,7,-1
 1019 1057 l 1,8,-1
 1019 135 l 1,9,-1
 1114 135 l 1,10,-1
 1114 -275 l 1,11,-1
 953 -275 l 1,0,-1
EndSplineSet
EndChar

StartChar: afii10089
Encoding: 1095 1095 532
Width: 1058
Flags: W
LayerCount: 2
UndoRedoHistory
Layer: 1
Undoes
EndUndoes
Redoes
EndRedoes
EndUndoRedoHistory
Fore
SplineSet
728 0 m 1,0,-1
 728 412 l 1,1,2
 717 401 717 401 639 393 c 128,-1,3
 561 385 561 385 520 385 c 0,4,5
 371 385 371 385 284 432 c 0,6,7
 136 512 136 512 136 797 c 2,8,-1
 136 1059 l 1,9,-1
 304 1059 l 1,10,-1
 304 808 l 2,11,12
 304 627 304 627 360 567 c 0,13,14
 390 535 390 535 429.5 523.5 c 128,-1,15
 469 512 469 512 519 512 c 128,-1,16
 569 512 569 512 648 528 c 128,-1,17
 727 544 727 544 728 555 c 1,18,-1
 728 1059 l 1,19,-1
 895 1059 l 1,20,-1
 895 0 l 1,21,-1
 728 0 l 1,0,-1
EndSplineSet
EndChar

StartChar: afii10090
Encoding: 1096 1096 533
Width: 1491
Flags: W
LayerCount: 2
UndoRedoHistory
Layer: 1
Undoes
EndUndoes
Redoes
EndRedoes
EndUndoRedoHistory
Fore
SplineSet
289 0 m 1,0,-1
 289 1055 l 1,1,-1
 412 1055 l 1,2,-1
 412 76 l 1,3,-1
 735 76 l 1,4,-1
 735 1055 l 1,5,-1
 840 1055 l 1,6,-1
 840 76 l 1,7,-1
 1162 76 l 1,8,-1
 1162 1055 l 1,9,-1
 1287 1055 l 1,10,-1
 1287 0 l 1,11,-1
 289 0 l 1,0,-1
EndSplineSet
EndChar

StartChar: afii10091
Encoding: 1097 1097 534
Width: 1446
Flags: W
LayerCount: 2
UndoRedoHistory
Layer: 1
Undoes
EndUndoes
Redoes
EndRedoes
EndUndoRedoHistory
Fore
SplineSet
1203 -280 m 1,0,-1
 1214 0 l 1,1,-1
 210 0 l 1,2,-1
 210 1057 l 1,3,-1
 349 1057 l 1,4,-1
 349 77 l 1,5,-1
 696 77 l 1,6,-1
 696 1057 l 1,7,-1
 837 1057 l 1,8,-1
 837 77 l 1,9,-1
 1124 77 l 1,10,-1
 1124 1057 l 1,11,-1
 1265 1057 l 1,12,-1
 1265 134 l 1,13,-1
 1361 134 l 1,14,-1
 1361 -280 l 1,15,-1
 1203 -280 l 1,0,-1
EndSplineSet
EndChar

StartChar: afii10092
Encoding: 1098 1098 535
Width: 1028
Flags: W
LayerCount: 2
UndoRedoHistory
Layer: 1
Undoes
EndUndoes
Redoes
EndRedoes
EndUndoRedoHistory
Fore
SplineSet
228 0 m 1,0,-1
 228 981 l 1,1,-1
 82 981 l 1,2,-1
 82 1058 l 1,3,-1
 357 1058 l 1,4,-1
 357 671 l 1,5,-1
 557 671 l 2,6,7
 796 670 796 670 876 522 c 0,8,9
 916 448 916 448 916 372.5 c 128,-1,10
 916 297 916 297 907 251.5 c 128,-1,11
 898 206 898 206 873 159 c 128,-1,12
 848 112 848 112 810 78 c 0,13,14
 722 0 722 0 559 0 c 2,15,-1
 228 0 l 1,0,-1
356 85 m 1,16,-1
 574 85 l 2,17,18
 722 85 722 85 762 262 c 0,19,20
 772 305 772 305 771 349 c 0,21,22
 771 444 771 444 721 511 c 128,-1,23
 671 578 671 578 567 578 c 2,24,-1
 356 578 l 1,25,-1
 356 85 l 1,16,-1
EndSplineSet
EndChar

StartChar: afii10093
Encoding: 1099 1099 536
Width: 1506
Flags: W
LayerCount: 2
UndoRedoHistory
Layer: 1
Undoes
EndUndoes
Redoes
EndRedoes
EndUndoRedoHistory
Fore
SplineSet
193 0 m 1,0,-1
 193 1058 l 1,1,-1
 315 1058 l 1,2,-1
 315 668 l 1,3,-1
 568 668 l 2,4,5
 810 668 810 668 893 520 c 0,6,7
 935 445 935 445 935 370 c 128,-1,8
 935 295 935 295 926 250 c 128,-1,9
 917 205 917 205 892.5 158 c 128,-1,10
 868 111 868 111 828 77 c 0,11,12
 739 0 739 0 570 0 c 2,13,-1
 193 0 l 1,0,-1
314 85 m 1,14,-1
 574 85 l 2,15,16
 819 85 819 85 819 347 c 0,17,18
 819 462 819 462 756 519 c 128,-1,19
 693 576 693 576 577 576 c 2,20,-1
 314 576 l 1,21,-1
 314 85 l 1,14,-1
1192 0 m 1,22,-1
 1192 1058 l 1,23,-1
 1314 1058 l 1,24,-1
 1314 0 l 1,25,-1
 1192 0 l 1,22,-1
EndSplineSet
EndChar

StartChar: afii10094
Encoding: 1100 1100 537
Width: 1018
Flags: W
LayerCount: 2
UndoRedoHistory
Layer: 1
Undoes
EndUndoes
Redoes
EndRedoes
EndUndoRedoHistory
Fore
SplineSet
193 0 m 1,0,-1
 193 1058 l 1,1,-1
 315 1058 l 1,2,-1
 315 668 l 1,3,-1
 568 668 l 2,4,5
 810 668 810 668 893 520 c 0,6,7
 935 445 935 445 935 370 c 128,-1,8
 935 295 935 295 926 250 c 128,-1,9
 917 205 917 205 892.5 158 c 128,-1,10
 868 111 868 111 828 77 c 0,11,12
 739 0 739 0 570 0 c 2,13,-1
 193 0 l 1,0,-1
314 85 m 1,14,-1
 574 85 l 2,15,16
 819 85 819 85 819 347 c 0,17,18
 819 462 819 462 756 519 c 128,-1,19
 693 576 693 576 577 576 c 2,20,-1
 314 576 l 1,21,-1
 314 85 l 1,14,-1
EndSplineSet
EndChar

StartChar: afii10095
Encoding: 1101 1101 538
Width: 1195
Flags: W
LayerCount: 2
UndoRedoHistory
Layer: 1
Undoes
EndUndoes
Redoes
EndRedoes
EndUndoRedoHistory
Fore
SplineSet
696 6 m 0,0,1
 608 -28 608 -28 501.5 -28 c 128,-1,2
 395 -28 395 -28 306.5 -2 c 128,-1,3
 218 24 218 24 179 66 c 1,4,-1
 210 144 l 1,5,6
 351 64 351 64 492 64 c 0,7,8
 671 64 671 64 785 180 c 128,-1,9
 899 296 899 296 911 474 c 1,10,-1
 470 474 l 1,11,-1
 470 575 l 1,12,-1
 911 575 l 1,13,14
 897 765 897 765 791.5 881 c 128,-1,15
 686 997 686 997 487 997 c 0,16,17
 349 997 349 997 207 912 c 1,18,-1
 170 988 l 1,19,20
 222 1035 222 1035 312 1061 c 128,-1,21
 402 1087 402 1087 503.5 1087 c 128,-1,22
 605 1087 605 1087 699.5 1051.5 c 128,-1,23
 794 1016 794 1016 852 959.5 c 0,24,25
 910 904 910 904 948 826 c 0,26,27
 1014 689 1014 689 1014 511 c 0,28,29
 1014 354 1014 354 940 220 c 0,30,31
 856 66 856 66 696 6 c 0,0,1
EndSplineSet
EndChar

StartChar: afii10096
Encoding: 1102 1102 539
Width: 1520
Flags: W
LayerCount: 2
UndoRedoHistory
Layer: 1
Undoes
EndUndoes
Redoes
EndRedoes
EndUndoRedoHistory
Fore
SplineSet
902 -28 m 0,0,1
 798 -28 798 -28 712.5 10 c 0,2,3
 628 48 628 48 576 118 c 0,4,5
 476 256 476 256 471 483 c 1,6,-1
 260 483 l 1,7,-1
 260 0 l 1,8,-1
 172 0 l 1,9,-1
 172 1055 l 1,10,-1
 260 1055 l 1,11,-1
 260 567 l 1,12,-1
 471 567 l 1,13,14
 478 849 478 849 626 987 c 0,15,16
 733 1087 733 1087 915 1087 c 0,17,18
 1195 1086 1195 1086 1286 856 c 0,19,20
 1338 724 1338 724 1338 528 c 0,21,22
 1338 -28 1338 -28 902 -28 c 0,0,1
753 102.5 m 128,-1,24
 821 64 821 64 905 64 c 128,-1,25
 989 64 989 64 1045.5 90 c 128,-1,26
 1102 116 1102 116 1137.5 158.5 c 0,27,28
 1174 200 1174 200 1196 262 c 0,29,30
 1236 370 1236 370 1235.5 486.5 c 128,-1,31
 1235 603 1235 603 1227.5 666.5 c 128,-1,32
 1220 730 1220 730 1198 793.5 c 0,33,34
 1176 858 1176 858 1141 900 c 0,35,36
 1062 995 1062 995 910 995 c 0,37,38
 699 995 699 995 620 787 c 0,39,40
 577 674 577 674 577 551.5 c 128,-1,41
 577 429 577 429 594 352 c 128,-1,42
 611 275 611 275 648 208 c 128,-1,23
 685 141 685 141 753 102.5 c 128,-1,24
EndSplineSet
EndChar

StartChar: afii10097
Encoding: 1103 1103 540
Width: 1136
Flags: W
LayerCount: 2
UndoRedoHistory
Layer: 1
Undoes
EndUndoes
Redoes
EndRedoes
EndUndoRedoHistory
Fore
SplineSet
181 0 m 1,0,-1
 381 442 l 1,1,2
 192 488 192 488 138 666 c 0,3,4
 124 711 124 711 124 761 c 128,-1,5
 124 811 124 811 143.5 862.5 c 128,-1,6
 163 914 163 914 204 959 c 0,7,8
 294 1058 294 1058 489 1058 c 2,9,-1
 944 1058 l 1,10,-1
 944 0 l 1,11,-1
 822 0 l 1,12,-1
 822 435 l 1,13,-1
 504 435 l 1,14,-1
 310 0 l 1,15,-1
 181 0 l 1,0,-1
510 524 m 2,16,-1
 822 524 l 1,17,-1
 822 972 l 1,18,-1
 489 972 l 2,19,20
 276 972 276 972 246 812 c 0,21,22
 240 782 240 782 241 748 c 0,23,24
 241 645 241 645 311.5 584.5 c 128,-1,25
 382 524 382 524 510 524 c 2,16,-1
EndSplineSet
EndChar

StartChar: afii10099
Encoding: 1106 1106 543
Width: 1334
Flags: W
LayerCount: 2
UndoRedoHistory
Layer: 1
Undoes
EndUndoes
Redoes
EndRedoes
EndUndoRedoHistory
Fore
SplineSet
794 -280 m 1,0,-1
 783 -152 l 1,1,-1
 819 -152 l 2,2,3
 889 -152 889 -152 925.5 -144 c 128,-1,4
 962 -136 962 -136 984.5 -107 c 128,-1,5
 1007 -78 1007 -78 1012.5 -34.5 c 128,-1,6
 1018 9 1018 9 1018 95 c 2,7,-1
 1018 355 l 2,8,9
 1018 594 1018 594 955 665 c 0,10,11
 902 724 902 724 784.5 724 c 128,-1,12
 667 724 667 724 567 645.5 c 128,-1,13
 467 567 467 567 444 479 c 1,14,-1
 444 0 l 1,15,-1
 294 0 l 1,16,-1
 294 1072 l 1,17,-1
 201 1072 l 1,18,-1
 201 1173 l 1,19,-1
 294 1173 l 1,20,-1
 294 1465 l 1,21,-1
 444 1465 l 1,22,-1
 444 1173 l 1,23,-1
 861 1173 l 1,24,-1
 861 1072 l 1,25,-1
 444 1072 l 1,26,-1
 444 671 l 1,27,28
 590 860 590 860 806 860 c 0,29,30
 1170 860 1170 860 1170 427 c 2,31,-1
 1170 147 l 2,32,33
 1170 -78 1170 -78 1139 -148 c 0,34,35
 1106 -224 1106 -224 1048 -248 c 0,36,37
 975 -280 975 -280 860 -280 c 2,38,-1
 794 -280 l 1,0,-1
EndSplineSet
EndChar

StartChar: afii10107
Encoding: 1114 1114 549
Width: 1577
Flags: W
LayerCount: 2
UndoRedoHistory
Layer: 1
Undoes
EndUndoes
Redoes
EndRedoes
EndUndoRedoHistory
Fore
SplineSet
163 0 m 1,0,-1
 163 1058 l 1,1,-1
 326 1058 l 1,2,-1
 326 623 l 1,3,-1
 814 623 l 1,4,-1
 814 1058 l 1,5,-1
 975 1058 l 1,6,-1
 975 623 l 1,7,-1
 1210 623 l 2,8,9
 1378 623 1378 623 1460.5 537 c 128,-1,10
 1543 451 1543 451 1543 315 c 128,-1,11
 1543 179 1543 179 1457.5 89.5 c 128,-1,12
 1372 0 1372 0 1209 0 c 2,13,-1
 814 0 l 1,14,-1
 814 499 l 1,15,-1
 326 499 l 1,16,-1
 326 0 l 1,17,-1
 163 0 l 1,0,-1
975 120 m 1,18,-1
 1205 120 l 2,19,20
 1309 120 1309 120 1357 175 c 128,-1,21
 1405 230 1405 230 1405 315 c 128,-1,22
 1405 400 1405 400 1357.5 453.5 c 128,-1,23
 1310 507 1310 507 1205 507 c 2,24,-1
 975 507 l 1,25,-1
 975 120 l 1,18,-1
EndSplineSet
EndChar

StartChar: afii10193
Encoding: 1119 1119 553
Width: 1077
Flags: W
LayerCount: 2
UndoRedoHistory
Layer: 1
Undoes
EndUndoes
Redoes
EndRedoes
EndUndoRedoHistory
Fore
SplineSet
518 -260 m 1,0,-1
 514 0 l 1,1,-1
 148 0 l 1,2,-1
 148 1059 l 1,3,-1
 288 1059 l 1,4,-1
 288 115 l 1,5,-1
 802 115 l 1,6,-1
 802 1059 l 1,7,-1
 942 1059 l 1,8,-1
 942 0 l 1,9,-1
 633 0 l 1,10,-1
 629 -260 l 1,11,-1
 518 -260 l 1,0,-1
EndSplineSet
EndChar

StartChar: uni2074
Encoding: 8308 8308 572
Width: 734
Flags: W
LayerCount: 2
UndoRedoHistory
Layer: 1
Undoes
EndUndoes
Redoes
EndRedoes
EndUndoRedoHistory
Fore
SplineSet
438 649 m 1,0,-1
 438 851 l 1,1,-1
 120 851 l 1,2,-1
 120 941 l 1,3,-1
 425 1482 l 1,4,-1
 528 1482 l 1,5,-1
 528 950 l 1,6,-1
 618 950 l 1,7,-1
 626 851 l 1,8,-1
 525 851 l 1,9,-1
 526 649 l 1,10,-1
 438 649 l 1,0,-1
214 950 m 1,11,-1
 438 950 l 1,12,-1
 439 1327 l 1,13,-1
 214 950 l 1,11,-1
EndSplineSet
EndChar

StartChar: uni2206
Encoding: 8710 8710 573
Width: 1358
Flags: W
LayerCount: 2
UndoRedoHistory
Layer: 1
Undoes
EndUndoes
Redoes
EndRedoes
EndUndoRedoHistory
Fore
SplineSet
106 0 m 1,0,-1
 106 83 l 1,1,-1
 588 1500 l 1,2,-1
 774 1500 l 1,3,-1
 1255 83 l 1,4,-1
 1255 0 l 1,5,-1
 106 0 l 1,0,-1
302 169 m 1,6,-1
 1059 169 l 1,7,-1
 710 1163 l 1,8,-1
 676 1278 l 1,9,-1
 644 1163 l 1,10,-1
 302 169 l 1,6,-1
EndSplineSet
EndChar

StartChar: uni030C
Encoding: 780 780 593
Width: 775
Flags: W
LayerCount: 2
UndoRedoHistory
Layer: 1
Undoes
EndUndoes
Redoes
EndRedoes
EndUndoRedoHistory
Fore
SplineSet
655 1460 m 1,0,-1
 475 1087 l 1,1,-1
 288 1087 l 1,2,-1
 120 1460 l 1,3,-1
 232 1460 l 1,4,-1
 386 1186 l 1,5,-1
 544 1460 l 1,6,-1
 655 1460 l 1,0,-1
EndSplineSet
EndChar

StartChar: gravecomb
Encoding: 768 768 595
Width: 650
Flags: W
LayerCount: 2
UndoRedoHistory
Layer: 1
Undoes
EndUndoes
Redoes
EndRedoes
EndUndoRedoHistory
Fore
SplineSet
414 1058 m 1,0,-1
 144 1460 l 1,1,-1
 332 1460 l 1,2,-1
 508 1058 l 1,3,-1
 414 1058 l 1,0,-1
EndSplineSet
EndChar

StartChar: tildecomb
Encoding: 771 771 596
Width: 874
Flags: W
LayerCount: 2
UndoRedoHistory
Layer: 1
Undoes
EndUndoes
Redoes
EndRedoes
EndUndoRedoHistory
Fore
SplineSet
213 1261 m 1,0,1
 129 1261 l 1,2,3
 129 1361 129 1361 171.5 1411 c 128,-1,4
 214 1461 214 1461 286 1461 c 0,5,6
 358 1460 358 1460 499 1396 c 0,7,8
 546 1374 546 1374 570 1375 c 0,9,10
 620 1375 620 1375 630 1460 c 1,11,-1
 716 1460 l 1,12,13
 716 1361 716 1361 678 1311 c 128,-1,14
 640 1261 640 1261 580 1261 c 128,-1,15
 520 1261 520 1261 416.5 1309.5 c 128,-1,16
 313 1358 313 1358 281 1358 c 0,17,18
 224 1358 224 1358 213 1261 c 1,0,1
EndSplineSet
EndChar

StartChar: uni030A
Encoding: 778 778 597
Width: 603
Flags: W
LayerCount: 2
UndoRedoHistory
Layer: 1
Undoes
EndUndoes
Redoes
EndRedoes
EndUndoRedoHistory
Fore
SplineSet
302 1203 m 128,-1,1
 343 1203 343 1203 370.5 1232 c 128,-1,2
 398 1261 398 1261 398 1302.5 c 128,-1,3
 398 1344 398 1344 370.5 1373 c 128,-1,4
 343 1402 343 1402 302 1402 c 128,-1,5
 261 1402 261 1402 233.5 1373 c 128,-1,6
 206 1344 206 1344 206 1302.5 c 128,-1,7
 206 1261 206 1261 233.5 1232 c 128,-1,0
 261 1203 261 1203 302 1203 c 128,-1,1
302 1128 m 128,-1,9
 223 1128 223 1128 170.5 1179 c 128,-1,10
 118 1230 118 1230 118 1304 c 128,-1,11
 118 1378 118 1378 170.5 1429 c 128,-1,12
 223 1480 223 1480 302 1480 c 128,-1,13
 381 1480 381 1480 433 1429 c 128,-1,14
 485 1378 485 1378 485 1304 c 128,-1,15
 485 1230 485 1230 433 1179 c 128,-1,8
 381 1128 381 1128 302 1128 c 128,-1,9
EndSplineSet
EndChar

StartChar: uni0306
Encoding: 774 774 598
Width: 736
Flags: W
LayerCount: 2
UndoRedoHistory
Layer: 1
Undoes
EndUndoes
Redoes
EndRedoes
EndUndoRedoHistory
Fore
SplineSet
199 1284.5 m 128,-1,1
 134 1342 134 1342 134 1460 c 1,2,-1
 236 1460 l 1,3,4
 236 1392 236 1392 272.5 1358.5 c 128,-1,5
 309 1325 309 1325 365 1325 c 128,-1,6
 421 1325 421 1325 459.5 1358.5 c 128,-1,7
 498 1392 498 1392 498 1460 c 1,8,-1
 600 1460 l 1,9,10
 600 1343 600 1343 533.5 1285 c 128,-1,11
 467 1227 467 1227 365.5 1227 c 128,-1,0
 264 1227 264 1227 199 1284.5 c 128,-1,1
EndSplineSet
EndChar

StartChar: uni0304
Encoding: 772 772 599
Width: 1056
Flags: W
LayerCount: 2
UndoRedoHistory
Layer: 1
Undoes
EndUndoes
Redoes
EndRedoes
EndUndoRedoHistory
Fore
SplineSet
224 1341 m 1,0,-1
 224 1460 l 1,1,-1
 809 1460 l 1,2,-1
 809 1341 l 1,3,-1
 224 1341 l 1,0,-1
EndSplineSet
EndChar
